<svg width="1500" height="1000" viewBox="0 0 1500 1000" fill="none" xmlns="http://www.w3.org/2000/svg">
<g clip-path="url(#clip0_50_3872)">
<g opacity="0.25">
<path d="M777.267 274.353H590.505V545.059H777.267V274.353Z" fill="#E0E0E0"/>
<path d="M767.913 274.353H581.151V545.059H767.913V274.353Z" fill="#F5F5F5"/>
<path d="M744.71 303.671H604.354V515.737H744.71V303.671Z" fill="white"/>
<path d="M744.71 515.739C744.71 515.739 744.692 515.379 744.682 514.701C744.676 514.001 744.666 513.001 744.654 511.695C744.64 509.029 744.622 505.129 744.598 500.063C744.568 489.899 744.526 475.089 744.472 456.379C744.416 418.985 744.336 366.031 744.242 303.673L744.708 304.139C701.828 304.151 654.31 304.165 604.37 304.181H604.354L604.862 303.673C604.822 383.673 604.788 457.435 604.758 515.739L604.354 515.335C647.098 515.425 682.134 515.497 706.514 515.547C718.71 515.591 728.234 515.627 734.738 515.651C737.97 515.671 740.448 515.685 742.146 515.697C743.826 515.709 744.71 515.739 744.71 515.739C744.71 515.739 743.884 515.767 742.234 515.783C740.552 515.793 738.102 515.809 734.9 515.829C728.416 515.853 718.922 515.887 706.766 515.931C682.326 515.981 647.204 516.055 604.354 516.143H603.95V515.737C603.922 457.431 603.886 383.671 603.846 303.671V303.163H604.354H604.37C654.312 303.177 701.828 303.191 744.708 303.205H745.174V303.671C745.08 366.155 745.002 419.213 744.944 456.683C744.89 475.347 744.848 490.123 744.818 500.263C744.794 505.287 744.774 509.157 744.762 511.801C744.75 513.087 744.742 514.067 744.734 514.755C744.728 515.415 744.71 515.739 744.71 515.739Z" fill="#E0E0E0"/>
<path d="M768.437 274.353C768.547 274.437 767.279 276.289 765.109 279.189C762.939 282.091 759.859 286.037 756.347 290.303C752.831 294.571 749.547 298.349 747.115 301.035C744.683 303.721 743.109 305.319 743.005 305.229C742.897 305.135 744.279 303.369 746.569 300.567C749.073 297.529 752.153 293.791 755.561 289.657C758.965 285.523 762.043 281.783 764.543 278.743C766.857 275.959 768.325 274.265 768.437 274.353Z" fill="#E0E0E0"/>
<path d="M745.426 515.055C752.396 526.139 760.626 536.433 769.906 545.671L745.426 515.055Z" fill="white"/>
<path d="M769.906 545.671C769.814 545.765 768.148 544.319 765.638 541.789C763.128 539.261 759.802 535.621 756.404 531.375C753.008 527.123 750.188 523.079 748.274 520.073C746.358 517.069 745.314 515.125 745.426 515.057C745.552 514.977 746.81 516.783 748.87 519.671C750.928 522.561 753.822 526.513 757.198 530.741C760.578 534.963 763.796 538.655 766.162 541.299C768.526 543.941 770.01 545.565 769.906 545.671Z" fill="#E0E0E0"/>
<path d="M581.124 544.843C589.278 534.783 597.432 524.721 605.588 514.661L581.124 544.843Z" fill="white"/>
<path d="M605.588 514.661C605.806 514.837 600.506 521.737 593.752 530.071C586.996 538.407 581.344 545.019 581.126 544.843C580.908 544.667 586.206 537.767 592.964 529.431C599.716 521.097 605.37 514.485 605.588 514.661Z" fill="#E0E0E0"/>
<path d="M581.15 274.353C581.37 274.179 586.686 280.535 593.024 288.547C599.364 296.561 604.322 303.199 604.102 303.373C603.882 303.547 598.566 297.193 592.228 289.177C585.89 281.165 580.932 274.527 581.15 274.353Z" fill="#E0E0E0"/>
<path d="M700.979 346.729H653.983V480.165H700.979V346.729Z" fill="#E0E0E0"/>
<path d="M265.419 266.929H118.189V480.333H265.419V266.929Z" fill="#E0E0E0"/>
<path d="M258.043 266.929H110.813V480.333H258.043V266.929Z" fill="#F5F5F5"/>
<path d="M239.751 290.041H129.105V457.219H239.751V290.041Z" fill="white"/>
<path d="M239.752 457.219C239.752 457.219 239.738 456.937 239.73 456.401C239.724 455.849 239.718 455.061 239.708 454.031C239.698 451.929 239.682 448.855 239.664 444.861C239.64 436.849 239.608 425.173 239.566 410.423C239.522 380.943 239.458 339.199 239.386 290.041L239.754 290.409C205.95 290.419 168.492 290.431 129.122 290.443H129.108L129.508 290.043C129.478 353.109 129.45 411.257 129.426 457.221L129.106 456.903C162.802 456.973 190.422 457.031 209.642 457.071C219.256 457.107 226.764 457.133 231.892 457.153C234.44 457.169 236.394 457.181 237.732 457.189C239.054 457.197 239.752 457.219 239.752 457.219C239.752 457.219 239.1 457.243 237.8 457.253C236.474 457.261 234.542 457.273 232.02 457.289C226.908 457.307 219.424 457.335 209.842 457.371C190.576 457.411 162.888 457.469 129.108 457.539H128.788V457.219C128.766 411.255 128.738 353.107 128.706 290.041V289.641H129.106H129.12C168.49 289.653 205.948 289.663 239.752 289.675H240.12V290.043C240.046 339.301 239.984 381.127 239.94 410.667C239.898 425.381 239.864 437.029 239.842 445.021C239.822 448.983 239.808 452.033 239.798 454.117C239.788 455.131 239.782 455.903 239.776 456.447C239.766 456.965 239.752 457.219 239.752 457.219Z" fill="#E0E0E0"/>
<path d="M258.458 266.929C258.544 266.995 257.544 268.455 255.834 270.741C254.124 273.029 251.696 276.139 248.926 279.503C246.154 282.867 243.566 285.847 241.648 287.963C239.73 290.079 238.49 291.341 238.408 291.269C238.324 291.195 239.412 289.803 241.218 287.593C243.192 285.199 245.62 282.251 248.306 278.993C250.988 275.733 253.416 272.785 255.388 270.389C257.212 268.195 258.368 266.861 258.458 266.929Z" fill="#E0E0E0"/>
<path d="M240.315 456.681C245.811 465.419 252.299 473.533 259.613 480.817L240.315 456.681Z" fill="white"/>
<path d="M259.613 480.817C259.541 480.891 258.227 479.751 256.249 477.757C254.271 475.763 251.649 472.895 248.969 469.547C246.291 466.195 244.069 463.007 242.561 460.637C241.051 458.269 240.227 456.737 240.315 456.683C240.415 456.621 241.405 458.043 243.029 460.321C244.651 462.599 246.933 465.715 249.595 469.047C252.259 472.375 254.797 475.285 256.663 477.369C258.525 479.453 259.695 480.733 259.613 480.817Z" fill="#E0E0E0"/>
<path d="M110.792 480.163C117.22 472.231 123.648 464.301 130.076 456.369L110.792 480.163Z" fill="white"/>
<path d="M130.078 456.369C130.25 456.509 126.072 461.947 120.748 468.517C115.422 475.089 110.966 480.301 110.794 480.163C110.622 480.023 114.8 474.585 120.126 468.013C125.45 461.445 129.906 456.231 130.078 456.369Z" fill="#E0E0E0"/>
<path d="M110.814 266.929C110.988 266.791 115.178 271.803 120.174 278.119C125.172 284.437 129.08 289.669 128.906 289.807C128.732 289.943 124.542 284.935 119.544 278.617C114.55 272.299 110.64 267.065 110.814 266.929Z" fill="#E0E0E0"/>
<path d="M205.277 323.985H168.229V429.177H205.277V323.985Z" fill="#E0E0E0"/>
<path d="M1372.3 181.033H865.912V649.709H1372.3V181.033Z" fill="#EBEBEB"/>
<path d="M1403.19 673.101C1403.18 667.973 1402.98 468.525 1402.66 157.643L1403.19 158.259C1243.43 158.295 1050.59 158.339 842.97 158.387H842.922L843.556 157.643C843.532 343.555 843.51 519.343 843.49 673.101L842.92 672.433C1175.54 672.829 1398.19 673.095 1403.19 673.101C1398.19 673.107 1175.54 673.373 842.922 673.769H842.352V673.101C842.332 519.343 842.31 343.555 842.286 157.643V156.899H842.922H842.97C1050.58 156.947 1243.43 156.991 1403.19 157.027H1403.71V157.643C1403.4 468.527 1403.19 667.977 1403.19 673.101Z" fill="#E0E0E0"/>
<path d="M1132.16 172.277H1119.05V649.801H1132.16V172.277Z" fill="white"/>
<path d="M865.913 408.603V424.767L1372.3 424.767V408.603L865.913 408.603Z" fill="white"/>
<path d="M1063.52 352.045C1027.06 352.045 997.496 322.485 997.496 286.021C997.496 270.861 1002.66 256.937 1011.25 245.791C995.59 257.863 985.458 276.757 985.458 298.059C985.458 334.523 1015.02 364.083 1051.48 364.083C1072.79 364.083 1091.68 353.951 1103.75 338.289C1092.61 346.881 1078.68 352.045 1063.52 352.045Z" fill="#FAFAFA"/>
<path d="M1359.28 358.251L1362.34 359.943L1359.27 361.611C1357.66 362.483 1356.33 363.799 1355.44 365.403L1353.75 368.469L1352.08 365.391C1351.21 363.779 1349.89 362.453 1348.29 361.567L1345.22 359.875L1348.3 358.207C1349.91 357.335 1351.24 356.019 1352.13 354.415L1353.82 351.349L1355.49 354.427C1356.36 356.037 1357.68 357.365 1359.28 358.251Z" fill="#FAFAFA"/>
<path d="M999.514 512.285L1002.58 513.977L999.502 515.645C997.89 516.517 996.564 517.833 995.678 519.437L993.986 522.501L992.318 519.423C991.446 517.811 990.128 516.485 988.526 515.599L985.462 513.907L988.54 512.239C990.15 511.367 991.478 510.051 992.364 508.447L994.056 505.383L995.724 508.461C996.594 510.073 997.91 511.399 999.514 512.285Z" fill="#FAFAFA"/>
<path d="M1101.43 472.253L1102.64 472.921L1101.43 473.579C1100.79 473.923 1100.27 474.443 1099.92 475.077L1099.25 476.289L1098.59 475.073C1098.25 474.437 1097.72 473.911 1097.09 473.561L1095.88 472.893L1097.1 472.235C1097.73 471.889 1098.26 471.369 1098.61 470.737L1099.28 469.527L1099.94 470.743C1100.28 471.379 1100.8 471.903 1101.43 472.253Z" fill="#FAFAFA"/>
<path d="M1310.98 541.261L1312.19 541.929L1310.98 542.587C1310.34 542.931 1309.81 543.451 1309.46 544.085L1308.8 545.297L1308.14 544.081C1307.79 543.445 1307.27 542.919 1306.64 542.569L1305.43 541.901L1306.64 541.243C1307.28 540.899 1307.81 540.379 1308.16 539.745L1308.82 538.535L1309.48 539.751C1309.83 540.385 1310.35 540.911 1310.98 541.261Z" fill="#FAFAFA"/>
<path d="M1131.01 351.367L1132.22 352.035L1131.01 352.693C1130.37 353.037 1129.84 353.557 1129.5 354.191L1128.83 355.403L1128.17 354.187C1127.82 353.551 1127.3 353.025 1126.67 352.675L1125.46 352.007L1126.67 351.349C1127.31 351.005 1127.84 350.485 1128.18 349.851L1128.85 348.641L1129.51 349.857C1129.86 350.491 1130.38 351.015 1131.01 351.367Z" fill="#FAFAFA"/>
<path d="M1417.13 287.241H820.054V304.937H1417.13V287.241Z" fill="#F5F5F5"/>
<path d="M1417.13 253.713H820.054V271.409H1417.13V253.713Z" fill="#F5F5F5"/>
<path d="M1417.13 220.183H820.054V237.879H1417.13V220.183Z" fill="#F5F5F5"/>
<path d="M1417.13 186.655H820.054V204.351H1417.13V186.655Z" fill="#F5F5F5"/>
<path d="M1417.13 153.125H820.054V170.821H1417.13V153.125Z" fill="#F5F5F5"/>
<path d="M1403.19 673.101C1403.19 673.101 1402.47 672.625 1401.13 671.635C1399.75 670.613 1397.76 669.135 1395.15 667.199C1389.87 663.243 1382.13 657.437 1372.13 649.937L1372.3 649.995C1323.53 650.051 1229.49 650.161 1121.66 650.287C1010 650.151 913.159 650.035 865.913 649.977L866.103 649.897C858.417 657.667 852.503 663.647 848.483 667.711C846.495 669.699 844.98 671.213 843.93 672.263C842.902 673.279 842.355 673.771 842.355 673.771C842.355 673.771 842.835 673.213 843.829 672.165C844.855 671.093 846.339 669.547 848.285 667.517C852.265 663.411 858.117 657.373 865.725 649.527L865.803 649.447H865.915C913.161 649.389 1010 649.273 1121.66 649.137C1229.49 649.263 1323.53 649.371 1372.3 649.429H1372.39L1372.47 649.487C1382.4 657.081 1390.09 662.959 1395.33 666.963C1397.9 668.949 1399.86 670.467 1401.22 671.517C1402.54 672.545 1403.19 673.101 1403.19 673.101Z" fill="#E0E0E0"/>
<path d="M501.818 203.901H338.812V373.821H501.818V203.901Z" fill="#E0E0E0"/>
<path d="M490.779 203.901H327.773V373.821H490.779V203.901Z" fill="#FAFAFA"/>
<path d="M490.83 373.873H327.722V203.851H490.83V373.873ZM327.824 373.771H490.728V203.951H327.824V373.771Z" fill="#E0E0E0"/>
<path d="M468.868 226.745H349.686V350.981H468.868V226.745Z" fill="white"/>
<path d="M349.686 351.807C349.78 351.919 348.648 353.217 346.746 355.227C344.842 357.235 342.167 359.953 339.169 362.907C336.169 365.861 333.416 368.493 331.384 370.359C329.352 372.227 328.042 373.331 327.94 373.227C327.838 373.123 328.961 371.831 330.865 369.821C332.769 367.813 335.45 365.087 338.458 362.125C341.464 359.163 344.225 356.527 346.257 354.659C348.289 352.793 349.592 351.695 349.686 351.807Z" fill="#E0E0E0"/>
<path d="M468.865 351.501C468.977 351.407 470.277 352.539 472.285 354.441C474.293 356.345 477.013 359.019 479.965 362.017C482.919 365.015 485.549 367.771 487.417 369.803C489.285 371.835 490.389 373.145 490.287 373.247C490.183 373.349 488.891 372.225 486.881 370.323C484.873 368.419 482.147 365.737 479.185 362.729C476.225 359.723 473.587 356.961 471.719 354.929C469.853 352.897 468.755 351.595 468.865 351.501Z" fill="#E0E0E0"/>
<path d="M468.542 227.075C468.448 226.963 469.58 225.665 471.484 223.655C473.388 221.647 476.062 218.927 479.06 215.975C482.058 213.021 484.814 210.389 486.846 208.521C488.878 206.653 490.188 205.549 490.29 205.653C490.392 205.757 489.268 207.049 487.364 209.057C485.46 211.065 482.778 213.791 479.772 216.753C476.766 219.715 474.004 222.351 471.972 224.219C469.938 226.089 468.636 227.187 468.542 227.075Z" fill="#E0E0E0"/>
<path d="M349.36 227.381C349.248 227.475 347.95 226.343 345.94 224.439C343.932 222.535 341.214 219.861 338.26 216.863C335.306 213.863 332.674 211.109 330.808 209.077C328.94 207.045 327.836 205.735 327.94 205.633C328.042 205.529 329.336 206.655 331.344 208.557C333.352 210.461 336.078 213.143 339.04 216.151C342.002 219.157 344.638 221.919 346.506 223.951C348.372 225.983 349.472 227.285 349.36 227.381Z" fill="#E0E0E0"/>
<path d="M468.542 350.979C468.534 350.971 468.524 350.767 468.516 350.375C468.51 349.951 468.502 349.381 468.49 348.641C468.476 347.083 468.46 344.843 468.436 341.935C468.408 336.049 468.366 327.487 468.316 316.615C468.26 294.855 468.18 263.859 468.082 226.743L468.542 227.203C433.846 227.223 393.102 227.245 349.698 227.271H349.686L350.214 226.743C350.186 272.343 350.16 315.001 350.14 350.979L349.686 350.527C385.3 350.623 414.954 350.703 435.744 350.759C446.13 350.809 454.302 350.851 459.916 350.877C462.69 350.901 464.824 350.917 466.312 350.929C467.016 350.941 467.56 350.949 467.964 350.955C468.338 350.963 468.532 350.971 468.542 350.979C468.55 350.987 468.374 350.997 468.016 351.005C467.622 351.011 467.096 351.019 466.412 351.031C464.946 351.043 462.84 351.061 460.104 351.083C454.514 351.111 446.376 351.151 436.034 351.201C415.174 351.257 385.422 351.337 349.686 351.433L349.234 351.435V350.981C349.212 315.005 349.186 272.345 349.16 226.745V226.217H349.688H349.7C393.102 226.241 433.848 226.265 468.544 226.285H469.004L469.002 226.745C468.904 263.981 468.824 295.081 468.768 316.911C468.716 327.739 468.674 336.267 468.646 342.127C468.622 344.997 468.604 347.207 468.592 348.745C468.582 349.463 468.572 350.017 468.566 350.429C468.558 350.803 468.55 350.989 468.542 350.979Z" fill="#E0E0E0"/>
<path d="M429.16 268.977H389.392V308.745H429.16V268.977Z" fill="#EBEBEB"/>
</g>
<path d="M472.292 774.741C454.144 761.359 431.388 758.361 409.998 752.917C377.98 744.769 347.524 730.461 315.5 722.345C283.476 714.231 248.214 712.863 219.218 729.637C190.222 746.411 170.71 785.511 182.446 818.691C165.812 825.933 153.766 844.117 152.79 863.453L497.492 860.503C507.956 830.225 497.008 792.965 472.292 774.741Z" fill="#F5F5F5"/>
<path d="M340.905 818.859C340.861 818.915 339.785 818.241 337.885 816.977C337.397 816.653 336.869 816.305 336.303 815.929C335.689 815.581 335.033 815.211 334.337 814.817C332.935 814.003 331.341 813.081 329.481 812.241C328.559 811.797 327.599 811.335 326.601 810.853C325.569 810.431 324.497 809.993 323.391 809.541C321.201 808.567 318.733 807.851 316.201 806.937C311.047 805.365 305.295 803.915 299.161 802.853C293.019 801.843 287.113 801.239 281.725 800.929C276.335 800.705 271.471 800.639 267.393 800.853C265.351 800.909 263.509 801.027 261.893 801.173C260.275 801.289 258.879 801.391 257.747 801.541C255.475 801.791 254.211 801.897 254.199 801.825C254.187 801.755 255.431 801.513 257.695 801.139C258.825 800.929 260.217 800.767 261.839 800.595C263.457 800.395 265.305 800.223 267.355 800.119C271.451 799.811 276.345 799.799 281.771 799.973C287.195 800.233 293.147 800.811 299.337 801.829C305.517 802.899 311.313 804.389 316.497 806.025C319.045 806.973 321.521 807.725 323.719 808.743C324.827 809.219 325.899 809.679 326.933 810.123C327.931 810.629 328.891 811.117 329.811 811.583C331.667 812.473 333.251 813.449 334.635 814.317C335.321 814.741 335.967 815.139 336.571 815.511C337.123 815.915 337.637 816.293 338.113 816.641C339.957 818.017 340.949 818.801 340.905 818.859Z" fill="#263238"/>
<path d="M339.844 737.801C314.846 722.047 306.144 689.741 319.838 663.559L321.198 660.957C337.508 633.761 369.716 632.421 396.45 649.477L506.044 713.253L497.494 790.531L447.508 763.987C447.508 763.987 429.21 788.763 402.074 774.993C388.968 768.343 363.094 752.453 339.844 737.801Z" fill="#FFBE9D"/>
<path d="M447.352 764.189C447.352 764.189 457.394 747.513 455.49 723.451C455.49 723.451 470.548 741.909 454.05 767.543L447.352 764.189Z" fill="#EB996E"/>
<path d="M363.178 741.331C365.172 742.467 367.78 741.713 369.004 739.651C370.224 737.591 369.604 735.001 367.608 733.867C365.612 732.731 363.004 733.483 361.782 735.543C360.558 737.605 361.182 740.197 363.178 741.331Z" fill="#263238"/>
<path d="M354.87 738.371C355.622 738.157 354.988 734.111 357.166 729.973C359.282 725.809 363.004 723.883 362.732 723.169C362.622 722.831 361.462 722.843 359.806 723.663C358.164 724.465 356.068 726.199 354.728 728.785C353.392 731.373 353.208 734.041 353.528 735.799C353.838 737.583 354.522 738.489 354.87 738.371Z" fill="#263238"/>
<path d="M384.252 704.729C386.248 705.865 388.854 705.111 390.078 703.047C391.3 700.989 390.678 698.399 388.682 697.263C386.686 696.127 384.078 696.881 382.856 698.939C381.632 701.003 382.256 703.595 384.252 704.729Z" fill="#263238"/>
<path d="M376.308 697.767C377.06 697.551 376.43 693.501 378.606 689.367C380.722 685.203 384.444 683.277 384.172 682.563C384.064 682.225 382.906 682.233 381.246 683.059C379.604 683.859 377.508 685.595 376.168 688.181C374.832 690.769 374.648 693.437 374.966 695.195C375.282 696.975 375.962 697.883 376.308 697.767Z" fill="#263238"/>
<path d="M401.004 729.689C400.778 729.545 398.986 731.889 396.27 735.783C395.608 736.785 394.874 737.675 394.058 737.475C393.164 737.325 392.254 736.285 391.292 735.129C389.252 732.795 387.114 730.351 384.872 727.787C375.674 717.441 367.888 709.365 367.474 709.737C367.06 710.111 374.18 718.799 383.378 729.143C385.66 731.669 387.832 734.079 389.914 736.379C390.908 737.409 391.91 738.811 393.78 739.099C394.72 739.227 395.7 738.751 396.238 738.169C396.8 737.599 397.122 737.009 397.428 736.503C399.85 732.423 401.232 729.827 401.004 729.689Z" fill="#263238"/>
<path d="M376.064 673.313C374.906 672.643 372.168 675.897 368.04 678.701C363.974 681.595 359.93 683.057 360.2 684.343C360.346 684.945 361.66 685.373 363.684 685.217C365.694 685.067 368.376 684.239 370.834 682.533C373.288 680.823 374.968 678.621 375.77 676.813C376.584 674.999 376.6 673.643 376.064 673.313Z" fill="#263238"/>
<path d="M347.326 713.755C346.128 714.503 346.634 718.275 345.982 722.609C345.466 726.961 343.982 730.481 344.942 731.501C345.414 731.957 346.558 731.551 347.81 730.111C349.056 728.695 350.292 726.189 350.694 723.205C351.094 720.221 350.56 717.491 349.732 715.811C348.902 714.109 347.902 713.433 347.326 713.755Z" fill="#263238"/>
<path d="M311.046 735.369C308.822 733.631 307.926 730.161 309.53 727.839C308.398 728.941 307.226 730.071 305.762 730.665C304.298 731.259 302.45 731.195 301.322 730.087C299.554 728.351 300.444 725.435 300.888 722.995C301.466 719.815 301.018 716.455 299.628 713.537C297.624 709.331 293.848 706.239 291.418 702.263C288.272 697.117 287.602 690.529 289.65 684.855C291.698 679.181 296.422 674.541 302.128 672.591C299.89 666.317 300.866 658.987 304.668 653.515C308.47 648.045 315 644.575 321.662 644.487C322.202 635.761 327.788 627.527 335.696 623.799C343.604 620.071 353.51 621.003 360.586 626.141L362.664 648.267C357.27 645.965 350.216 649.783 349.196 655.559C348.16 661.421 352.494 667.623 350.282 673.151C348.56 677.455 343.612 679.407 340.564 682.899C336.864 687.135 336.29 693.243 336.612 698.859C336.932 704.473 337.962 710.167 336.796 715.669C335.43 722.119 331.158 727.611 326.228 731.987C324.118 733.861 321.804 735.609 319.11 736.453C316.42 737.299 313.27 737.107 311.046 735.369Z" fill="#263238"/>
<path d="M353.196 647.289L314.526 724.967C310.482 719.795 308.482 713.303 307.406 706.827C305.084 692.869 306.806 678.117 313.168 665.479C319.532 652.841 348.184 635.365 361.588 630.831C372.314 627.203 378.27 630.393 378.27 630.393C388.832 634.473 397.222 645.993 405.832 653.347C410.272 657.139 424.366 667.361 424.366 667.361L424.364 667.363C422.126 671.587 417.932 671.387 414.088 668.547L398.094 659.129C398.094 659.129 380.304 668.143 365.172 651.489C364.256 649.615 358.644 643.685 353.196 647.289Z" fill="#263238"/>
<path d="M397.582 657.375C385.732 646.641 372.738 635.749 356.95 633.229C357.296 632.443 357.644 631.657 357.99 630.869L359.166 630.251C359.838 625.175 364.058 620.775 369.1 619.889C374.142 619.003 379.608 621.705 381.97 626.247C384.018 621.527 390.052 618.991 394.856 620.829C398.174 622.097 400.564 624.983 402.726 627.801C404.888 630.619 407.1 633.593 410.278 635.179C413.456 636.765 417.918 636.423 419.852 633.443C422.424 636.463 422.406 641.371 419.81 644.371C423.044 644.601 426.338 643.885 429.184 642.333C430.15 649.101 425.55 655.489 420.156 659.689C416.956 662.181 413.106 664.279 409.062 663.953C404.58 663.593 400.914 660.393 397.582 657.375Z" fill="#263238"/>
<path d="M414.278 663.991C414.32 663.427 418.488 642.599 436.614 652.829C454.74 663.059 440.73 679.147 440.194 678.883C439.656 678.621 414.278 663.991 414.278 663.991Z" fill="#FFBE9D"/>
<path d="M435.6 671.091C435.588 670.977 436 670.899 436.546 670.503C437.078 670.117 437.748 669.315 437.926 668.171C438.304 665.859 436.174 662.533 432.956 660.599C431.334 659.623 429.566 659.081 427.936 658.931C426.298 658.735 424.888 659.071 424.172 659.939C423.408 660.773 423.6 661.781 423.986 662.291C424.356 662.821 424.782 662.909 424.76 663.023C424.776 663.099 424.236 663.241 423.57 662.671C423.252 662.393 422.944 661.939 422.836 661.317C422.728 660.683 422.908 659.941 423.36 659.311C424.246 657.969 426.242 657.435 428.032 657.599C429.872 657.689 431.878 658.259 433.702 659.355C437.29 661.533 439.652 665.331 438.93 668.379C438.544 669.841 437.558 670.689 436.822 670.997C436.056 671.305 435.596 671.173 435.6 671.091Z" fill="#EB996E"/>
<path d="M408.312 637.031C408.376 636.995 407.866 636.163 406.312 635.623C404.798 635.097 402.224 635.115 399.738 636.725C397.256 638.307 395.39 641.261 393.48 644.259C391.6 647.229 388.95 650.377 384.978 650.651C381.084 650.967 377.372 649.205 374.47 647.307C371.556 645.325 369.116 643.099 366.87 641.489C362.416 638.079 358.802 637.479 358.804 637.689C358.728 637.927 362.026 638.857 366.17 642.395C368.292 644.089 370.604 646.375 373.634 648.543C376.658 650.599 380.574 652.607 385.132 652.265C387.38 652.083 389.518 651.075 391.076 649.667C392.65 648.263 393.762 646.615 394.738 645.067C396.624 641.947 398.258 639.189 400.396 637.667C402.48 636.149 404.762 635.939 406.152 636.235C407.58 636.527 408.224 637.147 408.312 637.031Z" fill="#455A64"/>
<path d="M402.386 628.535C402.45 628.475 402.056 627.863 400.982 627.131C399.922 626.421 398.1 625.633 395.728 625.705C394.552 625.745 393.254 626.007 391.978 626.615C390.678 627.193 389.518 628.279 388.55 629.375C387.556 630.463 386.58 631.623 385.358 632.203C384.144 632.785 382.698 632.605 381.25 631.931C379.802 631.287 378.412 630.337 376.898 629.637C375.406 628.931 373.896 628.407 372.43 628.037C369.48 627.311 366.756 627.171 364.45 627.441C362.092 627.681 360.328 629.045 359.798 630.283C359.202 631.525 359.506 632.315 359.58 632.281C359.72 632.287 359.674 631.555 360.34 630.603C360.978 629.633 362.444 628.677 364.57 628.581C366.684 628.473 369.314 628.721 372.048 629.481C373.418 629.867 374.824 630.389 376.212 631.069C377.596 631.723 378.946 632.671 380.598 633.413C382.184 634.183 384.328 634.513 386.042 633.639C387.72 632.789 388.718 631.443 389.67 630.369C391.422 628.059 393.684 627.047 395.806 626.851C400.11 626.511 402.262 628.821 402.386 628.535Z" fill="#455A64"/>
<path d="M299.636 713.561C299.604 713.691 301.344 712.651 301.392 709.643C301.448 708.185 300.902 706.453 300.12 704.649C299.32 702.837 298.504 700.827 298.404 698.431C298.122 693.771 300.478 687.611 306.24 684.821C309.046 683.335 312.384 682.439 315.656 680.715C317.274 679.845 318.894 678.705 320.106 677.105C321.322 675.507 321.994 673.511 322.208 671.547C322.652 667.591 321.892 663.927 322.264 660.507C322.564 657.067 323.548 653.811 324.984 650.975C327.822 645.227 332.43 641.315 336.778 639.231C341.148 637.087 345.154 636.545 347.868 636.397C350.604 636.299 352.128 636.525 352.148 636.385C352.156 636.329 351.786 636.227 351.064 636.083C350.342 635.945 349.262 635.817 347.862 635.767C345.082 635.723 340.914 636.097 336.29 638.197C331.694 640.229 326.724 644.271 323.658 650.299C322.102 653.275 321.026 656.709 320.686 660.365C320.288 664.053 321.026 667.777 320.604 671.351C320.404 673.135 319.834 674.789 318.82 676.137C317.806 677.485 316.404 678.501 314.906 679.317C311.882 680.947 308.52 681.889 305.548 683.499C302.512 685.037 300.148 687.599 298.852 690.327C297.524 693.065 297.07 695.941 297.27 698.503C297.45 701.089 298.442 703.285 299.302 705.015C300.154 706.775 300.728 708.317 300.77 709.653C300.918 712.393 299.492 713.499 299.636 713.561Z" fill="#455A64"/>
<path d="M419.296 720.349C419.854 720.493 419.47 723.863 418.438 727.877C417.406 731.893 416.12 735.031 415.562 734.887C415.004 734.743 415.388 731.373 416.42 727.357C417.452 723.345 418.738 720.207 419.296 720.349Z" fill="#263238"/>
<path d="M377.918 735.001C378.044 734.983 378.29 735.653 378.28 736.795C378.276 737.929 377.926 739.519 377.028 741.025C376.124 742.529 374.886 743.589 373.888 744.127C372.888 744.675 372.18 744.773 372.136 744.655C372.004 744.379 374.518 743.265 376.134 740.491C377.816 737.757 377.612 735.013 377.918 735.001Z" fill="#EB996E"/>
<path d="M378.96 739.431C379.232 739.461 379.04 741.457 377.51 743.275C375.994 745.107 374.064 745.651 373.986 745.387C373.86 745.111 375.382 744.227 376.71 742.607C378.068 741.011 378.666 739.355 378.96 739.431Z" fill="#EB996E"/>
<path d="M400.51 694.803C400.63 694.761 401.056 695.533 401.252 696.925C401.454 698.301 401.336 700.327 400.414 702.303C399.49 704.279 398.012 705.669 396.828 706.399C395.634 707.143 394.77 707.311 394.724 707.191C394.552 706.935 397.782 705.501 399.47 701.863C401.174 698.233 400.204 694.835 400.51 694.803Z" fill="#EB996E"/>
<path d="M401.858 693.637C402.106 693.521 403.05 695.339 402.944 697.793C402.856 700.247 401.772 701.985 401.534 701.851C401.258 701.729 401.832 699.971 401.904 697.753C402.006 695.535 401.574 693.737 401.858 693.637Z" fill="#EB996E"/>
<path d="M493.108 705.723L506.044 701.295C506.044 701.295 541.998 639.853 550.796 634.133C559.594 628.415 566.698 630.073 566.698 630.073C566.698 630.073 699.112 698.699 697.352 700.899C695.592 703.099 674.916 854.869 674.916 854.869L487.818 852.819L435.58 803.161C435.58 803.161 469.62 779.691 476.658 777.933C483.696 776.173 488.09 769.443 489.488 765.619C495.534 749.065 502.58 720.111 493.108 705.723Z" fill="#CCE4B4"/>
<path d="M500.118 774.463C500.052 774.435 500.376 773.455 501.018 771.711C501.678 769.975 502.548 767.429 503.524 764.261C504.516 761.095 505.506 757.271 506.414 752.985C507.272 748.689 508.018 743.927 508.466 738.891C508.878 733.851 508.952 729.029 508.836 724.649C508.67 720.271 508.342 716.333 507.902 713.045C507.478 709.757 507.052 707.101 506.696 705.277C506.36 703.449 506.206 702.429 506.276 702.411C506.346 702.395 506.632 703.383 507.092 705.191C507.572 706.995 508.11 709.643 508.632 712.939C509.17 716.235 509.576 720.197 509.796 724.609C509.966 729.023 509.922 733.891 509.506 738.977C509.054 744.059 508.272 748.861 507.354 753.181C506.388 757.491 505.316 761.327 504.228 764.485C503.156 767.645 502.174 770.165 501.396 771.861C500.634 773.565 500.184 774.491 500.118 774.463Z" fill="#263238"/>
<path d="M496.276 777.783C496.228 778.057 490.55 777.177 483.54 777.873C480.046 778.193 476.916 778.769 474.71 779.391C472.496 779.991 471.196 780.589 471.118 780.445C471.054 780.341 472.266 779.489 474.486 778.689C476.694 777.867 479.884 777.161 483.446 776.835C490.602 776.125 496.366 777.497 496.276 777.783Z" fill="#263238"/>
<path d="M550.72 634.735C550.93 634.819 549.264 637.615 548.522 642.641C547.726 647.625 548.288 654.813 551.208 661.987C554.142 669.167 558.294 674.947 561.268 679.083C562.676 681.003 563.87 682.635 564.85 683.971C565.69 685.133 566.13 685.795 566.072 685.839C566.016 685.883 565.47 685.307 564.532 684.221C563.594 683.137 562.266 681.543 560.68 679.525C557.548 675.489 553.244 669.713 550.242 662.375C547.248 655.029 546.786 647.605 547.794 642.521C548.272 639.971 548.98 637.979 549.606 636.677C550.224 635.371 550.67 634.707 550.72 634.735Z" fill="#263238"/>
<path d="M500.2 842.691C499.936 842.681 501.038 837.937 499.92 830.385C499.372 826.629 498.168 822.221 495.984 817.705C493.82 813.191 490.594 808.613 486.318 804.729C482.006 800.889 477.018 798.311 472.238 796.843C467.448 795.355 462.904 794.857 459.108 794.863C451.476 794.873 446.902 796.461 446.858 796.209C446.848 796.175 447.126 796.069 447.666 795.899C448.21 795.745 449 795.459 450.054 795.241C452.144 794.731 455.24 794.219 459.102 794.125C462.958 794.025 467.6 794.453 472.518 795.925C477.426 797.377 482.574 799.999 487.014 803.955C491.406 807.943 494.686 812.657 496.85 817.291C499.036 821.931 500.186 826.449 500.65 830.283C501.122 834.119 501.032 837.263 500.78 839.401C500.7 840.475 500.498 841.293 500.412 841.851C500.308 842.409 500.236 842.697 500.2 842.691Z" fill="#263238"/>
<path d="M616.318 815.063C616.34 815.091 616.116 815.291 615.67 815.647C615.214 815.989 614.572 816.545 613.66 817.133C611.86 818.345 609.108 819.903 605.5 821.355C601.896 822.813 597.436 824.137 592.37 825.015C587.316 826.109 581.538 825.721 575.688 825.209C563.888 824.035 553.486 821.117 546.256 818.349C542.636 816.961 539.782 815.651 537.868 814.637C536.896 814.159 536.182 813.709 535.688 813.427C535.198 813.135 534.95 812.967 534.966 812.935C535.006 812.861 536.082 813.385 538.044 814.273C540.004 815.169 542.884 816.367 546.51 817.657C553.754 820.229 564.098 823.009 575.792 824.171C581.654 824.675 587.208 825.093 592.212 824.067C597.222 823.251 601.644 822.017 605.234 820.665C608.828 819.319 611.596 817.881 613.444 816.785C615.276 815.667 616.266 814.991 616.318 815.063Z" fill="#263238"/>
<g opacity="0.3">
<path d="M635.875 723.481C619.471 724.533 602.749 717.177 592.439 704.375L635.875 723.481Z" fill="black"/>
</g>
<g opacity="0.3">
<path d="M500.454 773.217C500.454 773.217 513.546 762.723 514.962 744.495C515.92 732.157 512.792 715.655 507.972 707.191C507.972 707.191 513.35 744.457 500.454 773.217Z" fill="black"/>
</g>
<path d="M621.5 859.981L605.974 820.507C600.312 792.695 605.81 762.773 620.988 738.789C626.352 730.315 632.924 722.439 636.364 713.019C644.466 690.829 633.932 663.783 646.278 643.643C653.864 631.267 668.282 624.929 682.248 620.965C682.248 620.965 708.732 616.331 721.352 638.565L723.756 651.185L762.216 671.617C762.216 671.617 779.042 646.979 795.868 647.579C812.694 648.179 817.502 655.391 817.502 655.391C817.502 655.391 848.75 631.955 885.408 639.767C922.066 647.579 990.572 701.063 990.572 701.063C990.572 701.063 1048.58 711.177 1112.12 722.305C1309.87 756.939 1382.68 859.979 1382.68 859.979" fill="#455A64"/>
<g opacity="0.3">
<path d="M633.084 850.497C645.872 850.991 657.974 845.245 669.474 839.635C695.014 827.175 720.678 814.641 743.914 798.281C753.164 791.767 762.15 784.503 768.404 775.075C774.656 765.647 777.898 753.699 774.818 742.813C773.736 738.985 771.69 735.151 768.164 733.307C763.128 730.673 756.968 732.899 751.986 735.635C740.898 741.723 731.324 750.181 721.868 758.585C699.03 778.881 676.282 799.277 653.624 819.775C644.47 828.057 634.872 837.109 632.03 849.121" fill="black"/>
</g>
<path d="M876.912 854.869C876.9 854.883 876.74 854.757 876.438 854.503C876.098 854.205 875.664 853.827 875.12 853.353C873.914 852.285 872.232 850.793 870.09 848.895C865.698 845.053 859.312 839.523 851.014 833.205C842.714 826.913 832.47 819.819 820.546 812.961C808.506 806.385 793.686 801.975 777.854 801.057C769.94 800.539 762.168 801.049 754.794 802.223C747.424 803.423 740.538 805.733 734.284 808.557C721.742 814.245 711.772 821.855 703.858 828.585C695.952 835.377 689.986 841.369 685.824 845.455C683.788 847.467 682.188 849.049 681.042 850.181C680.524 850.681 680.108 851.081 679.782 851.395C679.494 851.665 679.34 851.797 679.328 851.783C679.316 851.771 679.444 851.613 679.706 851.321C680.012 850.989 680.404 850.565 680.892 850.035C682.004 848.871 683.558 847.241 685.536 845.171C689.612 840.993 695.504 834.917 703.378 828.029C711.26 821.205 721.244 813.479 733.888 807.685C740.192 804.809 747.16 802.449 754.626 801.217C762.074 800.015 769.926 799.493 777.916 800.017C793.902 800.943 808.862 805.425 821.008 812.121C832.988 819.075 843.186 826.233 851.462 832.623C859.722 839.031 866.046 844.657 870.36 848.595C872.508 850.575 874.162 852.127 875.262 853.201C875.776 853.707 876.188 854.111 876.51 854.427C876.788 854.707 876.924 854.857 876.912 854.869Z" fill="#263238"/>
<path d="M786.936 800.641C786.9 800.649 786.756 800.127 786.51 799.123C786.254 798.021 785.914 796.555 785.486 794.717C785.272 793.747 785.038 792.681 784.782 791.523C784.586 790.337 784.374 789.057 784.146 787.687C783.68 784.935 783.148 781.799 782.828 778.297C782.638 776.547 782.438 774.717 782.23 772.813C782.116 770.895 781.998 768.903 781.878 766.843C781.542 762.719 781.638 758.299 781.574 753.651C781.802 744.363 782.45 734.133 784.29 723.549C786.178 712.977 788.844 703.065 792.11 694.343C792.928 692.165 793.896 690.107 794.746 688.073C795.182 687.061 795.612 686.063 796.034 685.081C796.48 684.111 797.012 683.197 797.484 682.277C798.452 680.449 799.388 678.683 800.288 676.983C801.224 675.307 802.308 673.805 803.244 672.315C804.22 670.851 805.08 669.409 806.024 668.135C807.014 666.901 807.95 665.735 808.828 664.641C809.7 663.557 810.516 662.547 811.272 661.609C812.068 660.719 812.882 659.979 813.568 659.277C814.916 657.957 815.992 656.903 816.802 656.109C817.548 655.395 817.952 655.033 817.976 655.059C818 655.085 817.644 655.499 816.948 656.261C816.176 657.085 815.15 658.181 813.866 659.553C813.204 660.273 812.418 661.029 811.648 661.933C810.918 662.881 810.13 663.907 809.286 665.003C808.434 666.105 807.526 667.279 806.566 668.521C805.65 669.799 804.818 671.247 803.868 672.713C802.96 674.205 801.902 675.705 800.992 677.381C800.116 679.077 799.204 680.841 798.262 682.665C797.802 683.583 797.284 684.493 796.848 685.461C796.436 686.441 796.018 687.435 795.592 688.443C794.764 690.469 793.816 692.517 793.016 694.683C789.822 703.363 787.202 713.217 785.324 723.727C783.494 734.251 782.822 744.423 782.54 753.667C782.578 758.293 782.45 762.695 782.748 766.803C782.848 768.857 782.946 770.843 783.04 772.753C783.224 774.653 783.4 776.477 783.57 778.223C783.84 781.717 784.32 784.847 784.73 787.599C784.926 788.971 785.11 790.251 785.28 791.439C785.502 792.601 785.708 793.669 785.894 794.641C786.24 796.491 786.516 797.969 786.724 799.079C786.894 800.093 786.972 800.633 786.936 800.641Z" fill="#263238"/>
<path d="M783.616 724.837C783.544 724.829 783.58 723.811 783.704 721.977C783.83 720.143 784.042 717.491 784.34 714.217C784.934 707.669 785.864 698.631 787.184 688.681C788.52 678.731 790.048 669.759 791.502 663.335C792.206 660.119 792.892 657.541 793.412 655.775C793.946 654.011 794.274 653.049 794.344 653.069C794.414 653.089 794.218 654.089 793.806 655.877C793.408 657.669 792.834 660.261 792.226 663.485C790.962 669.923 789.554 678.885 788.22 688.819C786.902 698.751 785.858 707.767 785.076 714.293C784.688 717.403 784.364 719.997 784.11 722.017C783.86 723.841 783.688 724.845 783.616 724.837Z" fill="#263238"/>
<path d="M936.148 709.003C936.14 709.039 935.57 708.963 934.492 708.791C933.41 708.645 931.838 708.287 929.78 708.045C925.686 707.431 919.708 706.833 912.312 706.841C904.92 706.835 896.102 707.619 886.568 709.771C877.04 711.909 866.838 715.545 856.92 720.897C847.044 726.337 838.458 732.943 831.5 739.795C824.524 746.643 819.088 753.633 815.09 759.849C811.078 766.061 808.342 771.411 806.64 775.183C805.728 777.045 805.178 778.559 804.716 779.547C804.278 780.547 804.03 781.067 803.998 781.055C803.964 781.043 804.146 780.497 804.522 779.471C804.922 778.455 805.414 776.911 806.272 775.019C807.866 771.183 810.514 765.755 814.472 759.451C818.416 753.145 823.832 746.055 830.828 739.111C837.806 732.165 846.452 725.473 856.424 719.981C866.438 714.577 876.744 710.935 886.362 708.833C895.986 706.713 904.878 706.001 912.316 706.103C919.758 706.191 925.756 706.905 929.844 707.643C931.9 707.947 933.464 708.371 934.534 708.585C935.6 708.825 936.156 708.969 936.148 709.003Z" fill="#263238"/>
<path d="M758.81 700.793C758.68 700.807 758.364 699.161 758.194 696.463C758.022 693.767 758.052 690.013 758.578 685.915C759.112 681.815 760.036 678.177 760.888 675.613C761.74 673.047 762.464 671.535 762.586 671.581C762.896 671.685 760.628 677.957 759.61 686.047C758.538 694.127 759.136 700.769 758.81 700.793Z" fill="#263238"/>
<path d="M1253.74 819.901C1253.73 819.915 1253.53 819.765 1253.16 819.461C1252.75 819.119 1252.21 818.667 1251.53 818.095C1250.06 816.837 1247.98 815.049 1245.32 812.767C1243.97 811.601 1242.48 810.311 1240.85 808.901C1239.18 807.535 1237.27 806.163 1235.27 804.625C1231.22 801.621 1226.8 797.945 1221.41 794.577C1218.76 792.821 1215.99 790.983 1213.11 789.069C1210.21 787.173 1207.01 785.495 1203.81 783.595C1200.54 781.787 1197.31 779.663 1193.69 777.999C1190.13 776.231 1186.47 774.411 1182.72 772.545C1167.46 765.575 1150.16 759.059 1131.41 754.185C1112.6 749.519 1094.28 746.985 1077.54 745.831C1073.35 745.679 1069.27 745.529 1065.29 745.385C1063.31 745.289 1061.35 745.235 1059.42 745.331C1057.5 745.381 1055.6 745.429 1053.73 745.477C1050.01 745.617 1046.4 745.565 1042.95 745.849C1039.5 746.155 1036.19 746.449 1033.02 746.729C1026.68 747.117 1021.04 748.237 1016.05 748.943C1013.56 749.341 1011.23 749.635 1009.1 750.039C1007 750.501 1005.07 750.923 1003.33 751.305C999.905 752.041 997.223 752.617 995.333 753.023C994.457 753.199 993.767 753.339 993.245 753.445C992.773 753.535 992.529 753.571 992.525 753.555C992.521 753.537 992.755 753.467 993.219 753.343C993.735 753.213 994.417 753.039 995.283 752.821C997.163 752.369 999.835 751.729 1003.25 750.911C1004.98 750.503 1006.91 750.049 1009.01 749.555C1011.13 749.121 1013.46 748.799 1015.95 748.371C1020.94 747.609 1026.59 746.437 1032.95 745.999C1036.12 745.697 1039.44 745.379 1042.89 745.049C1046.35 744.743 1049.97 744.775 1053.71 744.617C1055.58 744.561 1057.49 744.503 1059.42 744.443C1061.35 744.339 1063.31 744.385 1065.31 744.473C1069.29 744.605 1073.4 744.739 1077.6 744.877C1094.39 745.981 1112.79 748.497 1131.67 753.179C1150.48 758.071 1167.84 764.639 1183.13 771.681C1186.89 773.567 1190.56 775.405 1194.12 777.191C1197.74 778.875 1200.98 781.021 1204.24 782.851C1207.45 784.773 1210.65 786.475 1213.54 788.393C1216.42 790.333 1219.18 792.195 1221.83 793.973C1227.2 797.389 1231.61 801.117 1235.63 804.169C1237.62 805.733 1239.51 807.129 1241.17 808.521C1242.78 809.959 1244.26 811.275 1245.59 812.463C1248.2 814.811 1250.24 816.649 1251.67 817.943C1252.33 818.549 1252.85 819.025 1253.24 819.387C1253.58 819.713 1253.76 819.887 1253.74 819.901Z" fill="#263238"/>
<g opacity="0.3">
<path d="M899.982 844.589C899.074 838.305 894.814 832.999 890.016 828.841C878.54 818.895 863.642 813.917 848.934 810.129C828.762 804.935 808.13 801.531 787.358 799.973L788.464 801.899C798.374 803.731 807.724 805.807 815.97 810.073C824.218 814.337 830.832 817.643 838.044 823.491C850.13 833.291 862.218 843.093 874.304 852.893C879.202 856.865 885.116 861.087 891.24 859.589C897.408 858.079 900.892 850.873 899.982 844.589Z" fill="black"/>
</g>
<g opacity="0.3">
<path d="M1053.15 725.221C1039.88 725.861 1026.72 729.451 1013.49 728.259C987.592 725.927 964.922 705.641 938.978 707.341L930.332 707.907C946 711.771 962.638 719.865 972.614 729.583C982.59 739.301 993.128 747.179 1006.72 750.241C1006.72 750.241 1020.31 748.167 1029.73 746.575C1060.12 741.443 1091.34 744.809 1123.14 751.679C1105.45 731.695 1079.8 723.935 1053.15 725.221Z" fill="black"/>
</g>
<path d="M712.378 676.859C712.308 676.691 714.114 676.357 715.8 674.219C717.502 672.147 718.912 668.559 720.274 664.605C722.974 656.641 723.39 649.753 723.712 649.787C723.84 649.793 723.916 651.523 723.614 654.297C723.328 657.069 722.622 660.887 721.262 664.935C719.878 668.941 718.344 672.573 716.356 674.703C714.368 676.887 712.334 676.977 712.378 676.859Z" fill="#263238"/>
<path d="M660.862 735.127L686.478 744.495C686.478 744.495 678.086 761.277 668.602 772.223C659.116 783.167 612.156 818.191 612.156 818.191L635.404 849.931L667.508 833.879C713.476 810.531 761.634 768.939 766.012 764.927C770.39 760.913 774.768 754.347 773.308 735.011C771.848 715.675 748.5 700.717 728.434 687.947C708.368 675.179 689.038 668.693 689.038 668.693C689.038 668.693 676.154 676.027 667.912 697.061C659.03 719.723 660.862 735.127 660.862 735.127Z" fill="#FFBE9D"/>
<path d="M612.972 817.579C612.972 817.579 600.76 824.023 591.212 825.069C581.664 826.113 562.416 822.383 558.836 821.937C555.256 821.489 550.928 818.655 546.304 821.341C541.678 824.027 514.078 832.233 512.734 833.277C511.392 834.321 489.31 851.181 487.818 852.821C486.326 854.463 486.922 856.401 486.922 856.401L486.804 857.297C485.492 859.833 487.002 860.637 487.002 860.637L569.726 859.983C569.726 859.983 617.768 861.325 621.498 859.983C625.228 858.641 635.4 849.933 635.4 849.933L612.972 817.579Z" fill="#FFBE9D"/>
<path d="M512.734 833.273C512.77 833.321 512.05 833.959 510.69 835.093C509.2 836.309 507.23 837.917 504.814 839.889C502.248 841.943 499.218 844.369 495.818 847.089C494.092 848.459 492.272 849.905 490.372 851.413C489.896 851.791 489.414 852.171 488.926 852.557L488.192 853.137C487.986 853.319 487.838 853.497 487.71 853.741C487.204 854.691 487.162 856.027 487.3 857.219L486.502 856.893C489.816 854.391 493.482 851.831 497.388 849.377C509.022 842.019 520.582 837.169 529.116 834.349C533.382 832.909 536.914 832.017 539.352 831.405C540.484 831.163 541.418 830.963 542.184 830.799C542.834 830.673 543.178 830.623 543.186 830.657C543.194 830.693 542.866 830.811 542.232 831.003C541.482 831.217 540.564 831.479 539.454 831.795C537.056 832.527 533.568 833.523 529.354 835.043C520.924 838.027 509.494 842.947 497.942 850.257C494.062 852.695 490.414 855.225 487.106 857.693L486.39 858.227L486.306 857.367C486.17 855.975 486.172 854.589 486.854 853.269C487.02 852.949 487.284 852.637 487.552 852.409L488.292 851.833C488.784 851.451 489.27 851.073 489.75 850.699C491.672 849.209 493.512 847.783 495.258 846.431C498.716 843.773 501.8 841.403 504.41 839.395C506.904 837.517 508.938 835.983 510.476 834.825C511.906 833.775 512.698 833.227 512.734 833.273Z" fill="#EB996E"/>
<path d="M544.032 840.963C544.078 841.117 541.698 841.921 537.928 843.395C534.154 844.861 529.016 847.069 523.492 849.831C517.97 852.601 513.102 855.365 509.606 857.415C506.108 859.463 503.958 860.763 503.874 860.635C503.8 860.523 505.808 859.005 509.22 856.787C512.63 854.569 517.468 851.687 523.026 848.899C528.586 846.119 533.814 844.001 537.674 842.703C539.602 842.049 541.182 841.573 542.288 841.299C543.392 841.017 544.01 840.895 544.032 840.963Z" fill="#EB996E"/>
<path d="M560.836 848.305C560.874 848.443 559.112 849.051 556.216 849.809C553.328 850.587 549.306 851.509 545.084 853.117C540.904 854.779 537.178 856.659 534.5 857.927C531.828 859.247 530.188 860.111 530.11 859.979C530.04 859.863 531.548 858.775 534.154 857.277C536.792 855.819 540.408 853.857 544.714 852.143C549.032 850.499 553.126 849.685 556.05 849.091C558.984 848.519 560.796 848.167 560.836 848.305Z" fill="#EB996E"/>
<path d="M715.424 723.183C715.454 723.369 713.21 723.705 709.788 724.873C706.368 726.027 701.814 728.199 697.512 731.643C693.224 735.107 690.124 739.089 688.262 742.181C686.388 745.273 685.578 747.391 685.402 747.323C685.334 747.297 685.488 746.753 685.826 745.781C686.144 744.803 686.752 743.437 687.626 741.813C689.356 738.565 692.454 734.389 696.86 730.831C701.278 727.293 706.022 725.163 709.566 724.171C711.338 723.667 712.802 723.365 713.826 723.265C714.848 723.143 715.414 723.111 715.424 723.183Z" fill="#EB996E"/>
<path d="M1386.17 1000.24H150.82C144.844 1000.24 140 995.391 140 989.415V871.261C140 865.285 144.844 860.441 150.82 860.441H1386.17C1392.15 860.441 1396.99 865.285 1396.99 871.261V989.415C1396.99 995.391 1392.15 1000.24 1386.17 1000.24Z" fill="#7F999B"/>
<path d="M153.664 860.441C153.664 860.153 428.952 859.959 768.46 860.007C1108.09 860.055 1383.32 860.327 1383.32 860.613C1383.32 860.899 1108.09 861.095 768.46 861.047C428.954 860.999 153.664 860.729 153.664 860.441Z" fill="#263238"/>
<path d="M486.734 860.635C486.502 860.753 485.836 860.125 485.672 858.955C485.6 858.375 485.774 857.755 486.108 857.449C486.432 857.137 486.76 857.159 486.804 857.293C486.864 857.569 486.574 857.993 486.706 858.841C486.814 859.687 487.01 860.507 486.734 860.635Z" fill="#EB996E"/>
<path d="M314.242 678.131L306.466 669.421H289.98C289.98 669.421 287.18 669.733 285.626 673.777C285.626 673.777 281.894 671.599 279.716 678.131C277.538 684.663 275.672 696.795 275.672 696.795C275.672 696.795 272.562 700.217 274.428 704.571C274.428 704.571 269.14 709.859 272.25 713.591C275.36 717.323 295.268 728.523 300.868 734.743C306.468 740.965 310.512 747.807 310.512 747.807L341.308 726.565C341.308 726.565 322.956 702.703 315.8 696.169C308.646 689.637 300.246 687.771 300.246 687.771C300.246 687.771 301.18 683.105 295.892 681.549C295.892 681.549 298.38 680.305 298.692 677.817C298.692 677.817 299.936 681.549 302.114 680.927C302.11 680.931 308.02 688.707 314.242 678.131Z" fill="#FFBE9D"/>
<path d="M360.156 850.699L309.822 746.375L340.618 725.133C340.618 725.133 363.726 749.903 378.238 760.257C392.832 770.669 411.004 793.819 419.086 807.221C419.086 807.221 454.158 795.213 464.734 800.813C465.112 801.013 465.492 801.219 465.874 801.433C484.362 811.767 493.69 833.189 489.258 853.901L487.816 860.635H375.284C368.754 860.745 362.996 856.583 360.156 850.699Z" fill="#FFBE9D"/>
<path d="M419.086 807.219C418.976 807.271 418.232 805.601 416.5 802.821C414.794 800.019 411.95 796.203 408.246 791.649C400.746 782.605 389.502 770.851 376.454 758.537C373.182 755.469 369.968 752.489 366.798 749.699C363.602 746.949 360.494 744.241 357.686 741.547C352.012 736.199 347.136 731.153 343.076 726.889C339.024 722.615 335.818 719.089 333.632 716.627C332.61 715.449 331.784 714.501 331.144 713.765C330.588 713.101 330.308 712.739 330.336 712.715C330.362 712.691 330.692 713.005 331.3 713.625C331.976 714.327 332.848 715.231 333.93 716.355C336.304 718.813 339.586 722.217 343.606 726.381C347.728 730.575 352.654 735.559 358.342 740.849C361.17 743.525 364.236 746.169 367.47 748.933C370.666 751.727 373.89 754.707 377.17 757.781C390.242 770.119 401.432 781.985 408.818 791.187C412.466 795.821 415.236 799.727 416.848 802.615C417.746 804.001 418.186 805.229 418.582 805.999C418.944 806.785 419.118 807.205 419.086 807.219Z" fill="#EB996E"/>
<path d="M286.414 695.491C286.386 695.567 284.91 695.333 282.974 693.839C282.026 693.099 281.13 691.653 281.118 689.995C281.05 688.397 281.274 686.703 281.566 684.949C281.886 683.179 282.192 681.583 282.586 680.029C283.054 678.501 283.716 677.273 284.236 676.241C285.332 674.205 285.86 672.907 285.992 672.939C286.142 672.973 285.836 674.425 284.904 676.553C284.468 677.621 283.89 678.873 283.51 680.287C283.202 681.707 282.898 683.421 282.594 685.125C282.304 686.847 282.064 688.501 282.078 689.963C282.054 691.405 282.682 692.535 283.472 693.297C285.096 694.787 286.514 695.321 286.414 695.491Z" fill="#EB996E"/>
<path d="M296.632 681.599C296.566 681.889 295.366 681.833 294.028 682.269C292.678 682.673 291.724 683.399 291.504 683.199C291.276 683.037 292.066 681.785 293.718 681.275C295.366 680.755 296.728 681.337 296.632 681.599Z" fill="#EB996E"/>
<path d="M297.65 674.485C297.866 674.305 298.668 674.979 298.958 676.175C299.252 677.369 298.85 678.337 298.576 678.277C298.286 678.229 298.19 677.383 297.948 676.421C297.72 675.455 297.416 674.661 297.65 674.485Z" fill="#EB996E"/>
<path d="M279.082 708.553C279.05 708.829 277.226 708.627 275.714 707.095C274.19 705.575 274.002 703.747 274.278 703.717C274.568 703.639 275.148 705.075 276.452 706.361C277.73 707.673 279.162 708.263 279.082 708.553Z" fill="#EB996E"/>
<path d="M399.406 858.717C399.31 858.565 400.286 857.921 401.478 856.541C402.676 855.177 403.976 852.965 404.566 850.255C405.138 847.539 404.856 844.991 404.32 843.255C403.796 841.509 403.168 840.521 403.318 840.423C403.398 840.355 404.268 841.215 405.014 843.013C405.768 844.791 406.202 847.553 405.582 850.475C404.952 853.393 403.426 855.735 402.01 857.049C400.598 858.383 399.452 858.811 399.406 858.717Z" fill="#EB996E"/>
<path d="M707.652 663.927C707.652 663.927 712.714 664.327 712.796 671.839C712.882 679.589 710.812 684.291 710.812 684.291L678.7 678.483C678.7 678.483 686.046 659.497 707.652 663.927Z" fill="#CCE4B4"/>
<g opacity="0.3">
<path d="M707.652 663.927C707.652 663.927 712.714 664.327 712.796 671.839C712.882 679.589 710.812 684.291 710.812 684.291L678.7 678.483C678.7 678.483 686.046 659.497 707.652 663.927Z" fill="black"/>
</g>
<path d="M548.91 635.765C548.91 635.765 561.154 625.001 573.53 621.249C585.908 617.499 609.928 620.873 619.672 624.249C629.416 627.625 711.208 665.061 710.06 664.759C678.2 656.379 658.468 711.415 660.858 735.125L597.006 706.139L548.91 635.765Z" fill="#CCE4B4"/>
<path d="M686.478 744.495C686.468 744.529 686.104 744.443 685.424 744.247C684.634 744.005 683.654 743.705 682.46 743.339C679.904 742.495 676.232 741.195 671.742 739.469C662.754 736.031 650.51 730.863 637.092 724.929C623.678 718.973 611.622 713.393 602.93 709.281C598.698 707.249 595.226 705.581 592.666 704.351C591.552 703.791 590.638 703.331 589.9 702.959C589.272 702.631 588.95 702.443 588.966 702.409C588.982 702.377 589.334 702.501 589.99 702.769C590.75 703.093 591.69 703.493 592.838 703.983C595.432 705.137 598.952 706.703 603.24 708.611C612.136 712.599 624.192 718.003 637.516 723.975C650.926 729.905 663.112 735.175 672.014 738.781C676.464 740.591 680.088 741.995 682.596 742.953C683.762 743.393 684.72 743.753 685.492 744.045C686.148 744.307 686.49 744.461 686.478 744.495Z" fill="#263238"/>
<path d="M442.72 892.081H109.242V996.929H442.72V892.081Z" fill="#778084"/>
<path d="M463.148 856.495H83.5938V892.293H463.148V856.495Z" fill="#778084"/>
<path d="M463.146 892.081C463.146 892.369 378.336 892.601 273.742 892.601C169.112 892.601 84.3198 892.367 84.3198 892.081C84.3198 891.795 169.112 891.561 273.742 891.561C378.336 891.561 463.146 891.793 463.146 892.081Z" fill="#242F3B"/>
<path d="M345.582 996.929C345.294 996.929 345.062 973.449 345.062 944.493C345.062 915.527 345.296 892.053 345.582 892.053C345.868 892.053 346.102 915.527 346.102 944.493C346.102 973.449 345.87 996.929 345.582 996.929Z" fill="#242F3B"/>
<path d="M355.354 903.437C355.344 903.427 355.464 903.417 355.712 903.407C356.012 903.399 356.378 903.389 356.828 903.377C357.894 903.361 359.356 903.341 361.216 903.315C365.154 903.283 370.766 903.237 377.794 903.177C392.124 903.119 412.204 903.037 435.54 902.941L436.036 902.939V903.437C436.044 914.453 436.052 926.443 436.062 938.895C435.024 939.947 435.762 939.187 435.524 939.421H435.502H435.456H435.364H435.182H434.816H434.086H432.63H429.732C427.806 939.421 425.892 939.419 423.992 939.419C420.192 939.417 416.446 939.413 412.764 939.411C405.4 939.401 398.292 939.391 391.508 939.383C377.96 939.343 365.718 939.307 355.356 939.277L354.978 939.275L354.98 938.901C355.064 927.953 355.134 919.069 355.182 912.839C355.222 909.851 355.254 907.503 355.276 905.825C355.292 905.081 355.306 904.487 355.316 904.025C355.328 903.623 355.342 903.425 355.354 903.437C355.366 903.449 355.38 903.675 355.394 904.101C355.404 904.581 355.418 905.197 355.434 905.969C355.456 907.665 355.488 910.041 355.528 913.065C355.576 919.239 355.644 928.047 355.73 938.899L355.356 938.525C365.718 938.495 377.96 938.459 391.508 938.419C398.292 938.409 405.402 938.401 412.764 938.389C416.446 938.387 420.192 938.385 423.992 938.381C425.892 938.381 427.806 938.379 429.732 938.379H432.63H434.086H434.816H435.182H435.364H435.456H435.502H435.524C435.296 938.609 436.064 937.865 435.02 938.895C435.03 926.445 435.038 914.453 435.046 903.437L435.542 903.933C412.342 903.837 392.376 903.755 378.13 903.697C371.054 903.639 365.402 903.593 361.438 903.561C359.534 903.535 358.04 903.513 356.948 903.499C356.474 903.487 356.09 903.477 355.774 903.469C355.506 903.457 355.364 903.447 355.354 903.437Z" fill="#242F3B"/>
<path d="M355.354 946.231C355.344 946.221 355.464 946.211 355.712 946.201C356.012 946.193 356.378 946.183 356.828 946.171C357.894 946.155 359.356 946.135 361.216 946.109C365.154 946.077 370.766 946.031 377.794 945.973C392.124 945.915 412.204 945.833 435.54 945.737L436.036 945.735V946.233C436.044 957.249 436.052 969.239 436.062 981.691C435.024 982.743 435.762 981.983 435.524 982.217H435.502H435.456H435.364H435.182H434.816H434.086H432.63H429.732C427.806 982.217 425.892 982.215 423.992 982.215C420.192 982.213 416.446 982.209 412.764 982.207C405.4 982.197 398.292 982.187 391.508 982.179C377.96 982.139 365.718 982.103 355.356 982.073L354.978 982.071L354.98 981.697C355.064 970.749 355.134 961.865 355.182 955.635C355.222 952.647 355.254 950.299 355.276 948.621C355.292 947.877 355.306 947.283 355.316 946.821C355.328 946.417 355.342 946.217 355.354 946.231C355.366 946.245 355.38 946.469 355.394 946.895C355.404 947.375 355.418 947.991 355.434 948.763C355.456 950.459 355.488 952.835 355.528 955.859C355.576 962.035 355.644 970.841 355.73 981.693L355.356 981.319C365.718 981.289 377.96 981.253 391.508 981.213C398.292 981.203 405.402 981.195 412.764 981.185C416.446 981.183 420.192 981.179 423.992 981.177C425.892 981.177 427.806 981.175 429.732 981.175H432.63H434.086H434.816H435.182H435.364H435.456H435.502H435.524C435.296 981.405 436.064 980.661 435.02 981.691C435.03 969.241 435.038 957.249 435.046 946.233L435.542 946.729C412.342 946.635 392.376 946.551 378.13 946.493C371.054 946.435 365.402 946.389 361.438 946.357C359.534 946.331 358.04 946.309 356.948 946.295C356.474 946.283 356.09 946.273 355.774 946.265C355.506 946.251 355.364 946.241 355.354 946.231Z" fill="#242F3B"/>
<path d="M403.8 921.169C403.8 923.923 401.568 926.155 398.814 926.155C396.06 926.155 393.828 923.923 393.828 921.169C393.828 918.415 396.06 916.183 398.814 916.183C401.568 916.183 403.8 918.415 403.8 921.169Z" fill="#242F3B"/>
<path d="M403.8 963.963C403.8 966.717 401.568 968.949 398.814 968.949C396.06 968.949 393.828 966.717 393.828 963.963C393.828 961.209 396.06 958.977 398.814 958.977C401.568 958.975 403.8 961.209 403.8 963.963Z" fill="#242F3B"/>
<path d="M314.07 892.293C313.782 892.293 313.55 884.279 313.55 874.395C313.55 864.507 313.784 856.495 314.07 856.495C314.358 856.495 314.59 864.507 314.59 874.395C314.59 884.279 314.358 892.293 314.07 892.293Z" fill="#242F3B"/>
<path d="M221.01 840.763L216.938 856.491H221.01L228.81 844.999L221.01 840.763Z" fill="#263238"/>
<path d="M276.634 840.763L280.706 856.491H276.634L268.834 844.999L276.634 840.763Z" fill="#263238"/>
<path d="M219.076 759.441L204.88 740.251L205.21 740.009L219.406 759.199L219.076 759.441Z" fill="#263238"/>
<path d="M201.412 769.309C201.412 769.309 191.82 752.403 207.658 741.917C223.498 731.431 234.874 745.487 234.874 745.487L201.412 769.309Z" fill="#FF725E"/>
<path d="M203.86 742.645C206.032 742.645 207.794 740.884 207.794 738.711C207.794 736.538 206.032 734.777 203.86 734.777C201.687 734.777 199.926 736.538 199.926 738.711C199.926 740.884 201.687 742.645 203.86 742.645Z" fill="#FF725E"/>
<path d="M277.588 759.845L277.258 759.603L291.454 740.413L291.784 740.655L277.588 759.845Z" fill="#263238"/>
<path d="M295.252 769.715C295.252 769.715 304.844 752.809 289.006 742.323C273.166 731.839 261.79 745.893 261.79 745.893L295.252 769.715Z" fill="#FF725E"/>
<path d="M288.872 739.117C288.872 741.289 290.634 743.051 292.806 743.051C294.978 743.051 296.74 741.289 296.74 739.117C296.74 736.945 294.98 735.183 292.806 735.183C290.634 735.183 288.872 736.943 288.872 739.117Z" fill="#FF725E"/>
<path d="M249.654 739.117H247.012V752.449H249.654V739.117Z" fill="#455A64"/>
<path d="M249.846 745.577H246.818C244.958 745.577 243.452 744.069 243.452 742.211V741.281C243.452 739.421 244.96 737.915 246.818 737.915H249.846C251.706 737.915 253.212 739.423 253.212 741.281V742.211C253.214 744.069 251.706 745.577 249.846 745.577Z" fill="#FF725E"/>
<path d="M297.937 809.161C303.148 782.097 285.433 755.932 258.369 750.721C231.305 745.509 205.141 763.224 199.929 790.288C194.718 817.352 212.432 843.516 239.496 848.728C266.561 853.94 292.725 836.225 297.937 809.161Z" fill="#FF725E"/>
<path d="M203.808 796.529C205.452 771.495 227.078 752.533 252.114 754.175C277.148 755.819 296.11 777.445 294.466 802.481C292.822 827.517 271.196 846.479 246.16 844.835C221.126 843.191 202.164 821.563 203.808 796.529Z" fill="#FAFAFA"/>
<path d="M203.808 796.529C203.808 796.529 203.822 796.779 203.822 797.267C203.82 797.769 203.818 798.489 203.814 799.427C203.81 799.903 203.806 800.433 203.802 801.019C203.824 801.603 203.906 802.241 203.962 802.931C204.024 803.623 204.092 804.365 204.166 805.161C204.208 805.961 204.448 806.785 204.594 807.673C205.16 811.229 206.524 815.475 208.82 820.035C211.138 824.577 214.596 829.389 219.462 833.603C220.074 834.125 220.692 834.653 221.318 835.185C221.974 835.679 222.67 836.139 223.354 836.625C224.056 837.087 224.712 837.637 225.472 838.043C226.22 838.465 226.978 838.891 227.742 839.321C228.126 839.535 228.51 839.749 228.896 839.965C229.302 840.143 229.708 840.323 230.118 840.503C230.936 840.863 231.762 841.227 232.596 841.595C233.44 841.937 234.33 842.181 235.208 842.481C236.096 842.745 236.964 843.121 237.898 843.279C239.746 843.667 241.606 844.175 243.56 844.315C244.53 844.413 245.504 844.573 246.492 844.621C247.482 844.635 248.482 844.649 249.488 844.663C249.99 844.661 250.496 844.697 251.002 844.665C251.506 844.621 252.012 844.577 252.522 844.533C253.536 844.433 254.566 844.383 255.588 844.241C257.614 843.831 259.702 843.561 261.718 842.871L263.25 842.421C263.506 842.343 263.764 842.275 264.018 842.189L264.764 841.887C265.76 841.485 266.762 841.079 267.77 840.673C268.756 840.219 269.708 839.677 270.688 839.181C271.168 838.915 271.678 838.697 272.14 838.391L273.532 837.485C275.448 836.347 277.154 834.879 278.932 833.475C279.748 832.687 280.566 831.897 281.39 831.101L282.008 830.505L282.57 829.853L283.692 828.539L284.82 827.221L285.826 825.797L286.83 824.363L287.334 823.643C287.488 823.393 287.624 823.135 287.772 822.879C288.35 821.857 288.93 820.831 289.512 819.801C289.992 818.719 290.472 817.633 290.954 816.543C292.722 812.115 293.828 807.361 294.214 802.473C294.47 797.577 293.996 792.717 292.824 788.093C292.488 786.949 292.154 785.809 291.82 784.673C291.378 783.575 290.936 782.481 290.498 781.393L290.164 780.579L289.758 779.801L288.95 778.247L288.14 776.703L287.194 775.247L286.252 773.797L285.78 773.077L285.244 772.405C284.532 771.509 283.824 770.617 283.118 769.729C281.538 768.103 280.038 766.423 278.288 765.045L277.026 763.963C276.608 763.601 276.132 763.317 275.69 762.991C274.784 762.369 273.91 761.709 272.992 761.129C272.046 760.593 271.106 760.061 270.17 759.531L269.47 759.135C269.23 759.017 268.982 758.915 268.74 758.805L267.28 758.159C265.372 757.211 263.336 756.673 261.382 755.999C260.386 755.725 259.372 755.539 258.38 755.307C257.882 755.197 257.386 755.087 256.892 754.977C256.396 754.879 255.89 754.847 255.392 754.781C254.392 754.663 253.4 754.547 252.416 754.431C251.43 754.351 250.442 754.381 249.468 754.351C247.514 754.233 245.602 754.495 243.72 754.637C242.772 754.671 241.864 754.931 240.948 755.077C240.038 755.261 239.124 755.385 238.242 755.615C237.368 755.871 236.5 756.123 235.642 756.375C235.212 756.501 234.786 756.625 234.36 756.749C233.948 756.913 233.54 757.075 233.132 757.237C232.318 757.563 231.512 757.887 230.716 758.207C229.912 758.511 229.188 758.969 228.43 759.337C227.686 759.731 226.938 760.095 226.222 760.499C225.532 760.947 224.848 761.389 224.174 761.825C218.798 765.367 214.742 769.685 211.85 773.885C208.98 778.105 207.07 782.137 206.046 785.587C205.786 786.447 205.438 787.233 205.294 788.021C205.118 788.799 204.954 789.527 204.8 790.205C204.654 790.883 204.49 791.503 204.39 792.079C204.318 792.659 204.252 793.185 204.194 793.657C204.074 794.589 203.982 795.301 203.92 795.801C203.854 796.281 203.808 796.529 203.808 796.529C203.808 796.529 203.82 796.279 203.868 795.795C203.92 795.295 203.996 794.579 204.094 793.643C204.146 793.169 204.204 792.639 204.266 792.057C204.356 791.477 204.514 790.853 204.652 790.171C204.798 789.491 204.956 788.757 205.124 787.975C205.262 787.183 205.604 786.393 205.858 785.525C206.86 782.051 208.75 777.985 211.618 773.723C214.504 769.483 218.572 765.113 223.976 761.525C224.654 761.083 225.34 760.635 226.036 760.181C226.756 759.771 227.51 759.401 228.258 759.001C229.018 758.629 229.748 758.165 230.558 757.855C231.36 757.529 232.172 757.201 232.992 756.869C233.402 756.705 233.816 756.539 234.23 756.375C234.658 756.249 235.09 756.121 235.522 755.993C236.388 755.737 237.262 755.481 238.144 755.221C239.032 754.987 239.956 754.859 240.872 754.671C241.796 754.521 242.712 754.259 243.668 754.221C245.568 754.073 247.496 753.805 249.47 753.919C250.454 753.947 251.45 753.915 252.446 753.993C253.44 754.107 254.442 754.223 255.45 754.341C255.954 754.407 256.464 754.437 256.966 754.537C257.466 754.647 257.966 754.757 258.47 754.867C259.474 755.099 260.498 755.285 261.504 755.561C263.48 756.235 265.538 756.779 267.466 757.733L268.942 758.385C269.188 758.497 269.438 758.599 269.68 758.717L270.388 759.117C271.334 759.651 272.284 760.187 273.242 760.727C274.17 761.311 275.054 761.977 275.972 762.605C276.418 762.933 276.9 763.221 277.324 763.587L278.602 764.679C280.372 766.071 281.89 767.765 283.488 769.409C284.202 770.305 284.92 771.205 285.64 772.111L286.18 772.791L286.658 773.517L287.61 774.981L288.566 776.451L289.386 778.011L290.204 779.581L290.614 780.369L290.952 781.191C291.396 782.293 291.842 783.397 292.29 784.507C292.628 785.655 292.966 786.807 293.306 787.965C294.494 792.639 294.974 797.555 294.714 802.505C294.324 807.445 293.204 812.253 291.414 816.731C290.926 817.833 290.438 818.931 289.954 820.025C289.364 821.067 288.778 822.105 288.194 823.137C288.046 823.395 287.906 823.657 287.752 823.909L287.242 824.635L286.226 826.083L285.208 827.521L284.066 828.855L282.93 830.183L282.36 830.841L281.734 831.445C280.902 832.247 280.072 833.047 279.248 833.841C277.45 835.261 275.724 836.741 273.786 837.889L272.378 838.803C271.912 839.109 271.396 839.331 270.91 839.599C269.92 840.101 268.956 840.647 267.96 841.103C266.94 841.513 265.928 841.921 264.922 842.327L264.168 842.631C263.912 842.719 263.65 842.787 263.392 842.865L261.844 843.319C259.808 844.011 257.698 844.281 255.65 844.691C254.616 844.833 253.578 844.883 252.552 844.983C252.038 845.027 251.528 845.071 251.018 845.113C250.508 845.145 249.998 845.109 249.49 845.109C248.474 845.093 247.466 845.077 246.466 845.061C245.468 845.009 244.484 844.847 243.506 844.745C241.536 844.599 239.658 844.083 237.794 843.687C236.852 843.525 235.978 843.145 235.082 842.875C234.198 842.569 233.3 842.321 232.448 841.973C231.608 841.601 230.774 841.231 229.95 840.865C229.538 840.683 229.128 840.499 228.718 840.319C228.328 840.101 227.94 839.883 227.556 839.667C226.786 839.231 226.026 838.799 225.272 838.371C224.508 837.959 223.846 837.403 223.14 836.935C222.45 836.443 221.752 835.977 221.092 835.475C220.462 834.935 219.84 834.401 219.226 833.873C214.336 829.609 210.876 824.747 208.568 820.165C206.282 815.565 204.94 811.287 204.4 807.711C204.26 806.817 204.026 805.989 203.992 805.185C203.928 804.387 203.866 803.639 203.812 802.945C203.764 802.251 203.69 801.611 203.676 801.025C203.69 800.439 203.702 799.907 203.712 799.429C203.738 798.489 203.756 797.769 203.77 797.265C203.788 796.777 203.808 796.529 203.808 796.529Z" fill="#263238"/>
<path d="M262.42 781.791C262.452 781.811 262.18 782.311 261.66 783.209C261.078 784.185 260.32 785.459 259.4 787.003C257.462 790.211 254.734 794.661 251.626 799.667L251.472 799.915L251.23 799.763C250.446 799.275 249.618 798.761 248.778 798.239C243.302 794.831 238.364 791.717 234.804 789.437C233.094 788.327 231.68 787.411 230.606 786.713C229.622 786.059 229.088 785.681 229.108 785.645C229.13 785.611 229.704 785.923 230.726 786.517C231.826 787.173 233.274 788.039 235.024 789.083C238.64 791.271 243.614 794.329 249.088 797.737C249.926 798.261 250.754 798.777 251.538 799.265L251.142 799.361C254.264 794.363 257.052 789.951 259.076 786.797C260.056 785.291 260.864 784.047 261.484 783.095C262.06 782.237 262.39 781.773 262.42 781.791Z" fill="#263238"/>
<path d="M249.424 759.723C249.586 759.723 249.718 761.431 249.718 763.539C249.718 765.647 249.586 767.355 249.424 767.355C249.262 767.355 249.13 765.647 249.13 763.539C249.132 761.433 249.262 759.723 249.424 759.723Z" fill="#263238"/>
<path d="M269.352 766.753C269.488 766.841 268.676 768.323 267.54 770.063C266.404 771.801 265.372 773.139 265.236 773.051C265.1 772.963 265.912 771.481 267.048 769.741C268.184 768.001 269.216 766.665 269.352 766.753Z" fill="#263238"/>
<path d="M282.056 780.463C282.13 780.611 280.69 781.477 278.926 782.553C277.16 783.623 275.726 784.505 275.63 784.369C275.536 784.241 276.83 783.135 278.62 782.051C280.408 780.961 281.986 780.321 282.056 780.463Z" fill="#263238"/>
<path d="M289.148 800.081C289.148 800.243 286.818 800.375 283.944 800.375C281.07 800.375 278.74 800.243 278.74 800.081C278.74 799.919 281.07 799.787 283.944 799.787C286.82 799.787 289.148 799.919 289.148 800.081Z" fill="#263238"/>
<path d="M216.994 799.387C216.994 799.549 214.794 799.681 212.08 799.681C209.366 799.681 207.166 799.549 207.166 799.387C207.166 799.225 209.366 799.093 212.08 799.093C214.794 799.093 216.994 799.225 216.994 799.387Z" fill="#263238"/>
<path d="M222.096 813.995C222.202 814.117 220.54 815.625 218.382 817.363C216.224 819.101 214.396 820.405 214.3 820.273C214.202 820.143 215.866 818.635 218.014 816.903C220.162 815.175 221.99 813.871 222.096 813.995Z" fill="#263238"/>
<path d="M234.686 825.291C234.822 825.389 233.588 827.285 232.158 829.671C230.722 832.053 229.626 834.033 229.476 833.959C229.334 833.893 230.202 831.777 231.654 829.367C233.1 826.955 234.56 825.195 234.686 825.291Z" fill="#263238"/>
<path d="M249.254 839.859C249.092 839.859 248.96 837.529 248.96 834.655C248.96 831.781 249.092 829.451 249.254 829.451C249.416 829.451 249.548 831.781 249.548 834.655C249.55 837.529 249.418 839.859 249.254 839.859Z" fill="#263238"/>
<path d="M271.684 832.927C271.602 833.057 269.566 831.887 267.394 829.987C265.216 828.095 263.778 826.237 263.896 826.137C264.024 826.025 265.634 827.681 267.78 829.543C269.918 831.413 271.778 832.785 271.684 832.927Z" fill="#263238"/>
<path d="M283.834 819.575C283.748 819.713 281.942 818.731 279.804 817.383C277.664 816.035 276 814.831 276.086 814.693C276.172 814.555 277.978 815.537 280.118 816.885C282.256 818.233 283.922 819.437 283.834 819.575Z" fill="#263238"/>
<path d="M222.722 782.589C222.642 782.731 221.018 781.957 219.094 780.863C217.17 779.769 215.676 778.767 215.758 778.625C215.838 778.483 217.462 779.257 219.386 780.351C221.31 781.445 222.804 782.447 222.722 782.589Z" fill="#263238"/>
<path d="M234.61 771.711C234.496 771.825 233.156 770.679 231.622 769.151C230.086 767.621 228.934 766.289 229.048 766.173C229.162 766.059 230.5 767.205 232.036 768.733C233.572 770.263 234.724 771.597 234.61 771.711Z" fill="#263238"/>
<path d="M208.988 799.681C208.988 775.643 227.772 755.997 251.462 754.609C250.574 754.557 249.68 754.523 248.778 754.523C223.838 754.523 203.62 774.741 203.62 799.681C203.62 824.621 223.838 844.839 248.778 844.839C249.68 844.839 250.574 844.805 251.462 844.753C227.774 843.365 208.988 823.721 208.988 799.681Z" fill="#E0E0E0"/>
<path d="M201.162 740.541C201.162 740.541 200.986 740.349 200.828 739.963C200.668 739.579 200.556 738.997 200.644 738.363C200.734 737.729 201 737.199 201.258 736.873C201.516 736.545 201.738 736.407 201.738 736.407C201.752 736.423 201.554 736.585 201.318 736.917C201.082 737.245 200.834 737.763 200.748 738.377C200.664 738.991 200.76 739.557 200.898 739.937C201.032 740.319 201.18 740.531 201.162 740.541Z" fill="white"/>
<path d="M200.84 764.309C200.84 764.309 200.432 763.237 200.16 761.415C199.882 759.599 199.856 757.011 200.522 754.271C201.2 751.533 202.424 749.253 203.512 747.771C204.598 746.281 205.456 745.521 205.456 745.521C205.456 745.521 205.272 745.739 204.926 746.117C204.572 746.489 204.104 747.067 203.572 747.813C202.504 749.299 201.298 751.571 200.622 754.295C199.958 757.019 199.974 759.591 200.232 761.405C200.358 762.313 200.504 763.043 200.646 763.535C200.778 764.031 200.84 764.309 200.84 764.309Z" fill="white"/>
<path d="M201.908 766.895C201.88 766.903 201.814 766.731 201.76 766.515C201.706 766.299 201.684 766.117 201.712 766.111C201.74 766.103 201.806 766.273 201.86 766.491C201.916 766.707 201.936 766.889 201.908 766.895Z" fill="white"/>
<path d="M287.964 742.785C287.656 742.613 287.362 742.449 287.06 742.281C286.476 741.961 285.608 741.537 284.492 741.119C282.278 740.277 278.972 739.571 275.348 739.985C271.724 740.397 268.66 741.829 266.692 743.147C265.7 743.805 264.948 744.413 264.452 744.857C264.194 745.089 263.944 745.315 263.684 745.551C263.684 745.551 264.666 744.425 266.652 743.085C268.616 741.745 271.692 740.295 275.338 739.881C278.982 739.467 282.304 740.187 284.52 741.051C286.754 741.909 287.964 742.785 287.964 742.785Z" fill="white"/>
<path d="M292.15 736.347C292.156 736.367 291.924 736.419 291.59 736.591C291.258 736.761 290.834 737.077 290.494 737.539C290.158 738.003 289.984 738.501 289.924 738.871C289.862 739.241 289.882 739.477 289.862 739.479C289.862 739.479 289.806 739.245 289.852 738.861C289.896 738.479 290.062 737.957 290.41 737.479C290.76 737.003 291.206 736.683 291.556 736.527C291.908 736.365 292.15 736.347 292.15 736.347Z" fill="white"/>
<path d="M204.962 820.049C204.962 820.049 204.058 818.007 203.08 814.539C202.098 811.079 201.188 806.147 201.156 800.645C201.14 795.141 202.01 790.199 202.962 786.733C203.91 783.257 204.798 781.209 204.798 781.209C204.63 781.687 204.468 782.151 204.282 782.683C203.932 783.625 203.496 785.015 203.034 786.751C202.1 790.219 201.246 795.151 201.26 800.645C201.292 806.137 202.188 811.061 203.152 814.521C203.63 816.253 204.076 817.641 204.436 818.579C204.626 819.109 204.792 819.571 204.962 820.049Z" fill="white"/>
<path d="M211.242 830.531C211.218 830.547 210.3 829.195 209.19 827.515C208.08 825.833 207.202 824.457 207.226 824.441C207.25 824.425 208.168 825.775 209.278 827.457C210.386 829.137 211.266 830.515 211.242 830.531Z" fill="white"/>
</g>
<defs>
<clipPath id="clip0_50_3872">
<rect width="1500" height="1000" fill="white"/>
</clipPath>
</defs>
</svg>
