<?xml version="1.0" encoding="utf-8"?>
<!-- Generator: Adobe Illustrator 27.5.0, SVG Export Plug-In . SVG Version: 6.00 Build 0)  -->
<svg version="1.1" xmlns="http://www.w3.org/2000/svg" xmlns:xlink="http://www.w3.org/1999/xlink" x="0px" y="0px"
	 viewBox="0 0 750 500" style="enable-background:new 0 0 750 500;" xml:space="preserve">
<g id="BACKGROUND">
</g>
<g id="OBJECTS">
	<g>
		<ellipse style="opacity:0.1;fill:#352C38;" cx="582.22" cy="464.54" rx="91.011" ry="14.594"/>
		<g>
			<g>
				<g>
					<path style="fill:#211C23;" d="M555.243,248.01c0,0-20.572,23.737-25.32,96.532c-4.747,72.795-4.747,112.674-4.747,112.674
						l11.394,3.165c0,0,34.498-68.047,28.168-93.051c0,0,37.347-68.364,34.182-91.468
						C595.755,252.758,555.243,248.01,555.243,248.01z"/>
					<g>
						<path style="fill:#352C38;" d="M635.071,456.569c0,0,20.197-77.352-5.134-106.329c0,0,33.549-67.098-1.621-118.222
							c-2.204-3.203-5.448-4.17-7.939-4.691l0.059-0.577l-48.972-7.376l0.344,1.128c-3.293,0.959-9.318,19.626-13.399,24.028
							c-8.934,9.638-15.192,26.586-17.091,33.865c15.896,15.318,30.95,23.962,46.264,31.197c0.183,0.49,0.278,0.766,0.261,0.769
							c1.093,14.536,3.09,33.024,6.013,47.158c8.492,41.056,23.202,78.666,33.695,103.928
							C627.551,461.447,674.371,477.992,635.071,456.569z"/>
						<path style="fill:#211C23;" d="M635.071,456.569c0,0,6.067-25.896,7.38-50.638c-3.884-0.486-7.806-0.61-11.733-0.219
							c-7.478,0.744-14.552,3.096-21.331,6.19c6.223,17.397,12.754,36.517,18.165,49.546
							C627.551,461.447,674.371,477.992,635.071,456.569z"/>
						<g style="opacity:0.6;">
							<path style="fill:#211C23;" d="M636.685,254.803c-2.334-3.591-5.104-6.987-8.369-10.126c-2.803-2.694-5.448-4.17-7.939-4.691
								l0.059-0.577l-48.972-7.376l0.344,1.128c-3.293,0.959-6.959,3.427-11.039,7.829c-3.001,3.237-5.526,6.865-7.65,10.78
								C568.954,257.738,597.796,264.225,636.685,254.803z"/>
						</g>
					</g>
				</g>
				<g>
					<g>
						<path style="fill:#6F96BD;" d="M524.179,406.405c12.359-5.03,35.673,8.059,35.673,8.059l-21.344,46.471
							c0,0-52.104,21.245-16.023-5.46L524.179,406.405z"/>
						<g>
							<path style="fill:#352C38;" d="M509.69,467.829c-1.208,5.05,28.558-6.13,28.558-6.13l0.465-1.089
								C532.012,463.025,513.478,469.43,509.69,467.829z"/>
						</g>
					</g>
					<g>
						<path style="fill:#6F96BD;" d="M643.072,411.324c-13.451-7.596-34.657,3.481-34.657,3.481l19.573,48.913
							c0,0,55.768,17.19,12.586-7.24L643.072,411.324z"/>
						<g>
							<path style="fill:#352C38;" d="M656.904,468.139c1.548,4.969-28.916-4.42-28.916-4.42l-0.538-1.059
								C634.3,464.672,653.232,469.962,656.904,468.139z"/>
						</g>
					</g>
				</g>
			</g>
			<g>
				<g>
					<g>
						<polygon style="fill:#DD938A;" points="589.938,144.104 592.274,163.98 615.536,164.929 612.563,133.129 						"/>
						<g>
							<path style="fill:#FFB65F;" d="M618.227,79.949c0,0-6.33-15.825-30.7-7.912c-24.37,7.912-24.37,39.879-22.788,58.552
								c1.583,18.673-21.205,22.155-3.798,36.397c17.407,14.242,35.764,4.115,33.232-18.04
								C592.191,131.606,618.227,79.949,618.227,79.949z"/>
							<path style="fill:#FFC5B6;" d="M576.526,99.646c-8.664,15.694-4.114,41.453,9.1,46.532
								c17.675,6.794,45.142-13.189,34.797-46.293C605.792,99.649,591.16,99.468,576.526,99.646z"/>
						</g>
						<g>
							<path style="fill:#FFB65F;" d="M631.003,87.272c-5.172-10.317-11.25-9.601-13.775-8.726
								c-1.629,3.032-3.349,6.019-4.517,9.268c-0.872,2.428-1.687,4.85-2.804,7.116c-3.023,13.143,4.667,12.847,4.667,12.847
								c-4.784,10.604-2.166,12.069-2.166,12.069s3.926-0.588,5.947-7.014c2.445-7.773,9.63-3.313,7.017,4.601
								c-3.339,10.114-7.889,6.172-7.889,6.172c-1.6,8.85-5.252,15.178-5.252,15.178C627.579,131.989,637.72,100.671,631.003,87.272
								z"/>
							<path style="fill:#FFB65F;" d="M621.708,129.007l-4.225-5.401c0,0-9.068,6.984-7.485,24.391
								c1.583,17.407,14.559,5.38,29.118,11.71c0,0,12.977-10.445,5.697-17.408s-17.407-6.963-13.293-31.966
								s-2.215,0.633-2.215,0.633l-6.33,17.724L621.708,129.007z"/>
						</g>
					</g>
					<g>
						<g>
							<g>
								<path style="fill:#BA6C6C;" d="M597.925,130.262c0,0-0.588,0.964-1.867,2.062c-0.329,0.258-0.673,0.565-1.085,0.82
									c-0.404,0.268-0.834,0.554-1.322,0.774c-0.47,0.254-0.994,0.453-1.53,0.64c-0.545,0.159-1.113,0.301-1.69,0.392
									c-0.587,0.037-1.17,0.122-1.753,0.045c-0.29-0.018-0.578-0.045-0.859-0.08c-0.275-0.074-0.547-0.148-0.815-0.22
									c-0.545-0.108-1.018-0.361-1.46-0.594c-0.22-0.118-0.444-0.212-0.637-0.341c-0.183-0.145-0.359-0.284-0.529-0.418
									c-0.33-0.274-0.653-0.492-0.871-0.763c-0.227-0.259-0.412-0.496-0.564-0.687c-0.301-0.385-0.455-0.609-0.455-0.609
									s0.253,0.132,0.667,0.372c0.205,0.121,0.455,0.264,0.725,0.439c0.269,0.179,0.631,0.284,0.974,0.463
									c0.175,0.081,0.358,0.166,0.547,0.254c0.194,0.073,0.402,0.125,0.61,0.192c0.415,0.133,0.846,0.271,1.313,0.321
									c0.229,0.038,0.461,0.077,0.696,0.116c0.241-0.004,0.482-0.001,0.724,0.012c0.484,0.055,0.98-0.047,1.472-0.086
									c0.493-0.06,0.987-0.167,1.468-0.287c0.472-0.161,0.962-0.252,1.406-0.448c0.454-0.164,0.89-0.342,1.302-0.524
									c0.414-0.177,0.792-0.379,1.158-0.542c0.345-0.196,0.686-0.346,0.969-0.51c0.289-0.16,0.541-0.3,0.749-0.415
									C597.686,130.399,597.925,130.262,597.925,130.262z"/>
							</g>
							<g>
								<path style="fill:#BA6C6C;" d="M585.018,127.013c-0.831-0.434-1.6-0.935-2.346-1.462c-0.778-0.447-1.525-0.901-2.237-1.393
									l-0.751-0.518l0.688-0.687c0.268-0.268,0.549-0.521,0.823-0.779l0.795-0.805c0.248-0.284,0.504-0.561,0.763-0.836
									l0.734-0.866c0.226-0.302,0.466-0.598,0.711-0.894c0.215-0.314,0.44-0.624,0.681-0.931c0.204-0.325,0.43-0.644,0.659-0.969
									c0.204-0.334,0.421-0.67,0.659-1.008c-0.034,0.403-0.086,0.81-0.156,1.216c-0.103,0.392-0.205,0.791-0.333,1.182
									c-0.144,0.382-0.3,0.763-0.471,1.138c-0.188,0.364-0.381,0.729-0.588,1.086l-0.699,1.02
									c-0.259,0.32-0.523,0.637-0.794,0.948c-0.284,0.299-0.584,0.582-0.877,0.872c-0.317,0.264-0.631,0.531-0.956,0.784
									l-0.063-1.204c0.734,0.602,1.433,1.242,2.101,1.888C583.949,125.495,584.514,126.221,585.018,127.013z"/>
							</g>
						</g>
						<g>
							<path style="fill:#FFC5B6;" d="M615.781,121.721c0,0,1.236-13.879,7.552-14.619c6.316-0.74,2.947,20.871-6.305,17.335
								C607.776,120.901,615.781,121.721,615.781,121.721z"/>
							<g>
								<path style="fill:#BA6C6C;" d="M620.445,122.999c0.292-0.404,0.542-0.835,0.701-1.268c0.078-0.214,0.14-0.434,0.134-0.63
									c0.017-0.102-0.017-0.189-0.033-0.273c-0.002-0.09-0.081-0.146-0.1-0.219c-0.036-0.068-0.117-0.116-0.163-0.177
									c-0.056-0.057-0.158-0.093-0.228-0.142c-0.066-0.053-0.177-0.078-0.272-0.112c-0.1-0.03-0.184-0.071-0.293-0.094
									c-0.22-0.038-0.422-0.1-0.649-0.122l-0.682-0.062l-0.645-0.059l0.077-0.699c0.076-0.682,0.195-1.335,0.315-2
									c0.115-0.664,0.287-1.315,0.457-1.97c0.171-0.655,0.371-1.305,0.621-1.944c0.25-0.639,0.508-1.284,0.872-1.9
									c0.187-0.308,0.378-0.614,0.622-0.909c0.24-0.291,0.504-0.591,0.888-0.82c0.366-0.232,0.885-0.389,1.376-0.299
									c0.241,0.035,0.862,0.171,1.163,0.498c0.341,0.301,0.549,0.715,0.617,1.096c0.093,0.385,0.063,0.755,0.027,1.105
									c-0.092,0.701-0.324,1.348-0.635,1.945c0.079-0.665,0.095-1.33,0.029-1.951c-0.039-0.307-0.107-0.608-0.221-0.852
									c-0.1-0.258-0.265-0.432-0.445-0.531c-0.048-0.022-0.093-0.045-0.137-0.07c-0.047-0.005-0.089-0.011-0.129-0.024
									c-0.038-0.037-0.262-0.034-0.414-0.044c-0.168,0.005-0.315,0.071-0.488,0.215c-0.349,0.282-0.676,0.812-0.936,1.348
									c-0.542,1.097-0.916,2.335-1.299,3.564c-0.354,1.238-0.699,2.507-0.995,3.759l-0.568-0.757l0.775,0.18
									c0.257,0.062,0.52,0.176,0.775,0.263c0.129,0.045,0.256,0.136,0.382,0.203c0.125,0.076,0.251,0.134,0.368,0.25
									c0.115,0.11,0.239,0.195,0.335,0.329c0.089,0.144,0.196,0.271,0.249,0.431c0.039,0.164,0.114,0.326,0.092,0.488
									c-0.006,0.162-0.007,0.322-0.06,0.461c-0.073,0.292-0.21,0.535-0.366,0.75C621.25,122.387,620.865,122.725,620.445,122.999z
									"/>
							</g>
						</g>
					</g>
				</g>
				<g>
					<g>
						<polygon style="fill:#352C38;" points="634.687,101.538 617.023,101.773 616.841,110.271 632.747,111.207 						"/>
						<path style="fill:#352C38;" d="M615.28,74.082c0,0-16.498,8.051-18.723,23.747l-9.681-2.539c0,0,3.073-19.272,17.304-24.412
							C604.18,70.878,610,69.144,615.28,74.082"/>
					</g>
					<g>
						<path style="fill:#352C38;" d="M560.953,111.628c-0.041,5.769,4.603,10.479,10.372,10.52l37.383,1.145
							c5.769,0.041,10.48-4.603,10.52-10.372l0.085-12.013c0.041-5.769-4.603-10.479-10.372-10.52l-37.383-1.145
							c-5.769-0.041-10.479,4.603-10.52,10.372L560.953,111.628z"/>
						<path style="fill:#765E69;" d="M560.494,109.542c-0.037,5.234,4.176,9.508,9.41,9.545l32.686,1.111
							c5.234,0.037,9.508-4.176,9.545-9.41l0.077-10.899c0.037-5.234-4.176-9.508-9.41-9.545l-32.686-1.111
							c-5.234-0.037-9.508,4.176-9.545,9.41L560.494,109.542z"/>
						<g style="opacity:0.5;">
							<path style="fill:#352C38;" d="M570.031,93.971l32.611,1.109l0.064,0.002l0.064,0c1.266,0.009,2.452,0.51,3.341,1.412
								c0.889,0.901,1.373,2.095,1.364,3.361l-0.078,10.899c-0.018,2.58-2.12,4.681-4.728,4.705l-32.603-1.108l-0.064-0.002
								l-0.064,0c-2.613-0.019-4.724-2.16-4.705-4.772l0.078-10.899C565.329,96.088,567.445,93.981,570.031,93.971 M570.048,89.232
								c-5.203,0-9.439,4.199-9.476,9.411l-0.078,10.899c-0.037,5.234,4.176,9.508,9.41,9.545l32.686,1.111c0.023,0,0.046,0,0.069,0
								c5.203,0,9.439-4.199,9.476-9.411l0.077-10.899c0.037-5.234-4.176-9.508-9.41-9.545l-32.686-1.111
								C570.094,89.232,570.071,89.232,570.048,89.232L570.048,89.232z"/>
						</g>
					</g>
				</g>
			</g>
			<g>
				<g>
					<g>
						<g>
							<path style="fill:#FFC5B6;" d="M594.653,182.608c0,0-56.79,30.118-71.507,25.845c-14.185-4.118-46.252-87.018-27.544-57.48
								c0,0-5.632-27.769,3.628-2.646c0,0-5.033-24.34,3.139-0.538c0,0-1-19.065,5.148,4.282l22.567,32.484
								c0,0,57.384-32.524,63.183-23.825C599.066,169.431,594.653,182.608,594.653,182.608z"/>
							<path style="fill:#FFC5B6;" d="M507.16,157.204c10.099-14.516,8.604-13.431-2.016-5.189
								C496.292,158.885,507.16,157.204,507.16,157.204z"/>
						</g>
						<path style="opacity:0.5;fill:#DD938A;" d="M593.267,160.731c-4.013-6.02-32.723,7.698-50.031,16.721
							c0.109,8.738,0.785,18.69,4.757,26.283c21.235-7.643,46.66-21.127,46.66-21.127S599.066,169.431,593.267,160.731z"/>
					</g>
					<path style="fill:#5F83A0;" d="M548.308,170.948c0,0-2.374,22.313,8.545,33.707l32.758-10.919l-0.949-37.03
						C588.661,156.706,572.045,156.706,548.308,170.948z"/>
				</g>
				<g>
					<g>
						<path style="fill:#6F96BD;" d="M553.53,248.807c0,0,43.677,15.192,83.556,3.798l-7.596-29.434
							c0,0,30.384-52.222,11.394-62.667c-18.99-10.445-65.04-10.919-75.96,10.444c-9.157,17.915-9.495,35.131,0.95,42.727
							l2.848,9.495C568.722,223.171,557.328,235.514,553.53,248.807z"/>
						<polygon style="fill:#6F96BD;" points="588.661,156.706 587.237,150.059 617.146,145.787 616.197,159.08 						"/>
					</g>
					<path style="fill:#5F83A0;" d="M645.617,184.95c-1.446-0.438-2.89-0.885-4.327-1.353c-13.1,11.775-29.191,20.052-45.69,25.978
						c-9.218,3.311-18.887,6.432-28.619,7.792l1.741,5.803c0,0-11.394,12.344-15.192,25.637c0,0,44.757,17.877,87.168,2.052
						l-11.208-27.688C629.49,223.171,641.345,202.793,645.617,184.95z"/>
				</g>
				<g>
					<g>
						<g>
							<path style="fill:#FFC5B6;" d="M629.176,188.088c0,0,16.834,42.998,23.733,47.213c9.284,5.671,76.17,20.123,46.031,7.431
								c0,0,27.869,5.116,2.578-3.676c0,0,24.429,4.581,0.48-3.149c0,0,21.532,2.844-1.925-2.87l-35.444-15.126
								c0,0-10.856-43.256-19.661-48.893C636.162,163.38,629.176,188.088,629.176,188.088z"/>
							<path style="fill:#FFC5B6;" d="M698.995,236.046c0,0,11.652-9.162,5.199,0.24
								C697.74,245.689,698.995,236.046,698.995,236.046z"/>
						</g>
						<path style="opacity:0.5;fill:#DD938A;" d="M647.968,204.04c3.651-1.204,7.956-2.768,11.138-5.367
							c-3.928-12.33-9.338-26.583-14.138-29.656c-8.806-5.637-15.791,19.071-15.791,19.071s3.429,8.757,7.825,18.754
							C640.697,206.066,644.378,205.225,647.968,204.04z"/>
					</g>
					<path style="fill:#6F96BD;" d="M633.305,204.585c0,0,16.728-2.094,27.48-10.81c0,0-10.149-35.122-26.699-34.074
						C617.538,160.748,633.305,204.585,633.305,204.585z"/>
				</g>
				<g>
					<path style="fill:#FFB65F;" d="M644.812,142.3c-6.952-6.65-16.493-6.966-13.753-28.76c-0.739-0.425-1.478-0.851-2.22-1.271
						l-5.865,16.421l-1.266,0.316l-4.225-5.401c0,0-9.068,6.984-7.486,24.391c1.583,17.407,14.559,5.38,29.118,11.71
						C639.115,159.707,652.092,149.263,644.812,142.3z"/>
				</g>
			</g>
		</g>
	</g>
	<g>
		<ellipse style="opacity:0.1;fill:#352C38;" cx="381.818" cy="464.54" rx="83.184" ry="14.594"/>
		<g>
			<g>
				<path style="fill:#FFAC9D;" d="M412.321,144.309c0,0,64.06-10.798,60.99-25.866c-3.069-15.068-52.125-40.507-52.125-40.507
					l-11.655-7.85l-15.663,11.618c0,0,14.935,8.338,21.352,7.222l28.353,25.526l-38.786,7.255L412.321,144.309z"/>
				<g>
					<path style="fill:#DD938A;" d="M419.275,76.649l-9.745-6.563l-15.663,11.618c0,0,9.267,5.172,16.338,6.823
						C413.137,84.498,416.275,80.623,419.275,76.649z"/>
					<path style="fill:#DD938A;" d="M431.891,127.506c0.058-3.311,0.831-7.378,0.293-10.923l-27.396,5.124l7.534,22.602
						c0,0,8.023-1.353,18.251-3.768C431.204,136.193,431.815,131.835,431.891,127.506z"/>
				</g>
			</g>
			<g>
				<g>
					<g>
						<path style="fill:#FFAC9D;" d="M358.902,91.717c0,0,7.861,27.114-3.131,31.762c-10.992,4.649-32.701,6.068-33.108,26.349
							c-0.407,20.281,96.483-1.076,96.483-1.076s0.109-22.722-19.102-24.499c-19.21-1.777-14.528-4.002-15.947-25.711
							C382.679,76.833,358.902,91.717,358.902,91.717z"/>
						<path style="fill:#DD938A;" d="M361.451,113.274c4.118,4.022,8.998,7.064,14.987,7.963c3.52,0.529,7.349,0.656,11.193,0.34
							c-4.328-2.81-2.592-8.633-3.533-23.035c-1.419-21.709-25.196-6.825-25.196-6.825S362.414,103.849,361.451,113.274z"/>
					</g>
					<g>
						<path style="fill:#FFAC9D;" d="M360.485,100.984c0,0-19.476-22.582-5.64-43.291c13.836-20.709,33.228-10.223,37.369,1.924
							c4.142,12.147,18.043,48.134-4.345,51.558C365.482,114.599,360.485,100.984,360.485,100.984z"/>
						<g>
							<g>
								<path style="fill:#965450;" d="M396.655,32.364l-1.689,5.065c0,0-2.403-6.404-7.469-8.093c0,0,2.459,7.15-5.406,7.622
									c-7.864,0.472-24.368-6.344-32.416,10.419c-1.002,2.088-1.83,4.021-2.512,5.806c-2.641-0.209-6.405,0.654-8.7,6.303
									c-2.311,5.69-1.872,26.985,22.984,44.449l-3.757-10.101c0,0-2.464,1.84-5.583-1.962c-5.403-6.589-2.532-10.694,0.784-9.766
									c3.316,0.928,4.753,8.062,4.753,8.062l3.894-1.415l-3.301-12.839c4.883-4.533,1.278-12.732,1.278-12.732
									s18.024,5.585,30.606-1.84C409.097,50.146,396.655,32.364,396.655,32.364z"/>
							</g>
							<path style="fill:#FFAC9D;" d="M359.67,98.853c0,0-7.286,0.943-10.07-8.808c-2.784-9.751,3.469-11.241,6.146-5.354
								S359.67,98.853,359.67,98.853z"/>
						</g>
					</g>
				</g>
				<g>
					<g>
						<g>
							<g>
								<path style="fill:#BA6C6C;" d="M357.822,96.168c-0.532-0.134-1.051-0.324-1.55-0.566c-0.248-0.124-0.498-0.251-0.732-0.415
									c-0.24-0.151-0.463-0.341-0.653-0.576c-0.097-0.116-0.194-0.233-0.254-0.386c-0.08-0.14-0.134-0.292-0.143-0.466
									c-0.04-0.17-0.015-0.335,0.03-0.5c0.023-0.176,0.102-0.314,0.188-0.449c0.08-0.14,0.162-0.282,0.274-0.378l0.318-0.324
									c0.226-0.185,0.469-0.342,0.707-0.51l-0.174,0.378c-0.269-1.181-0.566-2.37-0.905-3.533c-0.34-1.16-0.715-2.327-1.252-3.358
									c-0.134-0.255-0.291-0.494-0.463-0.684c-0.163-0.187-0.387-0.309-0.47-0.294c-0.15,0.028-0.326,0.058-0.36,0.115
									c-0.073,0.02-0.161,0.129-0.248,0.212c-0.158,0.201-0.284,0.455-0.376,0.729c-0.181,0.551-0.274,1.152-0.347,1.755
									c-0.063,0.605-0.086,1.218-0.094,1.835c-0.12-0.606-0.175-1.223-0.197-1.845c-0.024-0.623,0.004-1.253,0.161-1.885
									c0.077-0.315,0.195-0.633,0.392-0.933c0.158-0.288,0.666-0.599,0.911-0.617c0.546-0.108,0.887,0.195,1.14,0.428
									c0.253,0.254,0.443,0.529,0.608,0.808c0.652,1.123,1.03,2.315,1.384,3.506c0.338,1.197,0.612,2.4,0.822,3.627l0.041,0.237
									l-0.215,0.142c-0.211,0.139-0.435,0.269-0.646,0.407l-0.276,0.238c-0.106,0.074-0.163,0.168-0.227,0.26
									c-0.072,0.09-0.139,0.182-0.153,0.283c-0.039,0.098-0.07,0.198-0.047,0.302c-0.01,0.104,0.017,0.21,0.068,0.314
									c0.027,0.109,0.097,0.209,0.168,0.308c0.134,0.202,0.321,0.386,0.516,0.558c0.191,0.179,0.411,0.333,0.632,0.485
									C356.849,95.673,357.329,95.93,357.822,96.168z"/>
							</g>
							<g>
								<path style="fill:#BA6C6C;" d="M389.399,92.739c0.689-0.694,1.406-1.35,2.13-1.995c0.728-0.64,1.459-1.276,2.209-1.886
									l-0.196,0.74c-0.391-0.739-0.789-1.475-1.155-2.225c-0.371-0.748-0.756-1.49-1.103-2.249
									c-0.352-0.757-0.718-1.507-1.059-2.269l-1.012-2.29c-0.65-1.538-1.278-3.086-1.863-4.654
									c-0.572-1.574-1.126-3.156-1.572-4.787c0.939,1.406,1.771,2.861,2.584,4.325c0.801,1.469,1.558,2.959,2.294,4.458
									l1.066,2.265c0.353,0.757,0.679,1.525,1.019,2.287c0.345,0.76,0.654,1.536,0.975,2.307c0.327,0.768,0.621,1.551,0.923,2.331
									l0.191,0.493l-0.386,0.247c-0.814,0.521-1.648,1.016-2.484,1.506C391.122,91.828,390.275,92.303,389.399,92.739z"/>
							</g>
						</g>
						<path style="fill:#FFFFFF;" d="M374.901,96.15l22.96-2.383C397.862,93.767,388.728,105.732,374.901,96.15z"/>
					</g>
					<g>
						<g>
							<polygon style="fill:#352C38;" points="339.585,76.68 359.681,71.499 362.508,81.076 344.766,87.042 							"/>
							<path style="fill:#352C38;" d="M357.94,38.001c0,0,14.76,6.023,18.175,20.525l8.845-3.198c0,0-5.414-17.31-15.4-19.524
								c0,0-6.057-0.692-12.246,2.256"/>
						</g>
						<g>
							<path style="fill:#352C38;" d="M411.865,71.546c0.937,5.34-2.632,10.43-7.972,11.367l-34.467,6.889
								c-5.34,0.937-10.43-2.632-11.367-7.972l-1.952-11.12c-0.937-5.34,2.632-10.43,7.972-11.367l34.467-6.889
								c5.34-0.937,10.43,2.632,11.367,7.972L411.865,71.546z"/>
							<path style="fill:#765E69;" d="M411.965,69.541c0.85,4.845-2.388,9.463-7.233,10.313l-30.119,6.126
								c-4.845,0.851-9.463-2.388-10.313-7.233l-1.771-10.089c-0.85-4.845,2.388-9.463,7.233-10.313l30.119-6.126
								c4.845-0.851,9.463,2.388,10.313,7.233L411.965,69.541z"/>
							<g style="opacity:0.5;">
								<path style="fill:#352C38;" d="M401.432,56.537L401.432,56.537c2.16,0,4.001,1.55,4.375,3.685l1.771,10.089
									c0.206,1.172-0.057,2.353-0.74,3.327c-0.683,0.974-1.705,1.623-2.876,1.829l-0.059,0.01l-0.059,0.012l-30.051,6.112
									c-0.243,0.04-0.489,0.06-0.731,0.06c-2.161,0-4.001-1.55-4.376-3.685l-1.771-10.089c-0.206-1.172,0.057-2.353,0.74-3.327
									c0.683-0.974,1.705-1.624,2.876-1.829l0.059-0.01l0.059-0.012l30.051-6.112C400.943,56.557,401.189,56.537,401.432,56.537
									 M401.431,52.083c-0.511,0-1.03,0.044-1.55,0.136l-30.119,6.126c-4.845,0.85-8.084,5.468-7.233,10.313l1.771,10.089
									c0.759,4.325,4.518,7.369,8.763,7.369c0.511,0,1.03-0.044,1.551-0.136l30.119-6.126c4.845-0.851,8.084-5.468,7.233-10.313
									l-1.771-10.089C409.435,55.128,405.676,52.083,401.431,52.083L401.431,52.083z"/>
							</g>
						</g>
					</g>
				</g>
			</g>
			<g>
				<g>
					<g>
						<path style="fill:#352C38;" d="M402.813,436.346l1.191,26.262c0,0,69.38,19.66,14.466-7.279l-0.514-35.323L402.813,436.346z"
							/>
						<path style="opacity:0.3;fill:#161826;" d="M409.057,455.574c-1.754-0.007-3.421-0.054-5.389-0.391l-0.854-18.837
							l15.143-16.34l0.495,34.036C415.42,455.182,412.277,455.588,409.057,455.574z"/>
						<g>
							<path style="fill:#FFFFFF;" d="M439.101,467.408c6.37,7.123-35.154-4.518-35.154-4.518l-0.065-1.515
								C407.192,462.297,437.136,470.529,439.101,467.408z"/>
						</g>
						<path style="fill:none;stroke:#FFFFFF;stroke-width:0.9855;stroke-linecap:round;stroke-miterlimit:10;" d="M419.543,455.218
							c0,0-3.476-0.078-5.023,2.117"/>
						<path style="fill:none;stroke:#FFFFFF;stroke-width:0.9855;stroke-linecap:round;stroke-miterlimit:10;" d="M422.342,456.882
							c0,0-3.476-0.078-5.023,2.117"/>
						<path style="fill:none;stroke:#FFFFFF;stroke-width:0.9855;stroke-linecap:round;stroke-miterlimit:10;" d="M425.487,458.624
							c0,0-3.476-0.078-5.023,2.117"/>
					</g>
					<g>
						<path style="fill:#352C38;" d="M358.968,435.35l-2.641,26.161c0,0-70.366,15.969-14.043-8.032l2.466-35.244L358.968,435.35z"
							/>
						<path style="opacity:0.3;fill:#161826;" d="M351.671,454.221c1.752,0.085,3.419,0.126,5.403-0.106l1.894-18.765
							l-14.218-17.115l-2.376,33.96C345.339,453.494,348.455,454.065,351.671,454.221z"/>
						<g>
							<path style="fill:#FFFFFF;" d="M321.016,464.452c-6.754,6.776,35.353-2.656,35.353-2.656l0.148-1.509
								C353.162,461.032,322.806,467.672,321.016,464.452z"/>
						</g>
						<path style="fill:none;stroke:#FFFFFF;stroke-width:0.9855;stroke-linecap:round;stroke-miterlimit:10;" d="M341.22,453.312
							c0,0,3.475,0.105,4.899,2.379"/>
						<path style="fill:none;stroke:#FFFFFF;stroke-width:0.9855;stroke-linecap:round;stroke-miterlimit:10;" d="M338.333,454.826
							c0,0,3.475,0.105,4.899,2.379"/>
						<path style="fill:none;stroke:#FFFFFF;stroke-width:0.9855;stroke-linecap:round;stroke-miterlimit:10;" d="M335.096,456.4
							c0,0,3.475,0.105,4.899,2.379"/>
					</g>
				</g>
				<g>
					<g>
						<path style="fill:#6F96BD;" d="M415.866,224.896c0,0,10.854,125.408,5.252,226.491c0,0-14.331,4.675-18.741,0.768
							c-3.207-24.09-2.645-70.588-7.49-105.461c-4.562-32.834-9.64-71.664-9.64-71.664l-2.829,0.392
							c0,0-19.847,163.591-22.759,175.517c-14.941,3.396-19.927-3.053-19.927-3.053s5.858-192.339,10.877-224.134
							C357.186,182.096,415.866,224.896,415.866,224.896z"/>
						<path style="opacity:0.1;fill:#352C38;" d="M418.789,266.291c2.741,45.331,5.924,120.221,2.329,185.096
							c0,0-14.331,4.675-18.741,0.768c-3.207-24.09-2.645-70.588-7.49-105.461c-4.265-30.695-8.98-66.625-9.577-71.178
							C397.009,274.117,408.365,271.369,418.789,266.291z"/>
					</g>
					<g>
						<path style="fill:#352C38;" d="M404.207,217.458c6.925,3.988,11.658,7.439,11.658,7.439s0.642,7.424,1.532,20.088
							c-2.793,0.822-6.716,1.878-11.464,2.902C405.442,237.739,404.907,227.594,404.207,217.458z"/>
						<path style="fill:#352C38;" d="M367.783,205.625c9.285-0.745,20.624,3.581,29.961,8.328
							c0.853,11.704,1.463,23.422,2.029,35.143c-9.514,1.687-21.242,2.92-33.51,2.222
							C366.692,236.085,367.324,220.856,367.783,205.625z"/>
						<path style="fill:#352C38;" d="M360.046,250.79c-3.927-0.441-7.879-1.087-11.805-2.014
							c0.793-11.317,1.591-20.097,2.368-25.022c1.462-9.259,5.503-14.335,10.895-16.646
							C361.053,221.668,360.459,236.227,360.046,250.79z"/>
					</g>
				</g>
			</g>
			<g>
				<g>
					<g>
						<g>
							<path style="fill:#5D8584;" d="M353.55,122.997c0,0,8.456,13.664,24.26,13.264c13.403-0.34,18.906-13.211,18.906-13.211
								s15.518-10.741,18.819-3.351c3.301,7.391-2.891,30.231-2.891,30.231s9.167,76.283,8.772,94.497c0,0-49.004,6.851-75.25,0.775
								c0,0-3.386-84.194-10.912-115.092L353.55,122.997z"/>
						</g>
						<path style="opacity:0.7;fill:#4E7B7C;" d="M339.804,158.268c4.355,37.063,6.361,86.933,6.361,86.933
							c26.246,6.076,75.25-0.775,75.25-0.775c0.158-7.304-1.221-23.948-2.931-41.264
							C389.077,195.634,361.018,180.631,339.804,158.268z"/>
					</g>
					<path style="fill:#4E7B7C;" d="M427.152,114.989c-9.924-0.438-17.195,1.273-22.139,3.229c2.367,8.352,6.22,22.703,8.38,34.78
						l13.131-1.271C429.35,139.01,427.152,114.989,427.152,114.989z"/>
				</g>
				<g>
					<g>
						<path style="fill:#FFAC9D;" d="M322.482,141.563c0,0-29.452,46.769-26.596,54.758c2.856,7.989,41.349,43.67,47.085,43.342
							c5.736-0.329,5.803-7.526,5.803-7.526s23.958,16.372,0.792-2.923c0,0,31.128,15.961,1.16-4.862c0,0,29.064,5.049-1.148-3.291
							c0,0,22.384-2.721-2.978-1.748l-3.413,7.389l-24.807-31.19l30.819-39.653L322.482,141.563z"/>
						<path style="fill:#DD938A;" d="M326.168,185.49l23.03-29.632l-26.717-14.295c0,0-9.169,14.561-16.779,28.821
							C311.502,176.682,318.563,181.501,326.168,185.49z"/>
					</g>
					<path style="fill:#5D8584;" d="M353.55,122.997c0,0-20.335,5.002-25.825,9.633c-5.49,4.631-21.465,27.128-21.465,27.128
						s18.249,17.178,30.05,22.257l18.817-23.139L353.55,122.997z"/>
				</g>
			</g>
		</g>
	</g>
	<g>
		<ellipse style="opacity:0.1;fill:#352C38;" cx="185.814" cy="464.54" rx="83.184" ry="14.594"/>
		<g>
			<g>
				<polygon style="fill:#76413B;" points="136.262,109.545 153.571,88.99 164.39,108.463 146.359,117.839 				"/>
				<g>
					<path style="fill:#FFA65B;" d="M138.148,104.321l13.475,10.876l-34.598,46.705c0,0-16.412,9.354-11.703,4.383
						c8.59-9.068,49.252-32.147,65.472-17.27c10.469,9.603-6.682,22.09-15.628,27.397c-8.946,5.306-55.229,12.313-63.705,0.421
						C77.597,157.381,138.148,104.321,138.148,104.321z"/>
					<path style="opacity:0.2;fill:#352C38;" d="M147.112,175.665c-2.683-4.394-5.676-9.061-6.911-14.115
						c-1.161-4.749-1.278-9.486-1.049-14.269c-5.779,1.895-11.502,4.458-16.618,7.185l29.089-39.268l-13.475-10.876
						c0,0-60.551,53.059-46.687,72.512c7.237,10.154,42.019,6.529,57.606,1.95C148.386,177.732,147.735,176.686,147.112,175.665z"/>
				</g>
			</g>
			<g>
				<g>
					<g>
						<g>
							<path style="fill:#FFA65B;" d="M176.473,380.397c0,0,0.171,44.061-2.563,76.17c0,0-57.187,24.754-14.785-2.506
								c0,0-7.162-27.813-13.482-79.028C139.623,326.255,176.473,380.397,176.473,380.397z"/>
							<path style="opacity:0.2;fill:#251D28;" d="M155.135,435.703c-2.624-13.349-6.173-33.778-9.492-60.67
								c-6.02-48.777,30.83,5.365,30.83,5.365s0.109,28.487-1.269,56.343C168.499,437.068,161.751,436.75,155.135,435.703z"/>
						</g>
						<g>
							<g>
								<path style="fill:#FFFFFF;" d="M144.012,465.217c0.462,2.931,26.278-8.019,29.975-9.603
									c-0.026,0.316-0.051,0.638-0.078,0.952C173.91,456.566,138.776,471.774,144.012,465.217z"/>
							</g>
						</g>
					</g>
					<g>
						<g>
							<path style="fill:#FFA65B;" d="M232.006,382.56c0,0,0.171,44.061-2.563,76.17c0,0-57.187,24.754-14.785-2.506
								c0,0-7.162-27.814-13.482-79.028C195.157,328.419,232.006,382.56,232.006,382.56z"/>
							<path style="opacity:0.2;fill:#251D28;" d="M210.669,437.866c-2.624-13.349-6.173-33.778-9.492-60.67
								c-6.02-48.777,30.829,5.365,30.829,5.365s0.109,28.488-1.268,56.343C224.033,439.231,217.285,438.913,210.669,437.866z"/>
						</g>
						<g>
							<g>
								<path style="fill:#FFFFFF;" d="M199.546,467.381c0.462,2.931,26.278-8.019,29.975-9.603
									c-0.026,0.316-0.051,0.638-0.077,0.952C229.444,458.73,194.31,473.937,199.546,467.381z"/>
							</g>
						</g>
					</g>
				</g>
				<g>
					<g>
						<g>
							<path style="fill:#5D8584;" d="M145.329,224.98c0,0-21.269,80.692-1.614,200.132c0,0,23.114,9.507,42.54,6.021l-4.268-124.81
								l19.582,121.779c0,0,20.83,7.679,45.684-0.904c0,0,1.88-159.346-42.836-205.505
								C204.417,221.695,176.357,224.786,145.329,224.98z"/>
							<g>
								<path style="opacity:0.7;fill:#4E7B7C;" d="M208.695,229.146c-0.69-1.796-1.391-3.566-2.114-5.287
									c0,0-30.224,0.928-61.252,1.122c0,0-0.848,3.22-2.046,9.309C177.096,232.932,196.283,230.805,208.695,229.146z"/>
								<path style="opacity:0.7;fill:#4E7B7C;" d="M139.507,254.871c-3.099,35.232-10.818,101.692,4.208,170.242
									c0,0,23.114,9.507,42.54,6.021l-4.248-138.759C163.308,286.605,147.441,273.623,139.507,254.871z"/>
							</g>
						</g>
						<g>
							<g>
								<g>
									<path style="fill:none;stroke:#395959;stroke-width:1.1701;stroke-miterlimit:10;" d="M202.975,225.301
										c0,0,1.075,2.172,2.854,6.41"/>
									<path style="fill:none;stroke:#395959;stroke-width:1.1701;stroke-miterlimit:10;stroke-dasharray:14.798,14.798;" d="
										M211.155,245.514c10.188,28.5,26.414,86.211,27.651,167.193"/>
									<path style="fill:none;stroke:#395959;stroke-width:1.1701;stroke-miterlimit:10;" d="M238.877,420.11
										c0.009,2.322,0.005,4.662-0.011,7.021"/>
								</g>
							</g>
							<g>
								<g>
									<path style="fill:none;stroke:#395959;stroke-width:1.1701;stroke-miterlimit:10;" d="M173.301,303.319
										c0,0-0.053,2.555-0.113,7.017"/>
									<path style="fill:none;stroke:#395959;stroke-width:1.1701;stroke-miterlimit:10;stroke-dasharray:15.0728,15.0728;" d="
										M173.051,325.405c-0.111,21.362,0.061,54.568,1.71,82.877"/>
									<path style="fill:none;stroke:#395959;stroke-width:1.1701;stroke-miterlimit:10;" d="M175.245,415.818
										c0.168,2.382,0.348,4.714,0.541,6.987"/>
								</g>
							</g>
						</g>
					</g>
					<g>
						<path style="fill:#76A5A2;" d="M198.901,429.19c0,0,24.914,8.1,49.777-0.775l0.962-11.969l-52.692,0.391L198.901,429.19z"/>
						<path style="fill:#76A5A2;" d="M189.035,417.173l0.728,14.071c0,0-26.854,7.057-49.329-4.186c0,0-1.752-9.42-0.583-9.384
							C141.021,417.711,178.144,419.172,189.035,417.173z"/>
					</g>
				</g>
			</g>
			<g>
				<g>
					<g>
						<polygon style="fill:#76413B;" points="173.225,134.968 171.602,151.195 194.32,147.409 197.566,125.772 						"/>
						<g>
							<path style="fill:#965450;" d="M210.711,88.913c0,0-7.965-18.97-29-15.426c-26.339,4.438-30.871,54.479-13.124,63.215
								C186.335,145.438,219.078,124.656,210.711,88.913z"/>
							<path style="fill:#FDDEC0;" d="M220.856,80.238c-4.366-11.116-10.697-10.946-13.38-10.28
								c-1.962,2.972-4.014,5.89-5.521,9.129c-1.126,2.421-2.192,4.841-3.555,7.071c-4.344,13.262,3.608,13.676,3.608,13.676
								c-5.921,10.48-3.361,12.236-3.361,12.236s4.101-0.239,6.785-6.672c3.247-7.782,10.234-2.514,6.801,5.398
								c-4.387,10.111-8.707,5.623-8.707,5.623c-2.476,8.971-6.831,15.151-6.831,15.151
								C213.148,126.001,226.525,94.674,220.856,80.238z"/>
							<path style="fill:#FDDEC0;" d="M201.172,86.105c0,0-27.406,14.064-47.601-12.982l9.736,2.885c0,0-10.818-6.491-7.212-16.949
								l5.77,3.967c0,0-2.524-8.294,5.049-13.703c0,0-2.164,9.376,8.294,10.458c10.458,1.082,33.176-2.164,34.619,14.064
								C211.269,90.072,201.172,86.105,201.172,86.105z"/>
						</g>
					</g>
					<g>
						<g>
							<path style="fill:#FFFFFF;" d="M182.749,121.45c0,0-9.311,7.736-16.006-0.391"/>
							<g>
								<path style="fill:#76413B;" d="M169.751,116.895c-0.774-0.563-1.495-1.175-2.194-1.807c-0.748-0.552-1.46-1.119-2.153-1.702
									l-0.557-0.469l0.593-0.495c0.305-0.254,0.627-0.481,0.939-0.722c0.301-0.256,0.592-0.522,0.902-0.766l0.869-0.804
									c0.27-0.287,0.557-0.559,0.837-0.84c0.256-0.3,0.527-0.591,0.801-0.881c0.246-0.311,0.5-0.618,0.766-0.922
									c0.233-0.324,0.482-0.642,0.734-0.965c0.226-0.335,0.463-0.671,0.717-1.006c-0.095,0.403-0.206,0.807-0.331,1.209
									c-0.156,0.385-0.312,0.776-0.489,1.159c-0.194,0.371-0.398,0.74-0.614,1.103c-0.234,0.349-0.471,0.699-0.723,1.038
									c-0.271,0.322-0.535,0.653-0.816,0.969l-0.903,0.889c-0.633,0.56-1.308,1.071-2.018,1.529l0.037-0.963
									c0.696,0.679,1.372,1.374,2.011,2.084C168.723,115.293,169.264,116.069,169.751,116.895z"/>
							</g>
							<g>
								<path style="fill:#352C38;" d="M173.183,98.344c0,0-0.205-0.165-0.564-0.454c-0.338-0.28-0.822-0.68-1.402-1.161
									c-1.144-0.91-2.605-2.131-4.108-2.733c-0.371-0.151-0.745-0.271-1.113-0.334c-0.37-0.076-0.734-0.09-1.102-0.086
									c-0.732,0.033-1.459,0.244-2.117,0.483c-0.307,0.155-0.63,0.256-0.891,0.401c-0.261,0.141-0.52,0.24-0.71,0.354
									c-0.393,0.213-0.649,0.324-0.649,0.324s0.087-0.252,0.294-0.674c0.208-0.419,0.563-0.995,1.144-1.593
									c0.304-0.285,0.644-0.601,1.078-0.856c0.424-0.265,0.929-0.482,1.484-0.631c0.556-0.128,1.167-0.204,1.771-0.134
									c0.611,0.037,1.201,0.215,1.756,0.426c1.104,0.458,2.014,1.166,2.712,1.914c0.707,0.746,1.218,1.536,1.573,2.248
									C173.071,97.255,173.183,98.344,173.183,98.344z"/>
							</g>
							<g>
								<path style="fill:#352C38;" d="M178.226,99.87c0,0,0.089-0.316,0.336-0.827c0.247-0.51,0.649-1.221,1.273-1.981
									c0.62-0.762,1.457-1.593,2.567-2.256c0.546-0.341,1.17-0.625,1.838-0.837c0.665-0.228,1.395-0.321,2.123-0.356
									c0.731,0.007,1.469,0.083,2.152,0.298c0.69,0.191,1.313,0.505,1.877,0.839c0.268,0.187,0.536,0.362,0.783,0.551
									c0.23,0.203,0.455,0.402,0.674,0.596c0.402,0.416,0.77,0.816,1.047,1.225c0.305,0.387,0.536,0.773,0.721,1.124
									c0.203,0.337,0.346,0.651,0.452,0.915c0.221,0.522,0.317,0.83,0.317,0.83s-0.278-0.184-0.712-0.523
									c-0.435-0.337-1.054-0.811-1.79-1.316c-0.358-0.267-0.781-0.493-1.193-0.757c-0.212-0.116-0.43-0.235-0.654-0.357
									c-0.224-0.103-0.454-0.209-0.687-0.316c-0.234-0.086-0.472-0.173-0.713-0.261c-0.247-0.052-0.484-0.15-0.733-0.188
									c-0.492-0.108-0.994-0.149-1.498-0.147c-2.023,0.011-4.086,1.084-5.615,2.009c-0.755,0.48-1.399,0.911-1.849,1.228
									C178.487,99.686,178.226,99.87,178.226,99.87z"/>
							</g>
							<g>
								<path style="fill:#352C38;" d="M162.257,107.113c0,0-0.023-0.942,0.449-2.26c0.232-0.66,0.582-1.419,1.203-2.144
									c0.317-0.354,0.688-0.723,1.204-0.973c0.486-0.288,1.127-0.392,1.737-0.358c0.151,0.012,0.292,0.06,0.438,0.093l0.216,0.057
									l0.107,0.03l0.053,0.015l0.027,0.008l0.088,0.038c0.208,0.104,0.373,0.176,0.605,0.32c0.529,0.348,0.917,0.743,1.169,1.201
									c0.279,0.446,0.398,0.925,0.48,1.358c0.055,0.438,0.051,0.843,0.006,1.204c-0.08,0.723-0.293,1.275-0.461,1.645
									c-0.173,0.37-0.31,0.559-0.31,0.559s-0.006-0.234-0.036-0.624c-0.029-0.389-0.083-0.938-0.209-1.541
									c-0.135-0.601-0.363-1.256-0.771-1.722c-0.183-0.253-0.466-0.421-0.655-0.554c-0.137-0.083-0.386-0.168-0.571-0.261
									l-0.009-0.004l-0.005-0.002c0.03,0.012-0.073-0.031,0.065,0.027l-0.013-0.002l-0.027-0.005l-0.053-0.01l-0.105-0.022
									c-0.069-0.012-0.139-0.044-0.207-0.047c-0.267-0.001-0.533,0.002-0.814,0.142c-0.282,0.102-0.567,0.314-0.839,0.533
									c-0.545,0.456-1.018,1.028-1.424,1.524C162.803,106.354,162.257,107.113,162.257,107.113z"/>
							</g>
							<g>
								<path style="fill:#352C38;" d="M180.493,111.16c0,0-0.023-0.942,0.449-2.26c0.232-0.66,0.582-1.419,1.203-2.144
									c0.317-0.354,0.688-0.723,1.204-0.973c0.486-0.288,1.127-0.392,1.737-0.358c0.151,0.012,0.292,0.061,0.438,0.093
									l0.216,0.057l0.107,0.03l0.053,0.015l0.027,0.008l0.088,0.038c0.207,0.104,0.373,0.175,0.605,0.32
									c0.529,0.348,0.917,0.743,1.169,1.201c0.279,0.445,0.398,0.925,0.48,1.358c0.055,0.438,0.051,0.844,0.006,1.204
									c-0.08,0.723-0.293,1.275-0.461,1.645c-0.173,0.37-0.31,0.559-0.31,0.559s-0.006-0.234-0.036-0.624
									c-0.029-0.389-0.084-0.938-0.209-1.541c-0.135-0.601-0.364-1.256-0.771-1.722c-0.183-0.253-0.466-0.421-0.655-0.554
									c-0.137-0.083-0.385-0.168-0.57-0.261l-0.009-0.004l-0.005-0.002c0.029,0.013-0.073-0.031,0.065,0.027l-0.013-0.002
									l-0.027-0.005l-0.053-0.01l-0.105-0.022c-0.069-0.012-0.139-0.044-0.207-0.047c-0.267-0.001-0.533,0.002-0.814,0.142
									c-0.282,0.102-0.567,0.314-0.839,0.533c-0.545,0.456-1.018,1.028-1.424,1.524
									C181.039,110.402,180.493,111.16,180.493,111.16z"/>
							</g>
						</g>
						<g>
							<path style="fill:#965450;" d="M201.949,114.317c0,0,2.571-14.188,9.149-14.36c6.578-0.172,1.087,21.784-8.118,17.275
								C193.775,112.724,201.949,114.317,201.949,114.317z"/>
							<g>
								<path style="fill:#76413B;" d="M206.636,116.07c0.354-0.37,0.669-0.776,0.894-1.206c0.111-0.213,0.206-0.435,0.23-0.65
									c0.032-0.108,0.011-0.21,0.007-0.308c0.01-0.102-0.064-0.182-0.078-0.272c-0.032-0.086-0.114-0.154-0.16-0.233
									c-0.057-0.075-0.161-0.129-0.234-0.195c-0.069-0.07-0.183-0.111-0.281-0.16c-0.104-0.046-0.192-0.103-0.304-0.14
									c-0.228-0.067-0.437-0.158-0.673-0.207l-0.708-0.145l-0.493-0.101l0.113-0.515c0.151-0.687,0.339-1.347,0.532-2.014
									c0.189-0.667,0.423-1.32,0.662-1.973c0.239-0.653,0.506-1.3,0.816-1.931c0.31-0.631,0.635-1.263,1.053-1.856
									c0.432-0.581,0.879-1.19,1.635-1.596c0.372-0.196,0.87-0.301,1.325-0.179c0.267,0.059,0.822,0.232,1.091,0.568
									c0.304,0.313,0.477,0.726,0.517,1.109c0.065,0.387,0.013,0.757-0.046,1.11c-0.138,0.705-0.409,1.355-0.755,1.953
									c0.174-0.666,0.281-1.344,0.294-2c0.003-0.642-0.134-1.312-0.545-1.597l-0.151-0.106c-0.056-0.017-0.108-0.033-0.157-0.055
									c-0.065-0.054-0.282-0.07-0.44-0.099c-0.216-0.028-0.425,0.035-0.643,0.176c-0.441,0.28-0.838,0.81-1.173,1.346
									c-0.682,1.098-1.196,2.345-1.701,3.587c-0.482,1.252-0.943,2.534-1.349,3.813l-0.379-0.616l0.771,0.241
									c0.256,0.082,0.508,0.216,0.759,0.323c0.126,0.055,0.244,0.154,0.364,0.229c0.118,0.084,0.241,0.15,0.344,0.272
									c0.103,0.116,0.22,0.208,0.303,0.344c0.073,0.145,0.169,0.275,0.208,0.432c0.024,0.16,0.087,0.32,0.054,0.476
									c-0.017,0.156-0.028,0.312-0.09,0.445c-0.09,0.282-0.244,0.518-0.415,0.725C207.49,115.481,207.079,115.808,206.636,116.07z
									"/>
							</g>
						</g>
					</g>
				</g>
				<g>
					<g>
						<polygon style="fill:#352C38;" points="223.319,95.285 205.093,93.875 204.112,102.616 220.416,105.068 						"/>
						<path style="fill:#352C38;" d="M205.886,65.175c0,0-17.755,6.754-21.515,22.722l-9.74-3.521c0,0,4.969-19.574,20.114-23.541
							C194.745,60.836,200.905,59.593,205.886,65.175"/>
					</g>
					<g>
						<path style="fill:#352C38;" d="M146.389,98.79c-0.581,5.942,3.764,11.23,9.705,11.811l38.419,4.674
							c5.942,0.582,11.23-3.764,11.811-9.705l1.211-12.372c0.581-5.942-3.764-11.23-9.706-11.811l-38.418-4.674
							c-5.942-0.582-11.23,3.764-11.811,9.705L146.389,98.79z"/>
						<path style="fill:#765E69;" d="M146.111,96.598c-0.528,5.391,3.415,10.189,8.806,10.716l33.581,4.2
							c5.391,0.527,10.189-3.415,10.716-8.806l1.098-11.225c0.528-5.391-3.415-10.189-8.805-10.716l-33.581-4.2
							c-5.391-0.528-10.189,3.415-10.716,8.806L146.111,96.598z"/>
						<g style="opacity:0.5;">
							<path style="fill:#352C38;" d="M156.959,81.424c0.144,0,0.29,0.006,0.435,0.019l33.504,4.191l0.066,0.008l0.066,0.006
								c1.304,0.128,2.479,0.755,3.311,1.767c0.832,1.012,1.219,2.287,1.092,3.591l-1.099,11.225
								c-0.247,2.524-2.34,4.427-4.869,4.427c-0.144,0-0.29-0.006-0.435-0.019l-33.504-4.191l-0.065-0.008l-0.066-0.007
								c-2.691-0.263-4.666-2.667-4.403-5.358l1.099-11.225C152.337,83.327,154.43,81.424,156.959,81.424 M156.959,76.52
								c-4.986,0-9.253,3.787-9.749,8.853l-1.098,11.225c-0.528,5.391,3.415,10.189,8.806,10.716l33.581,4.2
								c0.324,0.032,0.648,0.047,0.967,0.047c4.987,0,9.253-3.787,9.749-8.853l1.099-11.225c0.528-5.391-3.415-10.189-8.806-10.716
								l-33.581-4.2C157.601,76.536,157.279,76.52,156.959,76.52L156.959,76.52z"/>
						</g>
					</g>
				</g>
			</g>
			<g>
				<g>
					<g>
						<path style="fill:#FFA65B;" d="M141.671,224.58c0,0,30.291,6.491,71.401-1.442c0,0,23.079-67.074,2.885-72.122
							c-20.194-5.049-53.619-7.146-63.467,6.491c-9.376,12.982-26.685,30.291-7.212,46.158L141.671,224.58z"/>
						<polygon style="fill:#FFA65B;" points="165.111,154.441 168.356,152.818 168.897,142 203.516,138.754 201.352,150.655 						
							"/>
					</g>
					<path style="opacity:0.2;fill:#352C38;" d="M176.672,197.068c-10.717,1.62-23.481,2.649-33.966-0.881
						c-1.76-0.592-3.48-1.348-5.089-2.281c1.298,3.28,3.721,6.549,7.66,9.758l-3.606,20.915c0,0,30.291,6.491,71.401-1.442
						c0,0,8.478-24.665,10.653-45.208C209.365,187.235,193.548,194.517,176.672,197.068z"/>
				</g>
				<g>
					<path style="fill:#A85D5B;" d="M184.944,127.215c0,0,10.097-47.601,6.491-16.588c0,0,9.376-33.897,3.606,0
						c0,0,10.097-30.652,3.606,1.442c0,0,8.655-24.521,2.885,1.803l-6.279,20.221L184.944,127.215z"/>
					<path style="fill:#FFB65F;" d="M183.863,124.33l16.949,3.967l-9.737,59.861c0,0-8.225,14.452-6.13,7.933
						c3.821-11.892,22.627-48.803,31.012-45.076c12.982,5.77,11.54,23.8,5.77,32.455c-5.77,8.655-31.929,35.182-44.716,28.128
						C156.096,200.058,183.863,124.33,183.863,124.33z"/>
				</g>
			</g>
		</g>
	</g>
</g>
</svg>
