<?xml version="1.0" encoding="utf-8"?>
<!-- Generator: Adobe Illustrator 27.5.0, SVG Export Plug-In . SVG Version: 6.00 Build 0)  -->
<svg version="1.1" xmlns="http://www.w3.org/2000/svg" xmlns:xlink="http://www.w3.org/1999/xlink" x="0px" y="0px"
	 viewBox="0 0 500 500" style="enable-background:new 0 0 500 500;" xml:space="preserve">
<g id="BACKGROUND">
	<g>
		<g>
			<g>
				<rect style="fill:#355C7D;" width="500" height="500"/>
				<polygon style="fill:#C06C84;" points="0,281.742 500,279.055 500,376.667 0,399.055 				"/>
			</g>
			<path style="opacity:0.4;fill:#0C273A;" d="M0,0v500h500V0H0z M436.587,332.469c-17.397,18.231-40.137,30.82-62.893,41.095
				c-6.434,2.905-12.928,5.673-19.445,8.387c-2.513,1.046-5.029,2.085-7.549,3.114c-1.218,0.497-2.437,0.994-3.656,1.49
				c-0.133,0.054-4.063,1.67-1.557,0.609c-14.704,6.226-29.531,12.136-44.669,17.234c-28.535,9.609-57.799,16.788-87.635,20.915
				c-28.744,3.976-58.37,6.551-87.201,1.986c-25.596-4.053-48.77-16.42-65.58-36.283c-2.037-2.407,21.584-19.087,20.96-21.96
				c-10.135-13.598-49-8-46-41c2.439-26.827-15.041-44.234-13.687-71.211c1.23-24.531,8.644-47.166,21.437-68.127
				c12.503-20.487,28.364-38.912,39.384-60.308c1.373-2.666,2.699-5.359,3.907-8.104c0.038-0.148,1.005-2.527,1.068-2.696
				c0.508-1.372,1.017-2.744,1.472-4.134c1.821-5.566,2.994-11.313,4.854-16.865c3.849-11.485,9.024-22.775,16.276-32.534
				c14.75-19.85,34.058-34.181,57.075-43.164c51.924-20.264,111.072-7.618,163.27,4.86c13.53,3.235,27.393,6.01,40.698,10.082
				c11.572,3.541,22.627,8.787,31.652,16.98c19.332,17.548,22.716,43.188,22.762,67.929c0.005,2.934-0.003,5.876,0.173,8.805
				c0.073,1.208,0.142,2.419,0.276,3.622c0.039,0.172,0.085,0.386,0.141,0.655c0.397,1.908,0.863,3.814,1.503,5.659
				c0.212,0.407,0.909,1.948,1.09,2.266c0.676,1.179,1.356,2.36,2.146,3.468c0.112,0.156,0.208,0.29,0.298,0.415
				c0.653,0.774,1.326,1.531,2.023,2.267c1.112,1.143,2.227,2.286,3.261,3.5c2.527,2.965,4.994,6.028,7.192,9.246
				c3.963,5.8,6.96,11.956,9.661,18.427c5.386,12.903,7.896,26.551,9.629,40.362c1.58,12.584,2.767,25.427,2.735,38.12
				C461.589,285.014,456.063,312.06,436.587,332.469z"/>
		</g>
		<g>
			<defs>
				<rect id="SVGID_1_" width="500" height="500"/>
			</defs>
			<clipPath id="SVGID_00000096749087724972874260000005351042702884133307_">
				<use xlink:href="#SVGID_1_"  style="overflow:visible;"/>
			</clipPath>
			<g style="clip-path:url(#SVGID_00000096749087724972874260000005351042702884133307_);">
				<g style="opacity:0.5;">
					<polygon style="opacity:0.4;fill:#E1ECF4;" points="78.866,39.228 125.065,39.712 124.232,77.961 77.617,77.477 					"/>
					<polygon style="opacity:0.4;fill:none;stroke:#E1ECF4;stroke-width:11.297;stroke-miterlimit:10;" points="59.311,19.055 
						146.302,20.013 144.735,95.713 56.96,94.755 					"/>
				</g>
				<g style="opacity:0.5;">
					<polygon style="opacity:0.4;fill:#E1ECF4;" points="-7.971,156.797 26.932,157.163 26.303,186.06 -8.915,185.694 					"/>
					<polygon style="opacity:0.4;fill:none;stroke:#E1ECF4;stroke-width:6.7723;stroke-miterlimit:10;" points="-22.745,141.556 
						42.977,142.28 41.793,199.472 -24.522,198.748 					"/>
				</g>
				<g style="opacity:0.5;">
					<polygon style="opacity:0.4;fill:#E1ECF4;" points="373.262,64.105 414.493,64.537 413.75,98.673 372.148,98.241 					"/>
					<polygon style="opacity:0.4;fill:none;stroke:#E1ECF4;stroke-width:8;stroke-miterlimit:10;" points="355.81,46.101 
						433.447,46.956 432.048,114.516 353.712,113.661 					"/>
				</g>
			</g>
		</g>
	</g>
</g>
<g id="OBJECTS">
	<g>
		<g>
			<g>
				<path style="fill:#BA7563;" d="M410.358,277.26c0,1.545-2.015,2.797-4.5,2.797l0,0c-2.485,0-4.5-1.252-4.5-2.797v-5.905
					c0-1.545,2.015-2.797,4.5-2.797l0,0c2.485,0,4.5,1.252,4.5,2.797V277.26z"/>
				<path style="fill:#BA7563;" d="M473.358,277.26c0,1.545-2.015,2.797-4.5,2.797l0,0c-2.485,0-4.5-1.252-4.5-2.797v-5.905
					c0-1.545,2.015-2.797,4.5-2.797l0,0c2.485,0,4.5,1.252,4.5,2.797V277.26z"/>
			</g>
			<path style="fill:#0C273A;stroke:#FFAE92;stroke-width:4.6829;stroke-miterlimit:10;" d="M490.36,267.13
				c0,1.616-1.31,2.927-2.927,2.927h-90.146c-1.616,0-2.927-1.31-2.927-2.927v-35.122c0-1.616,1.31-2.927,2.927-2.927h90.146
				c1.616,0,2.927,1.31,2.927,2.927V267.13z"/>
		</g>
		<rect x="402.004" y="241.056" style="fill:none;" width="87.355" height="27.075"/>
		
			<text transform="matrix(1 0 0 1 402.0053 257.3857)" style="fill:#FFFFFF; font-family:'Rubik-Bold'; font-size:23px; letter-spacing:1;">03:27</text>
	</g>
	<g>
		<g>
			<g>
				<g>
					<path style="fill:#C6D9E5;" d="M162.327,216.8c0,0-99.223,9.647-100.601,24.806s7.58,124.029,28.251,134.365
						c20.671,10.336,158.482-31.696,155.036-47.544C241.568,312.578,162.327,216.8,162.327,216.8z"/>
					<path style="fill:#AEC7D3;" d="M245.013,328.426c-3.445-15.848-82.686-111.626-82.686-111.626s-41.119,3.999-70.785,10.892
						c-0.391,11.854-1.402,23.693-1.311,35.555c0.105,13.74,1.147,29.684,8.309,41.822c11.201,18.985,34.767,24.418,55.227,26.945
						c0.493-0.255,0.991-0.494,1.482-0.753c3.534-1.864,6.668,3.489,3.13,5.355c-0.047,0.025-0.095,0.047-0.142,0.072
						c-0.344,1.093-1.271,1.909-2.801,1.729c-0.161-0.019-0.324-0.039-0.485-0.059c-23.43,11.831-48.507,19.302-73.592,26.735
						c2.606,5.449,5.475,9.306,8.617,10.877C110.648,386.307,248.458,344.275,245.013,328.426z"/>
				</g>
				<g>
					<path style="fill:#C6D9E5;" d="M310.674,220.934c0,0,59.258-15.159,80.619-6.89c21.361,8.269,22.739,92.333,1.378,121.962
						c-21.361,29.629-139.877-26.184-139.877-26.184L310.674,220.934z"/>
					<path style="fill:#AEC7D3;" d="M383.739,323.332c-18.79-1.421-38.439,1.409-56.663-4.318c-3.238-1.017-2.788-6.277,0.824-6.091
						c20.174,1.042,46.147-5.873,55.319-25.902c5.576-12.177,5.834-26.556,5.454-39.701c-0.333-11.525-1.378-23.022-1.734-34.544
						c-24.079-5.19-76.265,8.159-76.265,8.159l-57.88,88.887c0,0,118.517,55.813,139.877,26.184
						c2.285-3.169,4.307-6.965,6.075-11.221C393.753,324.219,388.753,323.711,383.739,323.332z"/>
				</g>
			</g>
			<g>
				<path style="fill:#E1ECF4;" d="M203.67,136.181c-4.823,0-93.022-0.689-97.845,29.629c-4.823,30.318-13.781,130.92,8.269,142.633
					c22.05,11.714,51.679-10.336,121.962,0.689s142.634-10.336,144.701-42.032c2.067-31.696,11.714-104.736-10.336-124.029
					C348.371,123.778,203.67,136.181,203.67,136.181z"/>
				<path style="fill:#C6D9E5;" d="M160.662,177.592c0.394,7.883,1.939,15.922,6.39,22.6c5.235,7.853,12.645,11.971,20.547,16.666
					c7.894,4.69,14.211,10.668,17.463,19.424c3.363,9.056,2.963,21.195,9.762,28.663c6.618,7.271,18.243,9.707,27.467,11.567
					c12.985,2.618,27.992,3.585,37.95-6.926c10.435-11.015,7.625-24.064,8.88-37.831c1.093-11.994,6.142-22.508,14.251-31.359
					c4.204-4.589,8.817-8.744,13.354-12.995c4.677-4.382,9.875-8.819,12.447-14.846c5.84-13.688-1.268-28.268-9.867-39.005
					c-0.201-0.251-0.342-0.512-0.458-0.776c-49.591-2.214-115.178,3.407-115.178,3.407c-2.122,0-20.388-0.132-40.59,2.301
					C162.261,151.527,160.008,164.526,160.662,177.592z"/>
			</g>
		</g>
		<g>
			<g>
				<g>
					<path style="fill:#FFAE92;" d="M228.476,216.111c0,0,6.89,29.629-7.58,28.94c-14.47-0.689-46.855-9.647-51.679,18.604
						c-4.823,28.251,29.629,63.393,29.629,63.393l108.87-5.512c0,0,32.746-60.062,17.915-73.039
						c-22.05-19.293-56.502,12.403-59.258-17.226c-2.756-29.629,1.378-35.831,1.378-35.831L228.476,216.111z"/>
					<path style="fill:#EF937B;" d="M228.789,239.424c13.948,0.857,27.966-1.47,37.426-9.956
						c-2.423-28.066,1.537-34.028,1.537-34.028l-39.276,20.671C228.476,216.111,231.932,231.001,228.789,239.424z"/>
				</g>
				<path style="fill:#C06C84;" d="M190.578,242.295c0,0,9.322,49.826,62.014,46.166c49.612-3.445,49.612-47.544,49.612-47.544
					s24.156-8.862,41.823,30.138c0,0-11.504,21.541-23.218,29.12l-8.269,26.873l-118.517,0.689l-8.958-18.604
					c0,0-32.059-12.409-41.706-22.745C143.36,286.388,156.815,237.472,190.578,242.295z"/>
			</g>
			<g>
				<g>
					<path style="fill:#FFFFFF;" d="M0,380.055c0,0,67.36,0,135.581-37.158c55.872-30.433,69.75-31.007,129.416-31.696
						c59.666-0.689,135,31.696,235.003,28.94V500H0V380.055z"/>
					<path style="fill:#E1ECF4;" d="M500,453.715c-39.05,10.88-81.99-25.911-104.64-23.66c-27.732,2.756-58,50-121.96,55.475
						c-129.826,11.113-63.04-52.475-128.04-85.475c-24.352-12.363-51.578,16.53-102,31C26.139,435.997,9.661,420.142,0,415.722V500
						h500L500,453.715z"/>
				</g>
				<g>
					<g>
						<g>
							<path style="fill:#EF937B;" d="M379.027,378.722c-1.521-12.673-11-63.667-37.667-103.667
								c-4.101,6.482-13.524,20.573-20.551,25.12l-5.782,15.546l25.667,62C340.693,377.722,381.094,395.948,379.027,378.722z"/>
							<path style="fill:#E58370;" d="M335.954,303.661c0.841-1.003,1.675-2.011,2.49-3.035c0.016-0.033,0.325-0.45,0.95-1.279
								c1.543-2.144,3.061-4.308,4.473-6.541c1.438-2.276,2.809-4.585,4.117-6.928c-2.078-3.688-4.283-7.309-6.625-10.822
								c-4.101,6.482-13.524,20.573-20.551,25.12l-5.782,15.546l2.328,5.624C323.613,316.615,330.168,310.566,335.954,303.661z"/>
						</g>
						<g>
							<path style="fill:#EF937B;" d="M185.066,309.133c0,0-15.848-5.512-34.452-16.537c-7.191,17.207-34.691,87.595-19.293,99.912
								l35.831-15.848l23.428-58.569L185.066,309.133z"/>
							<path style="fill:#E58370;" d="M181.157,313.601c2.447,0.458,4.905,0.834,7.368,1.155l-3.46-5.622
								c0,0-15.848-5.512-34.452-16.537c-0.777,1.858-1.791,4.339-2.961,7.297C157.759,306.61,168.965,311.318,181.157,313.601z"/>
						</g>
					</g>
					<g>
						<path style="fill:#FFAE92;" d="M127.185,383.55c0,0,63.393-53.746,85.442-62.704c22.05-8.958,87.509,2.756,35.142,1.378
							c0,0,73.039,6.891-2.756,6.201c0,0,60.637,1.378-2.067,4.823c0,0,63.393,1.378-0.689,4.823l-18.604-0.689
							c0,0-55.124,75.796-76.485,73.728C125.807,409.045,127.185,383.55,127.185,383.55z"/>
						<path style="fill:#F9B7A5;" d="M379.153,379.696c0,0-70.039-44.742-93.092-50.656c-23.053-5.914-86.346,14.488-34.638,6.087
							c0,0-71.451,16.641,3.564,5.775c0,0-59.902,9.512,2.696,4.502c0,0-62.633,9.882,1.331,4.687l18.343-3.182
							c0,0,64.807,67.703,85.697,62.785C383.944,404.774,379.153,379.696,379.153,379.696z"/>
					</g>
				</g>
			</g>
			<g>
				<g>
					<g>
						<g>
							<g>
								<g>
									<path style="fill:#EF937B;" d="M280.88,163.542c0,0,5.207-12.074,13.87-6.031c8.662,6.043-0.815,38.6-13.748,32.639
										C268.068,184.189,280.88,163.542,280.88,163.542z"/>
									<g>
										<path style="fill:#C95F4B;" d="M296.068,166.053c-0.315-1.172-0.759-2.351-1.461-3.208c-0.355-0.42-0.787-0.683-1.208-0.7
											c-0.211-0.025-0.434,0.052-0.653,0.109c-0.202,0.121-0.491,0.214-0.615,0.356c-0.148,0.097-0.197,0.18-0.246,0.248
											c-0.052,0.054-0.126,0.164-0.197,0.274c-0.147,0.201-0.267,0.461-0.391,0.702c-0.24,0.503-0.428,1.052-0.622,1.6
											c-0.382,1.103-0.658,2.266-0.936,3.427c-0.28,1.162-0.524,2.339-0.744,3.523c-0.242,1.18-0.464,2.366-0.668,3.557
											l-0.629,3.575l-0.609,3.581l-0.36-0.665c0.315,0.19,0.56,0.384,0.822,0.601c0.252,0.221,0.499,0.45,0.715,0.727
											c0.22,0.264,0.42,0.576,0.541,0.939c0.079,0.167,0.083,0.382,0.11,0.572c0.021,0.194-0.042,0.397-0.069,0.587
											c-0.063,0.181-0.161,0.346-0.245,0.51c-0.104,0.146-0.232,0.267-0.347,0.396c-0.109,0.14-0.263,0.207-0.394,0.306
											c-0.139,0.086-0.263,0.195-0.41,0.256c-0.292,0.126-0.564,0.285-0.862,0.373l-0.883,0.267l0.778-0.479
											c0.255-0.161,0.481-0.358,0.719-0.529c0.122-0.084,0.205-0.204,0.308-0.301c0.091-0.106,0.211-0.194,0.268-0.314
											c0.066-0.113,0.148-0.218,0.201-0.329c0.026-0.117,0.072-0.225,0.09-0.334c-0.018-0.112,0.011-0.213-0.026-0.317
											c-0.047-0.103-0.046-0.204-0.125-0.303c-0.108-0.197-0.261-0.395-0.459-0.568c-0.184-0.18-0.411-0.338-0.638-0.487
											c-0.227-0.142-0.487-0.288-0.708-0.383l-0.39-0.169l0.03-0.496c0.074-1.231,0.149-2.45,0.274-3.67
											c0.132-1.217,0.258-2.437,0.439-3.65c0.184-1.213,0.383-2.424,0.61-3.634c0.249-1.205,0.523-2.408,0.838-3.607
											c0.322-1.198,0.709-2.383,1.186-3.559c0.238-0.589,0.522-1.165,0.861-1.734c0.183-0.283,0.349-0.566,0.587-0.837
											c0.166-0.23,0.603-0.65,0.833-0.768c0.356-0.239,0.684-0.286,1.031-0.414c0.38-0.058,0.755-0.111,1.153-0.017
											c0.8,0.154,1.371,0.746,1.695,1.319C295.919,163.564,296.063,164.829,296.068,166.053z"/>
									</g>
								</g>
								<g>
									<path style="fill:#EF937B;" d="M199.161,174.315c0,0-6.647-12.199-15.175-5.003c-8.528,7.196,4.591,40.531,17.622,33.008
										C214.638,194.797,199.161,174.315,199.161,174.315z"/>
									<g>
										<path style="fill:#C95F4B;" d="M182.026,183.702c-0.349-1.107-0.585-2.29-0.332-3.541c0.124-0.61,0.465-1.312,1.146-1.683
											c0.334-0.2,0.688-0.257,1.049-0.315c0.348,0.021,0.664-0.036,1.049,0.084c0.253,0.048,0.754,0.3,0.972,0.462
											c0.292,0.178,0.522,0.387,0.766,0.591c0.469,0.417,0.887,0.858,1.271,1.322c0.767,0.926,1.454,1.887,2.088,2.877
											c0.628,0.993,1.22,2.002,1.79,3.019c0.551,1.028,1.079,2.066,1.593,3.108c0.512,1.044,0.976,2.11,1.445,3.172
											c0.463,1.066,0.881,2.146,1.301,3.236l0.169,0.437l-0.301,0.263c-0.171,0.15-0.363,0.357-0.526,0.551
											c-0.161,0.2-0.32,0.408-0.432,0.624c-0.128,0.214-0.208,0.437-0.249,0.646c-0.042,0.112-0.013,0.203-0.025,0.31
											c-0.005,0.105,0.052,0.189,0.068,0.295c0.046,0.093,0.12,0.177,0.176,0.276c0.077,0.087,0.183,0.157,0.274,0.241
											c0.085,0.092,0.217,0.139,0.33,0.208c0.12,0.059,0.23,0.143,0.363,0.184c0.263,0.087,0.523,0.199,0.799,0.272l0.838,0.209
											l-0.873,0.011c-0.294,0.005-0.585-0.06-0.884-0.091c-0.149-0.015-0.293-0.077-0.443-0.115
											c-0.146-0.051-0.303-0.07-0.442-0.165c-0.14-0.084-0.291-0.155-0.424-0.26c-0.122-0.125-0.258-0.245-0.365-0.391
											c-0.079-0.163-0.194-0.328-0.229-0.508c-0.031-0.179-0.089-0.372-0.066-0.546c0.004-0.362,0.093-0.7,0.214-1.002
											c0.113-0.313,0.269-0.59,0.432-0.862c0.172-0.272,0.337-0.517,0.565-0.781l-0.132,0.7l-1.579-3.06l-1.595-3.05
											c-0.526-1.018-1.068-2.026-1.625-3.023c-0.538-1.007-1.096-2.001-1.682-2.971c-0.584-0.969-1.165-1.942-1.826-2.831
											c-0.333-0.439-0.658-0.884-1.02-1.27c-0.18-0.184-0.363-0.385-0.554-0.525c-0.094-0.077-0.196-0.162-0.259-0.195
											c-0.069-0.046-0.125-0.108-0.288-0.154c-0.156-0.099-0.44-0.093-0.659-0.15c-0.213,0.013-0.438,0.005-0.619,0.089
											c-0.373,0.135-0.686,0.5-0.884,0.982C182.03,181.361,181.971,182.553,182.026,183.702z"/>
									</g>
								</g>
							</g>
							<g>
								<path style="fill:#0C273A;" d="M287.916,155.137c0,0,1.451,21.126-7.983,26.63c-9.434,5.504-0.225-29.772-0.225-29.772
									L287.916,155.137z"/>
								<path style="fill:#0C273A;" d="M187.65,175.974c0,0,5.426,20.413,15.762,22.48c10.336,2.067-9.302-28.165-9.302-28.165
									L187.65,175.974z"/>
							</g>
						</g>
						<path style="fill:#FFAE92;" d="M237.089,113.787c0,0-44.099,0.689-43.066,49.267c1.034,48.578,32.385,69.594,53.746,65.804
							c21.361-3.79,39.828-34.799,34.797-74.417C277.054,111.031,237.089,113.787,237.089,113.787z"/>
					</g>
					<g>
						<g>
							<g>
								<path style="fill:#0C273A;" d="M237.28,96.905c0,0-33.782-13.546-33.782-33.296c0-8.992-1.215-17.255,6.805-26.734
									c3.673-4.341,15.959-10.612,25.033,6.886c11.018-14.258,30.485-6.856,30.637,13.61c0,0,3.858,17.336-16.047,27.058
									c-19.905,9.721-8.486,10.694-8.486,10.694L237.28,96.905z"/>
								<g>
									<path style="fill:#0C273A;" d="M231.437,90.587c-2.212-0.288-4.382-0.949-6.381-1.964c-2.005-1.008-3.827-2.36-5.467-3.889
										c-3.286-3.075-5.892-6.765-8.423-10.433c-0.644-0.927-1.231-1.844-1.933-2.702c-0.682-0.855-1.418-1.693-2.158-2.524
										c-1.475-1.668-3.001-3.32-4.309-5.18c-0.654-0.927-1.265-1.901-1.743-2.956c-0.23-0.513-0.462-1.098-0.616-1.619
										c-0.185-0.514-0.31-1.097-0.442-1.669c-0.442-2.269-0.429-4.607-0.014-6.859c0.398-2.258,1.14-4.441,2.147-6.489
										c0.992-2.057,2.254-3.977,3.72-5.729c1.457-1.761,3.165-3.319,5.054-4.637c1.906-1.284,4.02-2.338,6.316-2.846
										c2.286-0.554,4.723-0.49,7.002,0.181c2.268,0.655,4.354,1.867,6.097,3.419c3.503,3.121,5.719,7.456,6.583,11.999
										l-1.68,0.184c-0.128-4.058,1.289-8.164,4.119-11.158c0.706-0.749,1.521-1.417,2.468-1.941
										c0.454-0.255,1.05-0.48,1.474-0.605c0.493-0.145,1.06-0.272,1.553-0.34c2.048-0.289,4.068-0.13,6.016,0.212
										c1.957,0.358,3.836,0.841,5.715,1.539c2.034,0.862,3.565,2.262,4.856,3.829c2.523,3.173,4.066,6.951,4.718,10.897
										c0.304,1.976,0.393,4.028-0.093,6.083c-0.521,1.917-1.005,3.711-1.677,5.587c-1.283,3.691-2.852,7.244-4.703,10.668
										l-1.451,2.531l-1.574,2.459c-0.522,0.822-1.132,1.587-1.695,2.382l-0.43,0.591c-0.202,0.263-0.325,0.386-0.492,0.586
										c-0.314,0.364-0.612,0.728-0.982,1.091c-1.395,1.463-2.962,2.721-4.736,3.695c-1.764,0.975-3.701,1.632-5.664,1.973
										c-1.964,0.353-3.945,0.441-5.899,0.399c-0.49-0.004-0.977-0.027-1.463-0.055l-0.693-0.034
										c-0.237-0.005-0.492-0.017-0.694-0.008c-0.422,0.004-0.882,0.042-1.203,0.131c-0.173,0.038-0.272,0.11-0.289,0.12
										c-0.007,0.004-0.007-0.052-0.016,0.085c0.003,0.069,0.012,0.151,0.032,0.282c0.011,0.138,0.061,0.268,0.016,0.607
										c-0.024,0.104-0.052,0.202-0.105,0.304c-0.064,0.109-0.152,0.227-0.242,0.294c-0.207,0.16-0.366,0.196-0.513,0.227
										c-0.25,0.034-0.419,0.013-0.577-0.005c-0.587-0.095-1.043-0.254-1.519-0.41c-0.962-0.357-1.743-0.602-2.628-0.687
										c-0.867-0.081-1.622,0.049-2.29,0.541c-0.347,0.238-0.695,0.57-1.175,0.883c-0.481,0.32-1.151,0.508-1.743,0.465
										c-1.183-0.097-2.083-0.597-2.955-1.073c-0.854-0.492-1.659-0.997-2.481-1.553c-1.611-1.095-3.143-2.301-4.589-3.603
										c-2.886-2.605-5.438-5.599-7.434-8.951c-1.988-3.344-3.417-7.076-3.866-10.97c-0.47-3.888,0.086-7.877,1.508-11.497
										c0.711-1.814,1.584-3.541,2.619-5.189c1.038-1.619,2.324-3.227,4.141-4.083c1.822-0.854,3.868-0.766,5.752-0.482
										c1.907,0.293,3.769,0.768,5.631,1.232c-1.878-0.391-3.76-0.792-5.66-1.007c-1.881-0.202-3.865-0.227-5.542,0.629
										c-1.674,0.848-2.859,2.406-3.825,4.017c-0.959,1.632-1.77,3.373-2.439,5.137c-1.327,3.544-1.795,7.395-1.284,11.13
										c0.498,3.738,1.888,7.327,3.853,10.549c1.966,3.229,4.477,6.119,7.311,8.627c1.419,1.253,2.922,2.411,4.495,3.459
										c0.772,0.512,1.598,1.02,2.413,1.477c0.798,0.436,1.662,0.839,2.412,0.876c0.37,0.009,0.664-0.074,0.986-0.283
										c0.325-0.213,0.674-0.548,1.111-0.864c0.435-0.318,0.97-0.59,1.526-0.714c0.555-0.132,1.111-0.147,1.64-0.106
										c1.035,0.07,2.098,0.416,2.946,0.687c0.439,0.13,0.903,0.257,1.267,0.3c0.08,0.007,0.151,0.002,0.14,0.003
										c-0.029,0.003-0.073,0.007-0.184,0.09c-0.039,0.035-0.103,0.094-0.128,0.158c-0.027,0.049-0.043,0.086-0.047,0.134
										c-0.01,0.101-0.008-0.009-0.032-0.108c-0.02-0.105-0.049-0.261-0.062-0.431c-0.042-0.336,0.063-0.905,0.408-1.242
										c0.32-0.331,0.669-0.476,0.957-0.566c0.6-0.188,1.11-0.209,1.644-0.229c0.277-0.012,0.502-0.002,0.745-0.001l0.744,0.031
										c0.472,0.024,0.944,0.045,1.414,0.047c1.881,0.032,3.753-0.064,5.568-0.399c3.644-0.614,6.945-2.513,9.441-5.196
										c0.317-0.308,0.627-0.688,0.938-1.052c0.14-0.169,0.346-0.396,0.431-0.517l0.414-0.575
										c0.541-0.774,1.128-1.514,1.632-2.316l1.519-2.396l1.401-2.471c1.785-3.337,3.309-6.836,4.529-10.4
										c0.622-1.74,1.131-3.657,1.609-5.446c0.398-1.693,0.33-3.555,0.039-5.358c-0.618-3.61-2.079-7.165-4.325-10.02
										c-1.121-1.399-2.542-2.633-4.057-3.282c-1.713-0.649-3.567-1.139-5.381-1.477c-3.623-0.627-7.567-0.694-9.931,2.106
										c-2.482,2.587-3.794,6.284-3.69,9.884l-1.68,0.183c-0.775-4.2-2.831-8.241-6.002-11.084
										c-1.578-1.418-3.444-2.507-5.462-3.101c-1.996-0.591-4.164-0.711-6.221-0.231c-2.075,0.426-4.044,1.368-5.844,2.544
										c-1.784,1.21-3.425,2.66-4.835,4.318c-1.419,1.648-2.651,3.466-3.624,5.415c-0.988,1.941-1.722,4.012-2.129,6.144
										c-0.424,2.126-0.46,4.329-0.08,6.442c0.114,0.515,0.207,1.028,0.393,1.568c0.156,0.55,0.335,1.004,0.551,1.513
										c0.428,0.984,0.995,1.919,1.613,2.821c1.242,1.805,2.695,3.487,4.141,5.187c0.724,0.852,1.442,1.707,2.131,2.611
										c0.692,0.886,1.29,1.862,1.897,2.781c2.442,3.718,4.942,7.429,8.118,10.539c1.589,1.544,3.351,2.919,5.301,3.982
										C227.098,89.507,229.234,90.232,231.437,90.587z"/>
								</g>
								<g>
									<path style="fill:#0C273A;" d="M239.818,86.719c2.308-0.623,4.634-1.443,6.902-2.318c2.279-0.873,4.509-1.872,6.681-2.984
										c4.326-2.222,8.533-4.846,11.861-8.397c1.655-1.766,3.043-3.805,3.845-6.078c0.386-1.136,0.641-2.323,0.679-3.525
										c0.028-1.199-0.049-2.452-0.144-3.657c-0.218-2.436-0.624-4.861-1.305-7.21c-0.667-2.349-1.594-4.635-2.86-6.718
										c-1.241-2.093-2.918-3.943-4.953-5.245c-2.035-1.312-4.492-1.876-6.888-1.667c-2.406,0.209-4.717,1.106-6.804,2.355
										c-2.018,1.285-3.817,2.987-5.322,4.889c-3.024,3.827-5.167,8.292-6.9,12.86c-1.709,4.584-3.013,9.348-3.901,14.143
										l-0.337,1.82l-0.596-1.742c-4.415-12.895-8.904-25.764-13.25-38.683l0,0l0.396,0.237c-1.666,0.326-3.334,0.851-4.93,1.484
										c-1.601,0.634-3.146,1.407-4.598,2.318c-2.905,1.812-5.423,4.255-7.066,7.219c-0.826,1.475-1.425,3.071-1.795,4.72
										l-0.238,1.245l-0.182,1.289c-0.108,0.856-0.206,1.706-0.279,2.567c-0.29,3.43-0.273,6.889,0.323,10.233
										c0.601,3.335,1.791,6.55,3.695,9.285c0.957,1.362,2.077,2.599,3.318,3.703c1.232,1.118,2.641,2.03,4.083,2.867
										c1.46,0.817,3.004,1.49,4.588,2.063c0.789,0.294,1.608,0.516,2.409,0.777c0.824,0.201,1.638,0.43,2.468,0.611
										c1.661,0.355,3.341,0.634,5.034,0.842c0.85,0.084,1.696,0.193,2.549,0.258l2.561,0.166l-0.178,2.935l-2.658-0.252
										c-0.885-0.094-1.768-0.233-2.651-0.348c-1.764-0.269-3.521-0.615-5.262-1.042c-0.87-0.216-1.73-0.484-2.594-0.725
										c-0.85-0.303-1.71-0.565-2.547-0.905c-1.679-0.664-3.322-1.438-4.883-2.374c-1.545-0.956-3.052-2.002-4.374-3.271
										c-1.33-1.255-2.524-2.657-3.529-4.184c-2.004-3.069-3.175-6.59-3.704-10.132c-0.524-3.555-0.429-7.138-0.027-10.646
										c0.101-0.876,0.229-1.756,0.366-2.628c0.134-0.851,0.304-1.738,0.503-2.618c0.429-1.749,1.104-3.443,2.015-4.996
										c1.815-3.123,4.525-5.631,7.569-7.447c1.524-0.913,3.13-1.677,4.787-2.295c1.661-0.618,3.347-1.116,5.113-1.426
										l0.299-0.052l0.097,0.29l0,0c4.566,12.842,8.988,25.735,13.484,38.602l-0.933,0.078c0.436-2.459,1.034-4.854,1.699-7.242
										c0.676-2.382,1.44-4.741,2.329-7.055c1.775-4.618,3.998-9.131,7.155-13.01c1.579-1.935,3.423-3.651,5.583-4.984
										c2.145-1.24,4.551-2.168,7.069-2.362c2.51-0.2,5.098,0.421,7.205,1.806c2.112,1.372,3.797,3.302,5.09,5.423
										c1.306,2.122,2.261,4.442,2.952,6.823c0.704,2.382,1.129,4.837,1.364,7.305c0.108,1.25,0.18,2.459,0.174,3.724
										c-0.016,1.264-0.26,2.518-0.643,3.719c-0.791,2.407-2.218,4.536-3.854,6.422c-1.649,1.887-3.555,3.519-5.537,5.027
										c-1.989,1.503-4.087,2.855-6.244,4.097c-2.161,1.236-4.378,2.369-6.622,3.45c-2.258,1.069-4.527,2.045-6.901,2.959
										L239.818,86.719z"/>
								</g>
							</g>
							<ellipse style="fill:#C06C84;" cx="234.677" cy="94.115" rx="17.915" ry="14.47"/>
						</g>
						<g>
							<g>
								<path style="fill:#0C273A;" d="M242.429,117.06c0,0-12.661-5.168-13.695,8.01c-1.033,13.178,5.685,21.447-10.594,21.964
									s-20.671,2.067-19.638,14.729c1.034,12.661-1.292,23.312-12.145,20.93c-10.594-2.326-11.158,8.586-21.447,2.584
									c-9.302-5.426-1.292-15.504-1.292-15.504s-0.775,6.718,3.618,6.46c5.933-0.349,8.01-6.202,7.752-9.044
									c-0.838-9.214-13.437-14.47,1.034-28.94c14.47-14.47,19.38-6.201,18.604-18.604c-0.775-12.403,1.034-20.671,20.672-24.806
									C234.936,90.704,245.013,102.849,242.429,117.06z"/>
								<g>
									<path style="fill:#0C273A;" d="M174.824,188.856c0.851-0.251,1.658-0.608,2.418-1.047c0.759-0.44,1.47-0.953,2.171-1.486
										c1.395-1.056,2.746-2.28,4.506-2.937l0.005-0.002l0.021-0.006c2.131-0.577,4.317-0.415,6.396-0.338
										c1.042,0.042,2.076,0.071,3.064-0.034c0.985-0.103,1.922-0.36,2.656-0.875l-0.07,0.053
										c0.426-0.406,0.832-0.827,1.202-1.276c0.365-0.453,0.694-0.93,0.986-1.429c0.285-0.503,0.525-1.029,0.733-1.568
										c0.191-0.547,0.354-1.104,0.472-1.675c0.469-2.293,0.312-4.711,0.009-7.116c-0.313-2.412-0.816-4.831-1.212-7.307
										c-0.394-2.472-0.691-5.03-0.417-7.656l0.005-0.043l0.009-0.043c0.324-1.576,1.002-3.293,2.351-4.469
										c1.311-1.201,2.932-1.771,4.426-2.179c0.759-0.211,1.507-0.367,2.253-0.519l1.109-0.218l0.551-0.107l0.138-0.027
										l0.139-0.022l0.07-0.009l0.279-0.035c1.551-0.193,3.077-0.252,4.589-0.294c1.51-0.039,3.003-0.054,4.473-0.127
										c1.466-0.082,2.919-0.198,4.292-0.503c1.369-0.305,2.663-0.807,3.67-1.637c0.504-0.413,0.935-0.904,1.285-1.46
										c0.172-0.301,0.312-0.541,0.473-0.905c0.148-0.336,0.258-0.602,0.368-0.946c0.431-1.307,0.608-2.715,0.586-4.153
										c-0.016-1.438-0.193-2.899-0.406-4.371c-0.216-1.473-0.463-2.964-0.607-4.488c-0.144-1.521-0.19-3.086,0.061-4.641
										c0.239-1.537,0.827-3.071,1.703-4.357c0.873-1.299,2.035-2.4,3.391-3.159c1.351-0.764,2.902-1.162,4.435-1.121
										c1.536,0.038,3.02,0.528,4.314,1.28c-1.352-0.651-2.843-0.991-4.312-0.927c-1.469,0.05-2.902,0.517-4.117,1.304
										c-1.219,0.783-2.229,1.865-2.955,3.101c-0.728,1.25-1.17,2.604-1.342,4.036c-0.328,2.859,0.393,5.773,0.9,8.735
										c0.263,1.487,0.499,3.005,0.565,4.567c0.068,1.557-0.056,3.177-0.539,4.73c-0.109,0.374-0.278,0.806-0.427,1.157
										c-0.135,0.326-0.352,0.745-0.552,1.096c-0.435,0.723-0.991,1.385-1.637,1.934c-1.299,1.11-2.88,1.73-4.419,2.105
										c-3.108,0.73-6.173,0.651-9.144,0.768c-1.485,0.05-2.96,0.118-4.385,0.306l-0.279,0.037l-0.07,0.009l-0.035,0.005
										c0.133-0.022,0.027-0.004,0.052-0.008l-0.017,0.003l-0.138,0.028l-0.552,0.111l-1.097,0.223
										c-0.722,0.156-1.443,0.303-2.131,0.489c-1.38,0.362-2.678,0.853-3.594,1.695c-0.948,0.807-1.46,2.031-1.751,3.358
										l0.013-0.086c-0.256,2.315-0.005,4.73,0.326,7.149c0.341,2.424,0.804,4.87,1.085,7.379c0.28,2.5,0.368,5.11-0.231,7.676
										c-0.153,0.639-0.355,1.266-0.594,1.882c-0.256,0.61-0.549,1.204-0.893,1.769c-0.35,0.561-0.742,1.093-1.171,1.592
										c-0.433,0.496-0.91,0.943-1.4,1.373l-0.038,0.033l-0.032,0.021c-1.029,0.654-2.205,0.893-3.303,0.962
										c-1.108,0.068-2.18-0.013-3.233-0.1c-2.095-0.173-4.17-0.463-6.154-0.041l0.026-0.008c-0.4,0.129-0.795,0.281-1.179,0.47
										c-0.383,0.19-0.76,0.402-1.129,0.635c-0.739,0.462-1.455,0.98-2.192,1.477c-0.734,0.499-1.497,0.97-2.305,1.35
										C176.537,188.38,175.688,188.675,174.824,188.856z"/>
								</g>
								<g>
									<path style="fill:#0C273A;" d="M203.211,183.624c0,0,0.189-0.328,0.544-0.944c0.349-0.619,0.83-1.542,1.34-2.759
										c0.499-1.217,1.001-2.758,1.15-4.575c0.157-1.817-0.184-3.874-1.032-5.951c-0.799-2.094-2.135-4.212-2.783-6.838
										c-0.312-1.304-0.37-2.746-0.109-4.128c0.233-1.399,0.737-2.803,1.598-4.035c0.851-1.237,2.061-2.232,3.399-2.943
										c1.341-0.718,2.796-1.19,4.267-1.551c2.942-0.729,6.002-0.967,8.905-1.612c2.878-0.629,5.831-1.64,7.634-3.84
										c0.895-1.081,1.428-2.415,1.654-3.794c0.115-0.69,0.172-1.39,0.163-2.09c0.007-0.345-0.022-0.71-0.035-1.037l-0.099-1.065
										c-0.324-2.76-1.012-5.431-1.532-7.991c-0.548-2.515-0.868-5.188,0.032-7.414c0.9-2.206,2.455-3.733,3.906-4.904
										c1.504-1.143,3.127-1.677,4.467-1.753c1.351-0.105,2.385,0.248,3.036,0.51c0.332,0.131,0.57,0.266,0.73,0.356
										c0.161,0.088,0.244,0.133,0.244,0.133s-0.085-0.041-0.251-0.12c-0.165-0.081-0.408-0.203-0.744-0.316
										c-0.66-0.23-1.693-0.508-2.999-0.361c-1.297,0.124-2.843,0.702-4.244,1.856c-0.694,0.567-1.371,1.29-2.008,2.079
										c-0.632,0.794-1.215,1.695-1.59,2.725c-0.779,2.087-0.445,4.536,0.162,7.049c0.578,2.528,1.339,5.176,1.684,8.065
										c0.172,1.386,0.245,2.943-0.003,4.431c-0.233,1.501-0.818,3.018-1.823,4.25c-0.995,1.241-2.337,2.157-3.749,2.812
										c-1.419,0.656-2.914,1.101-4.417,1.424c-3.022,0.642-6.039,0.851-8.901,1.539c-2.828,0.652-5.607,1.825-7.162,4.075
										c-0.776,1.098-1.257,2.378-1.51,3.664c-0.276,1.304-0.25,2.589,0.012,3.826c0.544,2.473,1.821,4.632,2.597,6.795
										c0.837,2.148,1.104,4.329,0.871,6.189c-0.223,1.866-0.794,3.408-1.342,4.617c-0.554,1.212-1.1,2.108-1.474,2.71
										C203.417,183.305,203.211,183.624,203.211,183.624z"/>
								</g>
								<g>
									<path style="fill:#0C273A;" d="M160.786,169.486c0,0-0.094,0.6-0.059,1.725c0.018,0.56,0.075,1.257,0.285,2.033
										c0.22,0.75,0.572,1.685,1.422,2.2c0.825,0.544,2.019,0.457,3.218,0.196c1.176-0.265,2.397-0.875,3.409-1.838
										c0.991-0.982,1.815-2.28,2.272-3.779c0.224-0.745,0.388-1.54,0.385-2.323c-0.002-0.081,0.002-0.232-0.004-0.256
										l-0.045-0.324l-0.09-0.653l-0.091-0.66l-0.173-0.607c-0.803-3.339-3.325-6.528-4.518-10.716
										c-0.587-2.082-0.674-4.509,0.091-6.713c0.723-2.196,1.937-4.247,3.449-6.003c0.372-0.448,0.745-0.898,1.119-1.35
										l1.238-1.238l1.248-1.246l1.302-1.171c1.788-1.565,3.672-3.038,5.72-4.352c2.031-1.326,4.253-2.447,6.539-3.331
										c1.132-0.45,2.3-0.829,3.263-1.297c0.983-0.475,1.517-1.033,1.812-2.008c0.607-1.965,0.426-4.459,0.465-6.841
										c0.04-2.441,0.19-4.901,0.71-7.317c0.512-2.411,1.473-4.789,2.984-6.767c1.504-1.991,3.503-3.457,5.545-4.59
										c4.142-2.248,8.545-3.209,12.657-3.867c4.107-0.671,8.208-0.77,11.828-0.092c3.638,0.669,6.802,2.154,9.138,4.031
										c2.358,1.867,3.871,4.068,4.781,5.984c0.117,0.239,0.232,0.471,0.343,0.697c0.087,0.236,0.172,0.465,0.254,0.688
										c0.156,0.447,0.316,0.861,0.434,1.255c0.181,0.805,0.377,1.477,0.46,2.037c0.148,1.121,0.227,1.718,0.227,1.718
										s-0.117-0.59-0.337-1.696c-0.118-0.55-0.357-1.205-0.585-1.984c-0.14-0.381-0.328-0.777-0.504-1.207
										c-0.091-0.214-0.184-0.434-0.28-0.661c-0.119-0.216-0.242-0.438-0.369-0.666c-0.978-1.827-2.548-3.88-4.889-5.554
										c-2.327-1.68-5.384-2.936-8.868-3.497c-3.512-0.54-7.341-0.346-11.373,0.431c-4.011,0.758-8.234,1.864-12.043,3.948
										c-1.874,1.064-3.642,2.396-4.935,4.146c-1.3,1.741-2.131,3.829-2.581,6.049c-0.456,2.225-0.581,4.558-0.597,6.909
										c0.001,1.208,0.037,2.378,0.015,3.634c-0.046,1.245-0.085,2.512-0.519,3.861c-0.216,0.663-0.567,1.366-1.104,1.933
										c-0.531,0.571-1.173,0.958-1.772,1.246c-1.21,0.568-2.343,0.909-3.442,1.337c-2.194,0.826-4.27,1.848-6.222,3.094
										c-1.956,1.227-3.801,2.64-5.522,4.117l-1.291,1.139l-1.204,1.181l-1.197,1.172c-0.355,0.421-0.709,0.84-1.061,1.258
										c-1.458,1.64-2.516,3.5-3.228,5.387c-0.724,1.905-0.708,3.929-0.243,5.826c0.939,3.842,3.377,7.101,4.2,10.86l0.167,0.696
										l0.072,0.663l0.071,0.655l0.035,0.325c0.016,0.191,0.001,0.258,0.002,0.393c-0.026,0.947-0.235,1.82-0.528,2.633
										c-0.585,1.627-1.551,3.001-2.693,4.027c-1.17,1.008-2.519,1.604-3.828,1.833c-0.331,0.064-0.651,0.116-0.951,0.116
										c-0.317,0-0.573,0.063-0.921,0.01c-0.308-0.035-0.611-0.045-0.89-0.167c-0.14-0.052-0.284-0.088-0.413-0.152l-0.365-0.23
										c-0.959-0.656-1.263-1.688-1.438-2.475c-0.165-0.818-0.175-1.524-0.158-2.09
										C160.654,170.077,160.786,169.486,160.786,169.486z"/>
								</g>
								<path style="fill:#0C273A;" d="M242.688,109.308c0,0-3.359-19.896-28.423-21.447s-27.648,21.188-30.749,28.682
									c-3.101,7.493-14.987-8.01-23.255-2.842s-6.718,18.863-17.312,12.403c0,0,5.168,10.077,14.47,1.292
									s11.111,11.369,32.041,4.134c20.93-7.235,43.41-24.031,43.41-24.031L242.688,109.308z"/>
								<g>
									<path style="fill:#0C273A;" d="M242.693,111.221c0,0-0.061-0.527-0.312-1.484c-0.239-0.957-0.661-2.348-1.395-4.031
										c-0.335-0.855-0.832-1.743-1.34-2.72c-0.595-0.928-1.172-1.974-1.986-2.954c-0.729-1.042-1.698-1.989-2.66-3.026
										c-1.086-0.914-2.145-1.965-3.467-2.792c-1.227-0.955-2.713-1.626-4.166-2.439c-0.775-0.314-1.563-0.633-2.363-0.957
										c-0.403-0.153-0.793-0.348-1.214-0.47c-0.422-0.119-0.847-0.24-1.275-0.361c-0.859-0.23-1.715-0.514-2.605-0.711
										c-0.901-0.156-1.812-0.313-2.734-0.472c-0.452-0.078-0.907-0.156-1.364-0.235c-0.479-0.047-0.961-0.095-1.445-0.142
										c-0.984-0.127-1.897-0.101-2.857-0.156c-1.924,0.013-3.872,0.167-5.792,0.563c-1.92,0.394-3.791,1.065-5.557,1.964
										c-3.543,1.804-6.521,4.716-8.772,8.13c-2.305,3.397-3.958,7.227-5.474,11.079c-0.384,0.966-0.766,1.933-1.178,2.901
										c-0.213,0.484-0.433,0.967-0.676,1.451l-0.044,0.09l-0.084,0.145l-0.099,0.164l-0.199,0.328
										c-0.19,0.251-0.425,0.562-0.674,0.785c-0.494,0.465-1.159,0.782-1.83,0.91c-0.66,0.083-1.313,0.053-1.868-0.099
										c-1.139-0.271-2.087-0.753-2.99-1.242c-3.544-1.997-6.534-4.369-9.823-5.504c-1.617-0.561-3.282-0.766-4.766-0.35
										c-0.753,0.178-1.413,0.537-2.121,0.96c-0.637,0.388-1.255,0.887-1.819,1.387c-2.234,2.089-3.694,4.623-5.179,6.742
										c-0.739,1.065-1.493,2.051-2.37,2.812c-0.861,0.774-1.921,1.221-2.889,1.277c-0.974,0.051-1.808-0.209-2.47-0.5
										c-0.672-0.282-1.201-0.601-1.618-0.871c-0.426-0.256-0.72-0.5-0.931-0.646c-0.207-0.151-0.313-0.229-0.313-0.229
										s0.112,0.07,0.329,0.205c0.22,0.13,0.53,0.351,0.972,0.573c0.431,0.237,0.977,0.512,1.648,0.737
										c0.663,0.231,1.47,0.423,2.349,0.33c0.874-0.105,1.779-0.54,2.538-1.298c0.771-0.746,1.444-1.726,2.111-2.812
										c1.344-2.158,2.667-4.829,5.003-7.178c0.599-0.573,1.22-1.124,1.972-1.625c0.682-0.448,1.499-0.94,2.405-1.193
										c1.809-0.582,3.82-0.357,5.628,0.212c3.658,1.159,6.836,3.542,10.205,5.368c1.631,0.873,3.627,1.632,4.516,0.624
										c0.123-0.12,0.196-0.226,0.322-0.372l0.193-0.331l0.096-0.166l0.024-0.041c-0.007,0.014,0.051-0.09-0.011,0.021
										l0.038-0.083c0.21-0.436,0.408-0.891,0.602-1.354c0.388-0.931,0.762-1.892,1.141-2.86
										c1.505-3.881,3.187-7.881,5.618-11.502c2.408-3.612,5.674-6.794,9.577-8.751c3.887-2.021,8.234-2.632,12.284-2.567
										c1.015,0.071,2.072,0.077,3.018,0.217c0.483,0.057,0.964,0.113,1.442,0.17c0.49,0.097,0.977,0.193,1.462,0.289
										c0.951,0.193,1.892,0.384,2.822,0.572c0.92,0.231,1.808,0.551,2.694,0.817c0.441,0.139,0.88,0.277,1.315,0.414
										c0.434,0.14,0.839,0.354,1.255,0.526c0.823,0.365,1.633,0.725,2.43,1.079c1.494,0.909,3.003,1.671,4.25,2.717
										c1.335,0.919,2.413,2.045,3.479,3.054c0.943,1.131,1.883,2.16,2.576,3.273c0.778,1.051,1.314,2.156,1.866,3.133
										c0.465,1.026,0.918,1.954,1.211,2.84c0.664,1.741,0.954,3.181,1.132,4.156
										C242.671,110.691,242.693,111.221,242.693,111.221z"/>
								</g>
								<g>
									<path style="fill:#0C273A;" d="M147.598,132.047c0.845,0.2,1.709,0.289,2.568,0.304c0.858,0.01,1.716-0.038,2.548-0.205
										c1.669-0.308,3.225-1.075,4.415-2.215c0.597-0.57,1.095-1.231,1.526-1.933c0.365-0.637,0.831-1.679,1.786-2.219
										c0.96-0.565,2.099-0.502,3.002-0.274c0.93,0.229,1.758,0.607,2.56,1c1.595,0.799,3.078,1.698,4.588,2.51
										c1.508,0.807,3.017,1.576,4.58,2.102c1.557,0.532,3.167,0.818,4.723,0.672c1.555-0.133,3.036-0.704,4.343-1.607l0.64,1.835
										c-1.165,0.109-2.411,0.323-3.603,0.58c-1.202,0.257-2.388,0.585-3.558,0.952c-2.336,0.74-4.594,1.724-6.629,3.033
										c-1.024,0.644-1.975,1.388-2.855,2.198c-0.885,0.807-1.685,1.702-2.353,2.688c-0.687,0.973-1.252,2.031-1.671,3.149
										c-0.451,1.107-0.729,2.281-0.938,3.468c-0.169,1.156-0.227,2.495-0.499,3.79c-0.261,1.29-0.654,2.575-1.289,3.763
										c-0.624,1.187-1.487,2.285-2.592,3.097c-1.099,0.813-2.419,1.331-3.765,1.452c-2.699,0.248-5.387-0.877-7.127-2.832
										c-0.871-0.975-1.483-2.188-1.69-3.469c-0.198-1.284,0.012-2.594,0.512-3.753c-0.403,1.198-0.494,2.493-0.205,3.693
										c0.277,1.202,0.918,2.298,1.783,3.153c1.725,1.72,4.272,2.568,6.603,2.199c1.166-0.168,2.263-0.655,3.162-1.385
										c0.904-0.729,1.604-1.699,2.106-2.766c0.505-1.069,0.833-2.232,1.032-3.424c0.212-1.188,0.223-2.385,0.356-3.737
										c0.179-1.304,0.417-2.62,0.896-3.867c0.438-1.258,1.043-2.462,1.786-3.572c1.458-2.243,3.454-4.097,5.661-5.524
										c2.207-1.444,4.615-2.511,7.085-3.316c1.235-0.406,2.496-0.723,3.764-0.99c1.28-0.263,2.53-0.473,3.881-0.589l3.828-0.329
										l-3.187,2.164c-1.551,1.053-3.412,1.781-5.326,1.896c-1.914,0.131-3.783-0.27-5.486-0.896
										c-3.432-1.249-6.289-3.387-9.239-5.032c-0.738-0.399-1.487-0.768-2.232-0.999c-0.747-0.23-1.478-0.275-2.059,0.023
										c-0.617,0.307-0.959,0.914-1.479,1.74c-0.512,0.754-1.138,1.433-1.84,2.014c-1.413,1.16-3.164,1.845-4.926,2.031
										C151.024,132.824,149.243,132.603,147.598,132.047z"/>
								</g>
							</g>
							<g>
								<path style="fill:#0C273A;" d="M230.801,95.355c0,0,20.155-17.829,41.343-8.785c21.188,9.044,23.514,30.49,27.648,48.061
									c4.134,17.571-9.819,10.336-12.403,25.581c0,0-18.84-1.344-17.054-21.705c1.292-14.728-18.003-28.049-27.907-21.447
									C240.104,118.61,230.801,95.355,230.801,95.355z"/>
								<g>
									<path style="fill:#0C273A;" d="M282.13,162.926c0,0-0.38-0.046-1.081-0.199c-0.7-0.156-1.729-0.407-2.986-0.897
										c-1.257-0.481-2.751-1.185-4.329-2.241c-1.572-1.055-3.22-2.503-4.579-4.457c-0.677-0.975-1.266-2.072-1.768-3.255
										c-0.479-1.193-0.828-2.48-1.067-3.823c-0.442-2.692-0.367-5.592,0.142-8.486c0.226-1.402,0.307-2.709,0.209-4.108
										c-0.107-1.388-0.406-2.777-0.822-4.143c-0.835-2.739-2.337-5.317-4.165-7.604c-1.847-2.276-4.048-4.295-6.509-5.791
										c-2.447-1.489-5.13-2.581-7.8-2.74c-1.328-0.091-2.63,0.06-3.832,0.431c-0.307,0.079-0.598,0.193-0.88,0.326l-0.429,0.184
										c-0.353,0.134-0.053,0.063-0.526,0.154c-0.078,0.007-0.167,0.009-0.232,0.003l-0.153-0.028
										c-0.107-0.021-0.198-0.052-0.268-0.088c-0.604-0.3-0.79-0.63-1.044-0.933c-0.228-0.308-0.414-0.612-0.584-0.915
										c-1.31-2.42-2.087-4.773-2.846-6.952c-1.473-4.359-2.423-8.062-3.129-10.641c-0.678-2.587-1.007-4.079-1.007-4.079
										s0.506,1.44,1.392,3.962c0.873,2.522,2.183,6.109,3.858,10.347c0.862,2.094,1.794,4.424,3.061,6.578
										c0.161,0.262,0.332,0.515,0.509,0.734c0.157,0.208,0.406,0.425,0.422,0.405c0.005,0.005-0.006-0.002-0.029-0.01
										c-0.01-0.002-0.02-0.003-0.029-0.002c-0.024-0.004-0.07-0.008-0.106-0.002c-0.302,0.101,0.153-0.061-0.045,0.011
										l0.497-0.24c0.33-0.169,0.67-0.317,1.027-0.427c1.406-0.51,2.945-0.695,4.471-0.634c3.069,0.131,6.074,1.235,8.741,2.853
										c2.688,1.609,5.07,3.754,7.08,6.2c1.956,2.485,3.562,5.288,4.462,8.312c0.457,1.506,0.754,3.056,0.832,4.608
										c0.017,0.779,0.045,1.54-0.037,2.335c-0.04,0.832-0.185,1.442-0.302,2.23c-0.528,2.727-0.717,5.422-0.406,7.926
										c0.168,1.249,0.456,2.44,0.834,3.562c0.403,1.111,0.889,2.153,1.468,3.093c1.174,1.87,2.613,3.358,4.043,4.488
										c1.436,1.127,2.84,1.927,4.036,2.491C280.619,162.6,282.13,162.926,282.13,162.926z"/>
								</g>
								<g>
									<path style="fill:#0C273A;" d="M308.578,142.641c0.514,0.561,0.943,1.221,1.209,1.95c0.267,0.728,0.382,1.514,0.356,2.296
										c-0.054,1.567-0.637,3.104-1.578,4.367c-0.936,1.253-2.229,2.342-3.858,2.718c-0.806,0.188-1.698,0.122-2.478-0.218
										c-0.787-0.332-1.433-0.91-1.927-1.559c-0.503-0.711-0.806-1.248-1.37-1.667c-0.531-0.412-1.177-0.619-1.855-0.623
										c-1.372-0.002-2.749,0.673-3.984,1.457c-1.245,0.804-2.393,1.778-3.504,2.791c-1.1,1.022-2.157,2.12-3.12,3.259
										l-0.779-0.549c0.322-0.501,0.662-0.933,1.035-1.364c0.374-0.425,0.775-0.827,1.21-1.196
										c0.866-0.734,1.884-1.355,3.042-1.624c1.156-0.265,2.41-0.097,3.445,0.426c0.52,0.255,1.005,0.57,1.438,0.935
										c0.456,0.366,0.819,0.731,1.228,1.135c0.773,0.796,1.469,1.661,2.107,2.555c0.647,0.883,1.195,1.841,1.922,2.599
										c0.365,0.37,0.803,0.662,1.311,0.726c0.505,0.075,1.035-0.063,1.531-0.252c0.996-0.4,1.917-1.004,2.81-1.625
										c-0.851,0.677-1.717,1.359-2.729,1.818c-0.503,0.221-1.058,0.404-1.644,0.351c-0.591-0.043-1.125-0.363-1.539-0.744
										c-0.823-0.784-1.423-1.703-2.091-2.554c-0.656-0.86-1.357-1.676-2.126-2.421c-0.377-0.35-0.798-0.746-1.207-1.044
										c-0.412-0.323-0.86-0.587-1.325-0.794c-0.93-0.425-1.964-0.511-2.928-0.26c-0.971,0.237-1.867,0.787-2.648,1.467
										c-0.392,0.341-0.758,0.717-1.099,1.114c-0.336,0.395-0.664,0.829-0.926,1.248l-0.779-0.549
										c0.994-1.206,2.046-2.324,3.169-3.395c1.12-1.069,2.329-2.058,3.661-2.896c0.668-0.415,1.368-0.793,2.121-1.083
										c0.751-0.285,1.562-0.491,2.415-0.473c0.848,0.01,1.728,0.303,2.398,0.842c0.681,0.501,1.147,1.326,1.518,1.857
										c0.426,0.563,0.942,1.045,1.554,1.336c0.61,0.293,1.313,0.379,2,0.247c1.386-0.258,2.636-1.196,3.55-2.338
										c0.909-1.154,1.572-2.552,1.709-4.042C309.976,145.381,309.528,143.846,308.578,142.641z"/>
								</g>
								<g>
									<path style="fill:#0C273A;" d="M230.026,96.389c0,0,1.142-1.199,3.424-2.984c2.296-1.753,5.718-4.139,10.246-6.26
										c2.263-1.052,4.789-2.059,7.553-2.845c2.762-0.783,5.746-1.41,8.881-1.696c3.147-0.262,6.374-0.296,9.727,0.145
										c3.344,0.495,6.647,1.795,9.471,3.775c2.852,1.954,5.153,4.571,7.023,7.323c1.87,2.767,3.308,5.71,4.462,8.623
										c1.167,2.911,2.075,5.795,2.804,8.554c0.739,2.757,1.323,5.385,1.795,7.821c0.971,4.867,1.504,8.96,1.946,11.811
										c0.398,2.859,0.625,4.493,0.625,4.493s-0.405-1.601-1.04-4.416c-0.625-2.816-1.558-6.833-2.739-11.616
										c-1.221-4.769-2.742-10.321-5.115-15.934c-1.2-2.795-2.632-5.594-4.404-8.202c-1.785-2.593-3.957-4.967-6.529-6.784
										c-2.561-1.835-5.546-3.003-8.608-3.531c-3.071-0.481-6.272-0.515-9.279-0.322c-3.029,0.177-5.936,0.686-8.644,1.359
										c-2.711,0.668-5.226,1.517-7.488,2.451c-2.262,0.934-4.299,1.897-6.047,2.864c-1.752,0.959-3.232,1.885-4.424,2.687
										C231.276,95.304,230.026,96.389,230.026,96.389z"/>
								</g>
							</g>
						</g>
					</g>
				</g>
				<g>
					<path style="fill:#0C273A;" d="M225.331,177.789c0.472,4.153-0.463,7.67-2.088,7.854c-1.625,0.185-3.325-3.033-3.797-7.186
						c-0.472-4.153,0.463-7.67,2.088-7.854C223.159,170.418,224.859,173.635,225.331,177.789z"/>
					<path style="fill:#0C273A;" d="M263.912,173.405c0.472,4.153-0.463,7.67-2.088,7.854c-1.625,0.185-3.325-3.033-3.797-7.186
						c-0.472-4.153,0.463-7.67,2.088-7.854C261.74,166.035,263.44,169.252,263.912,173.405z"/>
					<g>
						<path style="fill:#C95F4B;" d="M247.749,163.527c-0.326,1.201-0.581,2.408-0.831,3.608c-0.229,1.205-0.448,2.404-0.587,3.61
							c-0.158,1.202-0.261,2.405-0.294,3.602c-0.056,1.196-0.02,2.388,0.107,3.559c0.039,0.588,0.132,1.168,0.229,1.744
							c0.1,0.576,0.238,1.14,0.396,1.698c0.181,0.548,0.334,1.107,0.563,1.633c0.198,0.541,0.471,1.045,0.735,1.552
							c0.288,0.494,0.598,0.973,0.938,1.433c0.326,0.47,0.712,0.898,1.104,1.317l0.618,0.605l0.665,0.56
							c0.427,0.399,0.941,0.69,1.411,1.045l0.71,0.535l-0.479,0.581c-0.457,0.554-0.925,1.101-1.4,1.641
							c-0.475,0.541-0.936,1.092-1.425,1.623c-0.963,1.072-1.937,2.135-2.961,3.161c0.702-1.268,1.454-2.499,2.218-3.72
							c0.375-0.616,0.777-1.212,1.165-1.818c0.388-0.606,0.784-1.207,1.19-1.799l0.231,1.116c-0.555-0.331-1.152-0.601-1.676-0.994
							c-0.554-0.351-1.052-0.779-1.544-1.218c-0.478-0.45-0.952-0.919-1.363-1.436c-0.436-0.502-0.789-1.064-1.139-1.627
							c-0.32-0.578-0.645-1.159-0.886-1.772c-0.274-0.602-0.473-1.23-0.654-1.861c-0.166-0.634-0.307-1.272-0.406-1.915
							c-0.096-0.642-0.184-1.286-0.215-1.93c-0.064-1.289-0.02-2.573,0.115-3.838c0.151-1.264,0.384-2.51,0.688-3.733
							c0.323-1.219,0.692-2.42,1.16-3.582C246.584,165.738,247.118,164.602,247.749,163.527z"/>
					</g>
					<g>
						<path style="fill:#C95F4B;" d="M214.631,185.628c0,0,1.001,0.544,2.502,1.36c0.368,0.186,0.766,0.387,1.188,0.599
							c0.418,0.208,0.87,0.389,1.321,0.585c0.914,0.363,1.898,0.646,2.811,0.68c0.452,0.01,0.89-0.029,1.292-0.153
							c0.391-0.145,0.795-0.288,1.129-0.57c0.344-0.255,0.666-0.565,0.95-0.896c0.155-0.153,0.263-0.344,0.396-0.51
							c0.134-0.165,0.259-0.332,0.361-0.508c0.443-0.676,0.788-1.3,1.024-1.74c0.238-0.442,0.395-0.698,0.395-0.698
							s0.014,0.291,0.001,0.807c-0.002,0.259-0.023,0.572-0.085,0.926c-0.04,0.36-0.119,0.763-0.254,1.196
							c-0.114,0.438-0.296,0.908-0.553,1.383c-0.255,0.475-0.571,0.983-1.038,1.412c-0.438,0.45-1.018,0.838-1.661,1.09
							c-0.648,0.261-1.355,0.334-2.029,0.326c-1.36-0.057-2.554-0.549-3.538-1.116c-0.991-0.568-1.789-1.242-2.413-1.865
							C215.172,186.693,214.631,185.628,214.631,185.628z"/>
					</g>
					<g>
						<path style="fill:#C95F4B;" d="M269.559,179.388c0,0-0.289,1.159-1.234,2.653c-0.469,0.747-1.095,1.583-1.933,2.359
							c-0.832,0.773-1.885,1.521-3.197,1.881c-0.656,0.158-1.36,0.246-2.051,0.137c-0.683-0.101-1.336-0.349-1.863-0.689
							c-0.551-0.314-0.973-0.738-1.328-1.144c-0.357-0.405-0.64-0.822-0.849-1.223c-0.228-0.391-0.396-0.766-0.516-1.108
							c-0.14-0.331-0.231-0.632-0.291-0.883c-0.128-0.5-0.18-0.787-0.18-0.787s0.211,0.214,0.542,0.591
							c0.329,0.376,0.805,0.907,1.388,1.466c0.139,0.148,0.298,0.283,0.466,0.414c0.166,0.132,0.314,0.294,0.5,0.408
							c0.35,0.259,0.734,0.489,1.126,0.66c0.389,0.2,0.815,0.249,1.228,0.302c0.419,0.031,0.855-0.03,1.293-0.141
							c0.882-0.238,1.777-0.735,2.586-1.294c0.395-0.292,0.795-0.57,1.156-0.867c0.363-0.302,0.706-0.587,1.023-0.85
							C268.706,180.142,269.559,179.388,269.559,179.388z"/>
					</g>
					<g>
						<path style="fill:#0C273A;" d="M233.982,151.947c0,0-0.195,0.513-0.688,1.322c-0.247,0.403-0.555,0.892-0.956,1.414
							c-0.402,0.519-0.855,1.119-1.42,1.701c-0.543,0.609-1.195,1.198-1.895,1.821c-0.716,0.596-1.497,1.207-2.349,1.771
							c-0.864,0.545-1.755,1.128-2.738,1.575c-0.487,0.23-0.966,0.493-1.472,0.7l-1.539,0.578c-1.024,0.4-2.104,0.628-3.152,0.883
							c-0.521,0.145-1.053,0.217-1.58,0.275c-0.525,0.066-1.042,0.136-1.553,0.183c-1.016,0.127-2.018,0.046-2.949,0.049
							c-0.933,0.012-1.812-0.155-2.614-0.274c-0.801-0.146-1.532-0.232-2.163-0.451c-0.634-0.181-1.176-0.379-1.62-0.534
							c-0.887-0.315-1.373-0.54-1.373-0.54s0.544-0.12,1.461-0.252c0.458-0.063,1.01-0.151,1.633-0.204
							c0.622-0.04,1.323-0.243,2.074-0.341c0.751-0.128,1.559-0.196,2.396-0.413c0.836-0.201,1.725-0.299,2.616-0.551
							c0.888-0.26,1.822-0.415,2.736-0.719c0.91-0.313,1.866-0.511,2.766-0.891l1.379-0.48c0.45-0.184,0.898-0.366,1.343-0.547
							c0.904-0.337,1.752-0.762,2.603-1.127c0.836-0.392,1.642-0.792,2.41-1.176c0.753-0.406,1.494-0.765,2.148-1.148
							c1.347-0.717,2.45-1.39,3.245-1.858C233.527,152.225,233.982,151.947,233.982,151.947z"/>
					</g>
					<g>
						<path style="fill:#0C273A;" d="M249.141,152.5c0,0,0.468,0.255,1.288,0.701c0.818,0.428,1.952,1.045,3.333,1.694
							c0.673,0.35,1.43,0.672,2.203,1.04c0.786,0.345,1.611,0.705,2.465,1.055c0.869,0.322,1.737,0.705,2.656,0.996
							c0.453,0.159,0.91,0.319,1.369,0.48l1.401,0.41c0.918,0.335,1.883,0.485,2.807,0.753c0.928,0.257,1.869,0.366,2.768,0.582
							c0.902,0.208,1.794,0.261,2.64,0.42c0.847,0.175,1.658,0.202,2.414,0.293c0.754,0.061,1.464,0.229,2.088,0.238
							c0.624,0.022,1.18,0.082,1.641,0.122c0.922,0.086,1.471,0.179,1.471,0.179s-0.475,0.249-1.345,0.608
							c-0.436,0.176-0.968,0.402-1.592,0.614c-0.619,0.25-1.344,0.372-2.138,0.558c-0.795,0.159-1.665,0.37-2.597,0.404
							c-0.93,0.043-1.926,0.175-2.948,0.098c-0.512-0.022-1.032-0.066-1.56-0.106c-0.529-0.032-1.064-0.078-1.591-0.196
							c-1.06-0.202-2.15-0.376-3.193-0.725l-1.566-0.501c-0.515-0.181-1.007-0.42-1.505-0.626c-1.004-0.397-1.923-0.935-2.813-1.437
							c-0.879-0.522-1.69-1.093-2.435-1.652c-0.73-0.587-1.41-1.143-1.983-1.724c-0.593-0.552-1.075-1.13-1.503-1.628
							c-0.427-0.501-0.759-0.974-1.025-1.365C249.36,153.002,249.141,152.5,249.141,152.5z"/>
					</g>
					<path style="fill:#FFFFFF;" d="M230.539,209.135c0,0,13.872-15.539,29.16-2.362L230.539,209.135z"/>
					<g>
						<path style="fill:#C95F4B;" d="M228.558,186.439c0,0,0.058,0.893-0.182,2.209c-0.249,1.297-0.743,3.088-2.03,4.525
							c-0.326,0.35-0.718,0.651-1.139,0.897c-0.431,0.237-0.911,0.368-1.375,0.417c-0.942,0.085-1.755-0.23-2.353-0.553
							c-0.597-0.344-1.027-0.707-1.305-0.979c-0.27-0.279-0.425-0.438-0.425-0.438s0.198,0.098,0.543,0.27
							c0.165,0.095,0.383,0.178,0.619,0.289c0.233,0.118,0.517,0.198,0.806,0.314c0.301,0.083,0.622,0.172,0.961,0.214
							c0.339,0.047,0.69,0.031,1.036-0.02c0.69-0.131,1.348-0.524,1.876-1.116c0.544-0.573,0.969-1.292,1.333-1.988
							c0.356-0.703,0.645-1.393,0.885-1.994C228.272,187.281,228.558,186.439,228.558,186.439z"/>
					</g>
					<g>
						<path style="fill:#C95F4B;" d="M255.901,182.738c0,0,0.416,0.815,1.081,1.964c0.34,0.571,0.744,1.224,1.224,1.874
							c0.492,0.634,1.039,1.297,1.704,1.758c0.641,0.5,1.39,0.753,2.12,0.777c0.365-0.015,0.73-0.045,1.07-0.145
							c0.343-0.087,0.661-0.223,0.958-0.346c0.58-0.282,1.061-0.568,1.388-0.784c0.334-0.214,0.525-0.337,0.525-0.337
							s-0.133,0.183-0.385,0.496c-0.254,0.309-0.65,0.73-1.218,1.151c-0.57,0.406-1.349,0.816-2.304,0.9
							c-0.47,0.012-0.983,0.004-1.455-0.174c-0.475-0.156-0.931-0.388-1.326-0.682c-0.398-0.293-0.744-0.636-1.052-0.99
							c-0.319-0.348-0.559-0.739-0.799-1.105c-0.455-0.749-0.776-1.493-1.002-2.142
							C255.974,183.655,255.901,182.738,255.901,182.738z"/>
					</g>
					<g>
						<path style="fill:#C95F4B;" d="M232.451,211.328c0,0,0.441,0.127,1.211,0.308c0.765,0.195,1.864,0.431,3.169,0.691
							c0.659,0.109,1.362,0.25,2.113,0.349c0.746,0.129,1.54,0.19,2.353,0.283c0.812,0.115,1.66,0.073,2.51,0.157
							c0.851-0.027,1.72,0.028,2.576-0.068c0.857-0.07,1.723-0.091,2.548-0.277c0.415-0.077,0.83-0.143,1.243-0.198
							c0.401-0.104,0.797-0.207,1.186-0.308c0.391-0.103,0.776-0.204,1.152-0.302c0.365-0.135,0.722-0.268,1.07-0.397
							c0.352-0.128,0.694-0.253,1.024-0.373c0.329-0.128,0.623-0.299,0.921-0.438c0.58-0.303,1.15-0.536,1.625-0.796
							c0.45-0.294,0.86-0.536,1.197-0.741c0.678-0.405,1.087-0.629,1.087-0.629s-0.286,0.348-0.823,0.945
							c-0.271,0.296-0.599,0.662-0.996,1.065c-0.413,0.38-0.927,0.755-1.485,1.177c-0.283,0.204-0.565,0.443-0.885,0.643
							c-0.333,0.179-0.677,0.364-1.03,0.554c-0.357,0.189-0.724,0.384-1.099,0.582c-0.387,0.172-0.803,0.295-1.216,0.449
							c-0.417,0.144-0.839,0.303-1.272,0.44c-0.44,0.106-0.89,0.205-1.345,0.293c-0.905,0.223-1.843,0.28-2.778,0.374
							c-0.937,0.077-1.873-0.003-2.793-0.002c-0.912-0.096-1.815-0.175-2.667-0.351c-0.858-0.148-1.675-0.345-2.434-0.579
							c-0.769-0.194-1.467-0.477-2.113-0.716C233.923,212.455,232.451,211.328,232.451,211.328z"/>
					</g>
				</g>
			</g>
		</g>
	</g>
</g>
</svg>
