<svg width="814" height="242" viewBox="0 0 814 242" fill="none" xmlns="http://www.w3.org/2000/svg">
<path d="M288.5 187.5H261.162C258.748 187.5 256.35 186.99 254.163 185.968C228.836 174.138 218.346 164.156 216.114 138.424C216.032 137.485 216.044 136.514 216.138 135.576C219.289 104.182 228.298 92.0075 255.409 84.5562C256.789 84.1771 258.224 84 259.654 84H352.158C353.712 84 355.269 84.2095 356.758 84.6529C384.926 93.0409 393.538 105.175 397.687 134.678C397.903 136.212 397.892 137.783 397.648 139.312C393.445 165.685 384.813 177.1 357.069 186.64C355.375 187.222 353.587 187.5 351.795 187.5H345.5C336.111 187.5 328.5 179.889 328.5 170.5V155.5C328.5 146.111 320.889 138.5 311.5 138.5H305.5C296.111 138.5 288.5 146.111 288.5 155.5V168" stroke="#5BB483" stroke-width="20"/>
<path d="M9.94318 194V84.9091H47.1591V105.648H48.2955C50.5682 98.8295 54.4508 93.4318 59.9432 89.4545C65.4356 85.4773 71.9697 83.4886 79.5455 83.4886C87.2159 83.4886 93.821 85.5246 99.3608 89.5966C104.901 93.6212 108.239 98.9716 109.375 105.648H110.511C112.358 98.9716 116.288 93.6212 122.301 89.5966C128.314 85.5246 135.369 83.4886 143.466 83.4886C153.93 83.4886 162.405 86.8504 168.892 93.5739C175.426 100.297 178.693 109.246 178.693 120.42V194H139.489V130.364C139.489 125.581 138.281 121.841 135.866 119.142C133.452 116.396 130.208 115.023 126.136 115.023C122.112 115.023 118.916 116.396 116.548 119.142C114.228 121.841 113.068 125.581 113.068 130.364V194H75.5682V130.364C75.5682 125.581 74.3608 121.841 71.946 119.142C69.5313 116.396 66.2879 115.023 62.2159 115.023C59.517 115.023 57.197 115.638 55.2557 116.869C53.3144 118.1 51.7992 119.876 50.7102 122.196C49.6686 124.469 49.1477 127.191 49.1477 130.364V194H9.94318Z" fill="#1E1E24"/>
<path d="M434.943 194V84.9091H473.011V105.648H474.148C476.136 97.9773 479.285 92.3665 483.594 88.8153C487.95 85.2642 493.04 83.4886 498.864 83.4886C500.568 83.4886 502.249 83.6307 503.906 83.9148C505.611 84.1515 507.244 84.5066 508.807 84.9801V118.432C506.866 117.769 504.474 117.272 501.634 116.94C498.793 116.609 496.354 116.443 494.318 116.443C490.483 116.443 487.027 117.319 483.949 119.071C480.919 120.776 478.527 123.19 476.776 126.315C475.024 129.393 474.148 133.015 474.148 137.182V194H434.943ZM546.982 195.705C540.021 195.705 533.866 194.568 528.516 192.295C523.213 189.975 519.046 186.472 516.016 181.784C512.985 177.097 511.47 171.131 511.47 163.886C511.47 157.92 512.488 152.83 514.524 148.616C516.56 144.355 519.401 140.875 523.047 138.176C526.693 135.477 530.93 133.418 535.76 131.997C540.637 130.577 545.893 129.653 551.527 129.227C557.635 128.754 562.536 128.186 566.229 127.523C569.969 126.812 572.668 125.842 574.325 124.611C575.982 123.332 576.811 121.652 576.811 119.568V119.284C576.811 116.443 575.722 114.265 573.544 112.75C571.366 111.235 568.572 110.477 565.163 110.477C561.423 110.477 558.369 111.306 556.001 112.963C553.681 114.573 552.285 117.059 551.811 120.42H515.732C516.205 113.792 518.312 107.684 522.053 102.097C525.84 96.4621 531.357 91.964 538.601 88.6023C545.845 85.1932 554.889 83.4886 565.732 83.4886C573.544 83.4886 580.552 84.4119 586.754 86.2585C592.957 88.0578 598.236 90.5909 602.592 93.858C606.948 97.0777 610.263 100.866 612.536 105.222C614.856 109.53 616.016 114.218 616.016 119.284V194H579.368V178.659H578.516C576.338 182.731 573.686 186.022 570.561 188.531C567.483 191.041 563.956 192.864 559.979 194C556.049 195.136 551.716 195.705 546.982 195.705ZM559.766 170.989C562.749 170.989 565.542 170.373 568.146 169.142C570.798 167.911 572.952 166.135 574.609 163.815C576.267 161.495 577.095 158.678 577.095 155.364V146.273C576.054 146.699 574.941 147.101 573.757 147.48C572.621 147.859 571.39 148.214 570.064 148.545C568.786 148.877 567.412 149.185 565.945 149.469C564.524 149.753 563.033 150.013 561.47 150.25C558.44 150.723 555.954 151.505 554.013 152.594C552.119 153.635 550.698 154.938 549.751 156.5C548.852 158.015 548.402 159.72 548.402 161.614C548.402 164.644 549.467 166.964 551.598 168.574C553.729 170.184 556.451 170.989 559.766 170.989ZM673.952 132.636V194H634.748V48.5455H672.532V105.648H673.668C676.13 98.6875 680.226 93.2661 685.955 89.3835C691.684 85.4536 698.574 83.4886 706.623 83.4886C714.341 83.4886 721.04 85.2405 726.722 88.7443C732.451 92.2481 736.879 97.0777 740.004 103.233C743.176 109.388 744.738 116.443 744.691 124.398V194H705.487V132.636C705.534 127.239 704.184 123.001 701.438 119.923C698.739 116.846 694.88 115.307 689.862 115.307C686.689 115.307 683.896 116.017 681.481 117.438C679.113 118.811 677.267 120.799 675.941 123.403C674.663 125.96 674 129.038 673.952 132.636ZM764.045 194V84.9091H803.249V194H764.045ZM783.647 73.5455C778.344 73.5455 773.799 71.7936 770.011 68.2898C766.223 64.786 764.329 60.572 764.329 55.6477C764.329 50.7235 766.223 46.5095 770.011 43.0057C773.799 39.5019 778.344 37.75 783.647 37.75C788.997 37.75 793.543 39.5019 797.283 43.0057C801.071 46.5095 802.965 50.7235 802.965 55.6477C802.965 60.572 801.071 64.786 797.283 68.2898C793.543 71.7936 788.997 73.5455 783.647 73.5455Z" fill="#1E1E24"/>
</svg>
