<svg width="900" height="900" viewBox="0 0 900 900" fill="none" xmlns="http://www.w3.org/2000/svg">
<path d="M763.112 601.457C744.104 592.873 741.211 572.211 733.36 561.469C725.508 550.724 706.5 544.113 706.5 544.113C706.5 544.113 724.682 530.064 753.608 533.369C767.207 534.922 777.424 541.044 785.767 547.693C781.475 535.246 785.831 528.073 778.401 516.235C769.723 502.407 752.782 494.939 743.276 471.976C733.772 449.014 743.276 428.409 743.276 428.409C743.276 428.409 746.168 436.673 757.739 444.938C768.082 452.326 797.234 453.46 814.523 475.747C805.588 349.972 718.146 281.237 657.644 245.383C605.675 214.587 572.119 150.313 431.712 159.608C291.305 168.923 260.046 258.998 225.257 327.186C205.999 364.934 162.457 373.286 125.734 399.258C152.915 392.146 170.152 405.263 190.629 409.401C215.17 414.36 219.026 397.057 241.065 397.168C263.104 397.28 271.368 404.993 271.368 404.993C271.368 404.993 249.329 401.686 242.167 420.421C235.004 439.153 226.188 446.189 204.149 443.223C182.11 440.257 175.73 441.857 164.043 452.353C152.357 462.847 125.359 455.134 109.931 458.989C100.791 461.273 88.3657 477.482 79.7545 490.315C86.7115 484.684 96.2371 478.463 109.069 472.738C144.882 456.759 190.627 485.987 190.627 485.987C190.627 485.987 154.561 494.251 133.623 508.577C112.685 522.904 97.8103 509.128 83.4841 514.087C76.3093 516.571 70.5169 519.088 66.5209 520.981C66.5173 521.037 66.5119 521.091 66.5083 521.147C63.6355 565.693 80.4709 605.245 109.067 639.146C179.087 722.144 319.63 771.318 414.238 777.2C513.184 783.333 686.837 746.577 769.295 637.043C776.594 627.354 783.166 617.085 788.918 606.235C780.676 606.19 771.188 605.104 763.112 601.457Z" fill="#CCE4B4"/>
<path d="M373.956 390.729C400.386 379.562 412.76 349.084 401.594 322.654C390.427 296.224 359.949 283.85 333.519 295.017C307.088 306.183 294.715 336.661 305.881 363.092C317.048 389.522 347.526 401.895 373.956 390.729Z" fill="#5BB483"/>
<path d="M711.682 309.778C722.098 309.778 730.543 301.334 730.543 290.918C730.543 280.502 722.098 272.057 711.682 272.057C701.266 272.057 692.822 280.502 692.822 290.918C692.822 301.334 701.266 309.778 711.682 309.778Z" fill="#5BB483"/>
<path d="M769.3 637.042C686.842 746.575 513.189 783.331 414.243 777.199C319.635 771.316 179.093 722.142 109.073 639.144C135.743 609.581 203.931 549.704 329.76 532.87C498.92 510.232 616.822 644.544 744.656 637.448C753.255 636.964 761.47 636.849 769.3 637.042Z" fill="#5BB483"/>
<path d="M220.955 287.91C236.659 240.802 199.467 262.564 185.418 292.592C171.369 322.621 144.922 325.921 144.922 342.866C144.922 359.811 205.252 335.018 220.955 287.91Z" stroke="#5BB483" stroke-miterlimit="10"/>
<path d="M651.541 228.802C651.541 228.802 607.738 191.628 589.97 179.644C572.2 167.659 580.052 151.544 620.755 170.14C661.459 188.735 678.814 224.642 673.441 232.103C668.07 239.562 651.541 228.802 651.541 228.802Z" stroke="#5BB483" stroke-miterlimit="10"/>
<path d="M245.057 340.045C245.057 341.604 243.794 342.868 242.235 342.868C240.676 342.868 239.413 341.604 239.413 340.045C239.413 338.486 240.676 337.223 242.235 337.223C243.794 337.223 245.057 338.486 245.057 340.045Z" fill="#1A6A3E"/>
<path d="M268.749 345.379C268.749 346.937 267.485 348.201 265.927 348.201C264.368 348.201 263.104 346.937 263.104 345.379C263.104 343.82 264.368 342.556 265.927 342.556C267.485 342.556 268.749 343.82 268.749 345.379Z" fill="#1A6A3E"/>
<path d="M347.928 261.065C347.928 262.624 346.664 263.887 345.105 263.887C343.546 263.887 342.283 262.624 342.283 261.065C342.283 259.506 343.546 258.242 345.105 258.242C346.664 258.242 347.928 259.506 347.928 261.065Z" fill="#1A6A3E"/>
<path d="M717.327 511.317C717.327 512.876 716.063 514.139 714.505 514.139C712.946 514.139 711.682 512.876 711.682 511.317C711.682 509.758 712.946 508.495 714.505 508.495C716.063 508.495 717.327 509.758 717.327 511.317Z" fill="#1A6A3E"/>
<path d="M726.939 503.672C726.939 505.231 725.675 506.495 724.117 506.495C722.558 506.495 721.294 505.231 721.294 503.672C721.294 502.114 722.558 500.85 724.117 500.85C725.675 500.85 726.939 502.114 726.939 503.672Z" fill="#1A6A3E"/>
<path d="M258.559 335.432C261.069 335.432 263.104 333.397 263.104 330.887C263.104 328.377 261.069 326.342 258.559 326.342C256.049 326.342 254.014 328.377 254.014 330.887C254.014 333.397 256.049 335.432 258.559 335.432Z" fill="#1A6A3E"/>
<path d="M738.043 366.232C740.553 366.232 742.588 364.197 742.588 361.687C742.588 359.176 740.553 357.142 738.043 357.142C735.533 357.142 733.498 359.176 733.498 361.687C733.498 364.197 735.533 366.232 738.043 366.232Z" fill="#1A6A3E"/>
<path d="M254.014 498.37C254.014 501.622 251.377 504.259 248.125 504.259C244.872 504.259 242.235 501.622 242.235 498.37C242.235 495.117 244.872 492.48 248.125 492.48C251.377 492.482 254.014 495.117 254.014 498.37Z" stroke="white" stroke-miterlimit="10"/>
<path d="M586.897 247.212C586.897 250.465 584.26 253.102 581.008 253.102C577.755 253.102 575.118 250.465 575.118 247.212C575.118 243.959 577.755 241.322 581.008 241.322C584.26 241.322 586.897 243.959 586.897 247.212Z" stroke="white" stroke-miterlimit="10"/>
<path d="M298.918 245.827C308.566 242.024 313.304 231.12 309.501 221.473C305.698 211.825 294.795 207.087 285.147 210.89C275.499 214.693 270.761 225.596 274.564 235.244C278.367 244.892 289.271 249.63 298.918 245.827Z" stroke="white" stroke-miterlimit="10"/>
<path d="M815.346 425.885C835.021 417.859 844.465 395.402 836.439 375.726C828.413 356.051 805.956 346.607 786.28 354.633C766.605 362.66 757.161 385.116 765.187 404.792C773.214 424.467 795.67 433.911 815.346 425.885Z" stroke="white" stroke-miterlimit="10"/>
<path d="M79.3621 615.922C100.612 615.922 117.839 598.696 117.839 577.445C117.839 556.195 100.612 538.969 79.3621 538.969C58.1119 538.969 40.8853 556.195 40.8853 577.445C40.8853 598.696 58.1119 615.922 79.3621 615.922Z" stroke="white" stroke-miterlimit="10"/>
<path d="M371.065 185.895C371.065 185.895 362.959 190.102 362.576 207.851C362.193 225.601 379.197 233.825 389.92 233.635L388.98 230.866C388.98 230.866 370.717 228.852 365.978 213.358C361.237 197.863 371.567 187.342 371.567 187.342L371.065 185.895Z" fill="#3D2624"/>
<path d="M666.322 495.632C666.322 495.632 662.612 523.687 613.402 534.398C564.192 545.11 513.438 517.055 513.438 517.055L521.719 516.235C521.719 516.235 550.418 532.868 584.851 530.829C619.283 528.788 638.782 507.875 638.782 507.875L666.322 495.632Z" fill="#3D2624"/>
<path d="M678.454 359.946C681.514 325.26 633.566 289.553 576.436 280.359C519.305 271.165 523.429 210.233 523.429 210.233L409.291 275.908C409.291 275.908 404.023 330.361 365.98 360.967C327.937 391.572 321.388 464.006 339.241 492.572C357.093 521.138 388.719 523.177 437.944 520.117C487.168 517.057 509.985 519.611 564.703 524.198C619.421 528.784 658.436 541.219 691.664 480.584C724.892 419.951 678.454 359.946 678.454 359.946ZM673.862 357.14C673.862 357.14 667.996 340.052 645.552 322.454C623.108 304.855 605.254 295.164 605.254 295.164C675.137 317.099 675.902 357.142 675.902 357.142H673.862V357.14Z" fill="#3D2624"/>
<path d="M369.949 329.036C369.949 329.036 353.777 343.624 342.301 374.229C330.824 404.834 306.594 499.712 306.594 499.712L345.762 524.135L383.618 420.647L369.949 329.036Z" fill="#C56E5D"/>
<path d="M526.012 476.174C520.054 493.799 521.519 513.083 530.12 529.591L532.222 538.673V538.693L537.988 563.512C498.532 597.76 443.727 609.311 410.018 601.868C376.29 594.425 367.709 566.829 367.709 566.829L372.917 530.363L363.989 449.235C363.989 449.235 357.008 438.572 354.038 414.022C351.049 389.453 369.947 329.036 369.947 329.036L431.347 304.488L476.123 300.67L550.811 329.036L560.471 353.237C560.124 366.62 550.271 401.042 539.973 433.575C535.095 449.023 530.12 464.045 526.012 476.174Z" fill="#F7DBC6"/>
<path d="M476.548 304.661C469.532 317.441 444.485 333.484 434.371 329.976C424.256 326.468 432.454 308.425 432.454 308.425C432.547 305.863 432.641 303.502 432.711 301.327C433.179 286.898 433.085 280.805 433.085 280.805L476.548 252.04C475.531 257.29 475.027 263.288 474.853 269.321C474.327 286.875 476.548 304.661 476.548 304.661Z" fill="#C56E5D"/>
<path d="M476.548 252.041C475.531 257.292 475.027 263.29 474.853 269.323C469.872 276.795 461.569 287.996 452.94 294.136C444.03 300.485 436.732 301.444 432.711 301.327C433.179 286.898 433.086 280.805 433.086 280.805L476.548 252.041Z" fill="#AF5448"/>
<path d="M385.848 236.759C385.848 236.759 387.351 272.34 412.409 288.376C437.467 304.412 472.545 270.837 478.559 252.295C484.573 233.753 482.568 193.662 482.568 193.662C482.568 193.662 449.493 171.612 424.437 171.612C399.381 171.612 385.848 184.14 385.848 184.14C385.848 184.14 385.848 218.218 385.848 236.759Z" fill="#C56E5D"/>
<path d="M414.405 172.312C414.405 172.312 413.66 185.393 437.715 200.677C461.77 215.96 474.813 219.092 474.813 219.092L479.907 247.192C479.907 247.192 476.408 256.01 475.429 259.216C474.36 262.715 474.777 273.841 474.777 273.841C474.777 273.841 495.096 270.83 502.11 252.04C502.11 252.04 522.907 236.507 523.658 208.444C524.41 180.38 509.877 171.61 509.877 171.61C509.877 171.61 506.137 138.035 469.044 132.271C431.951 126.508 402.385 147.305 402.385 147.305C402.385 147.305 384.343 144.799 374.571 157.577C364.799 170.356 371.063 185.891 371.063 185.891C371.063 185.891 362.544 194.161 367.555 207.691C372.566 221.222 385.846 222.975 385.846 222.975C385.846 222.975 387.099 199.922 393.865 188.397C400.632 176.873 414.405 172.312 414.405 172.312Z" fill="#3D2624"/>
<path d="M476.554 223.229C476.554 223.229 481.315 211.451 491.087 210.199C500.859 208.946 501.611 226.235 494.845 237.762C488.079 249.287 478.559 247.034 478.559 247.034L476.554 223.229Z" fill="#C56E5D"/>
<path d="M471.793 210.136C471.793 210.136 478.307 229.745 474.549 245.279C474.549 245.279 475.605 244.237 476.986 242.224C480.13 237.643 481.439 220.223 482.848 214.25L471.793 210.136Z" fill="#3D2624"/>
<path d="M401.884 149.062C401.884 149.062 410.069 137.201 425.605 132.358C441.14 127.514 454.169 132.358 454.169 132.358L456.674 132.19C456.674 132.19 442.141 125.212 425.77 130.205C409.399 135.198 398.041 148.061 398.041 148.061L401.884 149.062Z" fill="#3D2624"/>
<path d="M509.879 171.612C509.879 171.612 518.539 173.282 523.689 182.637C528.838 191.992 523.523 201.488 523.523 201.488L522.659 200.344C522.659 200.344 526.803 192.283 521.656 183.472C516.51 174.661 509.879 175.12 509.879 175.12V171.612Z" fill="#3D2624"/>
<path d="M388.98 217.019C388.98 217.019 390.019 214.646 397.431 214.796C404.844 214.943 409.291 219.094 409.291 219.094C409.291 219.094 405.882 212.72 399.136 211.829C392.389 210.94 389.128 215.982 388.98 217.019Z" fill="#3D2624"/>
<path d="M414.405 172.312C414.405 172.312 413.242 185.143 420.759 195.5C428.276 205.857 450.493 205.857 450.493 205.857L451.384 207.85C451.384 207.85 429.446 208.028 420.592 200.176C411.737 192.325 410.737 179.194 412.407 172.312H414.405Z" fill="#3D2624"/>
<path d="M429.318 217.84C429.318 217.84 430.517 215.1 439.078 215.271C447.639 215.442 452.774 220.235 452.774 220.235C452.774 220.235 448.836 212.873 441.047 211.846C433.257 210.82 429.489 216.641 429.318 217.84Z" fill="#3D2624"/>
<path d="M409.29 251.543C409.29 251.543 410.416 252.67 414.677 253.922C418.938 255.175 421.944 253.922 421.944 253.922C421.944 253.922 420.658 251.543 417.354 251.041C414.051 250.54 409.29 251.543 409.29 251.543Z" fill="#913D37"/>
<path d="M409.29 219.094C409.29 219.094 411.657 221.6 412.533 228.114C413.41 234.628 412.533 239.765 412.533 239.765C412.533 239.765 409.554 222.728 409.29 219.094Z" fill="#AF5448"/>
<path d="M389.92 226.361C389.92 226.361 393.554 227.927 398.126 228.427C402.698 228.928 408.337 227.488 408.337 227.488C408.337 227.488 406.238 221.848 401.384 220.534C393.741 218.468 389.92 226.361 389.92 226.361Z" fill="#AF5448"/>
<path d="M429.318 227.284C429.318 227.284 430.072 221.503 437.465 220.237C444.856 218.97 453.627 226.739 453.627 226.739C453.627 226.739 439.09 233.672 429.318 227.284Z" fill="#AF5448"/>
<path d="M399.337 228.366C394.409 228.283 389.92 226.361 389.92 226.361L388.98 226.987C388.368 227.396 386.997 227.572 386.997 227.572C388.321 228.15 389.695 228.116 390.534 228.013C392.24 228.989 395.26 230.319 399.129 230.371C405.268 230.454 408.337 228.325 408.337 228.325V227.489C408.337 227.489 404.266 228.449 399.337 228.366Z" fill="#3D2624"/>
<path d="M453.627 226.737C453.627 226.737 447.678 228.546 441.519 228.715C435.357 228.883 429.662 227.072 429.662 227.072L428.515 227.786C427.768 228.251 426.062 228.51 426.062 228.51C427.743 229.055 429.457 228.949 430.501 228.794C432.677 229.743 436.509 230.999 441.344 230.855C449.019 230.627 451.386 228.803 453.053 227.709C453.289 227.552 453.627 226.737 453.627 226.737Z" fill="#3D2624"/>
<path d="M409.289 262.903C409.289 262.903 410.557 263.488 415.616 264.49C420.676 265.493 432.711 262.903 432.711 262.903C432.711 262.903 423.83 261.4 421 261.567C418.171 261.734 416.25 263.137 416.25 263.137C416.25 263.137 413.662 261.065 412.074 261.065C410.486 261.065 407.563 261.983 407.563 261.983L409.289 262.903Z" fill="#913D37"/>
<path d="M411.107 268.259C411.107 268.259 414.553 270.598 419.564 270.765C424.575 270.932 430.004 268.844 430.004 268.844C430.004 268.844 426.987 273.175 420.556 273.843C414.124 274.511 411.107 268.259 411.107 268.259Z" fill="#AF5448"/>
<path d="M349.587 588.919L371.157 542.749C371.157 542.749 385.497 557.863 429.318 559.395C473.139 560.925 532.222 538.697 532.222 538.697C532.222 538.697 547.357 577.759 547.357 592.295C547.357 606.834 460.896 664.22 460.896 664.22L409.63 660.395L349.587 588.919Z" fill="#743F3D"/>
<path d="M347.13 664.22C347.13 664.22 332.966 669.733 328.113 671.994C328.113 671.994 306.952 674.161 298.458 676.665C289.964 679.169 287.818 690.557 285.736 702.855C283.651 715.153 267.808 731.653 262.892 740.214C257.976 748.775 260.323 758.947 261.002 761.054C261.68 763.16 258.878 770.342 262.404 774.788C265.928 779.234 267.982 776.945 269.953 775.845C271.924 774.745 272.524 770.832 272.524 770.832C272.524 770.832 277.994 769.766 280.04 768.177C282.087 766.588 279.986 766.566 285.043 764.937C290.099 763.308 292.702 762.005 295.522 759.933C298.343 757.861 314.3 730.163 324.47 721.307C334.638 712.449 352.946 709.342 352.946 709.342L347.13 664.22Z" fill="#C56E5D"/>
<path d="M624.379 713.95C589.833 722.662 514.813 728.786 447.577 732.767C378.306 736.873 317.3 738.695 317.3 738.695L307.035 706.113L297.931 677.227L499.28 637.306C499.28 637.306 493.799 595.618 537.665 573.16C537.665 573.16 668.245 574.195 699.881 610.92C731.498 647.644 697.327 695.597 624.379 713.95Z" fill="#743F3D"/>
<path d="M427.815 702.497C427.815 702.497 441.979 708.01 446.83 710.271C446.83 710.271 467.991 712.438 476.485 714.942C484.98 717.446 487.125 728.834 489.208 741.132C491.292 753.43 507.136 769.93 512.052 778.491C516.967 787.052 514.62 797.224 513.942 799.331C513.263 801.437 516.066 808.619 512.539 813.065C509.015 817.511 506.961 815.222 504.99 814.122C503.019 813.022 502.42 809.109 502.42 809.109C502.42 809.109 496.95 808.043 494.903 806.454C492.856 804.865 494.957 804.843 489.901 803.214C484.845 801.585 482.242 800.282 479.421 798.21C476.601 796.138 460.644 768.44 450.474 759.584C440.305 750.726 421.998 747.619 421.998 747.619L427.815 702.497Z" fill="#C56E5D"/>
<path d="M360.662 580.819C360.662 580.819 188.505 580.819 160.96 611.424C133.414 642.029 148.718 681.052 170.906 694.06C193.095 707.067 425.7 759.098 425.7 759.098L437.942 687.938L403.625 677.227L421.999 652.624L360.662 580.819Z" fill="#743F3D"/>
<path d="M360.153 587.45C360.153 587.45 396.079 631.928 415.607 645.14C415.607 645.14 375.457 641.009 360.153 587.45Z" fill="#5E3030"/>
<path d="M221.407 625.963C221.407 625.963 251.248 629.788 297.922 639.734C344.596 649.681 403.627 677.227 403.627 677.227C403.627 677.227 343.069 635.909 295.628 625.963C248.188 616.014 221.407 625.963 221.407 625.963Z" fill="#5E3030"/>
<path d="M387.88 667.186C387.88 667.186 526.7 625.756 584.851 616.295C584.851 616.295 461.893 653.252 403.627 677.227L387.88 667.186Z" fill="#5E3030"/>
<path d="M521.719 583.794C521.719 583.794 454.421 617.013 431.771 650.691C431.771 650.691 502.711 614.317 521.719 583.794Z" fill="#5E3030"/>
<path d="M345.762 524.135C345.762 524.135 334.332 496.327 307.528 496.075L201.098 568.282C199.046 567.218 195.448 565.738 189.891 564.705C180.304 562.921 161.356 563.144 156.451 562.253C154.085 561.823 153.952 563.004 154.964 564.565C153.402 563.917 150.912 565.661 148.991 568.496C145.971 572.954 138.391 581.263 138.391 585.914C138.391 590.566 146.641 595.247 151.544 595.471C151.544 595.471 134.824 599.706 131.702 605.725C128.581 611.744 136.831 610.853 139.505 609.514C142.18 608.177 159.347 603.495 159.347 603.495C159.347 603.495 142.403 612.859 141.957 619.324C141.511 625.79 147.307 621.999 152.658 619.324C158.009 616.649 167.594 611.744 167.594 611.744C167.594 611.744 153.772 621.776 156.224 626.234C158.675 630.693 170.046 620.512 179.186 616.351C188.327 612.189 195.235 611.577 202.948 608.58C213.741 604.388 219.436 595.355 219.436 595.355C238.46 588.278 319.955 556.591 345.762 524.135ZM166.484 584.768C158.904 587.443 150.208 584.768 149.094 583.43C147.98 582.093 156.451 574.29 156.451 568.271C156.451 567.329 156.332 566.6 156.137 566.021C157.383 567.322 159.133 568.634 160.891 569.385C165.591 571.392 175.846 572.494 178.522 574.06C181.197 575.627 174.064 582.093 166.484 584.768Z" fill="#C56E5D"/>
<path d="M696.307 432.635C696.307 432.635 705.998 462.231 699.367 484.288C692.736 506.344 667.357 511.319 667.357 511.319L671.438 506.218C671.438 506.218 696.433 502.009 697.835 467.705C699.084 437.229 696.307 432.635 696.307 432.635Z" fill="#3D2624"/>
<path d="M179.953 573.709C179.953 573.709 188.368 578.491 197.741 578.491C207.113 578.491 195.829 582.7 188.847 580.595C181.865 578.491 179.953 573.709 179.953 573.709Z" fill="#AF5448"/>
<path d="M209.482 590.355C209.482 590.355 203.744 590.546 195.71 594.754C187.677 598.963 183.469 609.674 181.364 607.954C179.26 606.233 184.999 589.781 209.482 590.355Z" fill="#AF5448"/>
<path d="M154.053 595.181C154.053 595.181 171.637 609.401 173.742 609.592C175.846 609.782 166.486 595.946 154.053 595.181Z" fill="#AF5448"/>
<path d="M370.336 442.598C370.336 442.598 379.013 438.053 405.461 438.053C431.908 438.053 475.927 448.384 475.927 448.384C475.927 448.384 394.715 448.798 370.336 442.598Z" fill="#EFC9B6"/>
<path d="M530.142 530.077L532.244 539.159V539.179L494.755 550.75C494.755 550.75 513.826 504.661 513.461 469.39C513.094 434.119 524.607 390.229 524.607 390.229L539.995 434.061C535.117 449.507 530.14 464.53 526.032 476.66C520.076 494.285 521.541 513.569 530.142 530.077Z" fill="#EFC9B6"/>
<path d="M723.813 639.571C721.865 633.076 706.225 625.802 706.225 625.802C711.085 626.495 720.061 623.43 720.925 618.86C721.791 614.29 715.889 604.715 713.751 599.773C712.392 596.63 710.269 594.454 708.613 594.799C709.897 593.456 709.987 592.27 707.584 592.252C702.6 592.216 684.022 588.472 674.271 588.44C670.34 588.427 667.309 588.805 665.073 589.259L593.775 489.001C589.833 464.497 584.394 402.473 577.962 374.994C569.545 339.032 550.804 329.035 550.804 329.035C550.804 329.035 527.562 342.857 523.687 369.637C519.811 396.418 553.943 516.235 553.943 516.235C566.064 550.321 629.894 604.795 638.781 614.972C638.781 614.972 643.452 622.993 653.276 629.12C660.298 633.499 666.972 635.388 675.178 641.176C683.385 646.965 692.662 659.084 695.902 655.159C699.142 651.235 687.427 638.806 687.427 638.806C687.427 638.806 695.934 645.408 700.693 649.031C705.453 652.655 710.442 657.457 711.207 651.022C711.972 644.587 697.066 632.236 697.066 632.236C697.066 632.236 713.061 640.03 715.441 641.84C717.82 643.655 725.758 646.065 723.813 639.571ZM693.54 612.509C686.59 608.47 680.784 600.791 683.703 599.749C686.623 598.707 696.904 599.533 701.896 598.435C703.762 598.025 705.726 597.062 707.193 596.014C706.894 596.547 706.642 597.242 706.466 598.165C705.346 604.08 712.219 613.323 710.874 614.43C709.531 615.537 700.49 616.549 693.54 612.509Z" fill="#C56E5D"/>
<path d="M681.45 600.712C681.45 600.712 673.035 605.495 663.662 605.495C654.289 605.495 665.574 609.703 672.556 607.599C679.538 605.495 681.45 600.712 681.45 600.712Z" fill="#AF5448"/>
<path d="M645.836 613.3C645.836 613.3 651.575 613.49 659.61 617.699C667.643 621.907 671.852 632.619 673.956 630.898C676.058 629.176 670.32 612.725 645.836 613.3Z" fill="#AF5448"/>
<path d="M699.113 623.029C699.113 623.029 681.529 637.247 679.424 637.439C677.32 637.63 686.678 623.794 699.113 623.029Z" fill="#AF5448"/>
<path d="M425.09 315.596C425.09 315.596 416.734 331.506 430.004 335.844C443.274 340.184 466 325.1 477.571 313.943C477.571 313.943 462.282 338.531 437.487 342.455C412.693 346.381 418.444 321.008 425.09 315.596Z" fill="#EFC9B6"/>
<path d="M514.631 174.262C514.054 173.107 512.55 172.794 511.56 173.622L467.329 210.59C466.876 210.968 466.614 211.527 466.612 212.117L466.574 221.544C466.568 223.185 468.432 224.135 469.756 223.165L519.138 186.998C519.925 186.422 520.181 185.362 519.745 184.49L514.631 174.262Z" fill="#2C2C2C"/>
<path d="M372.453 229.436C372.553 239.156 380.515 246.953 390.234 246.853L453.241 247.682C462.96 247.582 470.759 239.62 470.657 229.901L470.447 209.662C470.346 199.943 462.385 192.145 452.666 192.246L389.659 191.416C379.94 191.517 372.142 199.478 372.243 209.197L372.453 229.436Z" fill="#2B292B"/>
<path d="M371.618 225.935C371.71 234.753 378.932 241.829 387.75 241.738L442.844 242.648C451.662 242.556 458.737 235.334 458.646 226.516L458.455 208.154C458.364 199.336 451.141 192.26 442.323 192.352L387.23 191.441C378.412 191.533 371.336 198.755 371.428 207.573L371.618 225.935Z" fill="#6C6C6C"/>
<g opacity="0.5">
<path d="M387.226 199.426L442.193 200.335L442.301 200.336L442.408 200.334C444.541 200.312 446.554 201.121 448.078 202.615C449.602 204.106 450.452 206.104 450.474 208.236L450.664 226.598C450.709 230.945 447.23 234.546 442.837 234.663L387.884 233.755L387.776 233.754L387.668 233.756C383.266 233.801 379.647 230.256 379.602 225.855L379.413 207.493C379.367 203.13 382.87 199.518 387.226 199.426ZM387.115 191.442C378.35 191.595 371.338 198.793 371.429 207.574L371.618 225.936C371.71 234.754 378.932 241.83 387.75 241.738L442.844 242.648C442.883 242.648 442.921 242.647 442.96 242.646C451.725 242.493 458.737 235.296 458.646 226.515L458.455 208.153C458.364 199.335 451.141 192.259 442.323 192.351L387.23 191.44C387.193 191.441 387.154 191.441 387.115 191.442Z" fill="#1A1A1A"/>
</g>
</svg>
